<?xml version="1.0" encoding="utf-8"?>
<!-- Generated by IcoMoon.io -->
<!DOCTYPE svg PUBLIC "-//W3C//DTD SVG 1.1//EN" "http://www.w3.org/Graphics/SVG/1.1/DTD/svg11.dtd">
<svg version="1.1" xmlns="http://www.w3.org/2000/svg" xmlns:xlink="http://www.w3.org/1999/xlink" width="32" height="32" viewBox="0 0 32 32">
<path fill="#444444" d="M13.915 21.917l-5.379-5.379c-0.346-0.346-0.346-0.909 0-1.258s0.909-0.346 1.254 0l4.125 4.125 8.694-8.694c0.346-0.346 0.909-0.346 1.254 0s0.346 0.909 0 1.254l-9.949 9.952zM16.2 3.555c-6.864 0-12.445 5.584-12.445 12.445s5.581 12.445 12.445 12.445c6.864 0 12.445-5.584 12.445-12.445s-5.581-12.445-12.445-12.445zM16.2 1.779c7.856 0 14.221 6.368 14.221 14.221s-6.365 14.221-14.221 14.221c-7.856 0-14.221-6.368-14.221-14.221s6.365-14.221 14.221-14.221v0z"></path>
</svg>
