<?xml version="1.0" encoding="utf-8"?>
<!-- Generated by IcoMoon.io -->
<!DOCTYPE svg PUBLIC "-//W3C//DTD SVG 1.1//EN" "http://www.w3.org/Graphics/SVG/1.1/DTD/svg11.dtd">
<svg version="1.1" xmlns="http://www.w3.org/2000/svg" xmlns:xlink="http://www.w3.org/1999/xlink" width="32" height="32" viewBox="0 0 32 32">
<path fill="#444444" d="M16.2 1.779c-7.856 0-14.221 6.368-14.221 14.221 0 7.856 6.368 14.221 14.221 14.221s14.221-6.368 14.221-14.221c0-7.856-6.365-14.221-14.221-14.221zM16.2 28.445c-6.864 0-12.445-5.584-12.445-12.445 0-6.864 5.584-12.445 12.445-12.445s12.445 5.581 12.445 12.445c0 6.864-5.581 12.445-12.445 12.445z"></path>
<path fill="#444444" d="M22.107 9.933c-0.346-0.346-0.909-0.346-1.254 0l-4.653 4.653-4.65-4.653c-0.346-0.346-0.909-0.346-1.254 0s-0.346 0.909 0 1.254l4.65 4.653-4.653 4.65c-0.346 0.346-0.346 0.909 0 1.254 0.173 0.173 0.4 0.259 0.627 0.259s0.454-0.086 0.627-0.259l4.653-4.65 4.65 4.65c0.173 0.173 0.4 0.259 0.627 0.259s0.454-0.086 0.627-0.259c0.346-0.346 0.346-0.909 0-1.254l-4.646-4.65 4.65-4.65c0.346-0.349 0.346-0.909 0-1.258z"></path>
</svg>
