<?xml version="1.0" encoding="utf-8"?>
<!-- Generated by IcoMoon.io -->
<!DOCTYPE svg PUBLIC "-//W3C//DTD SVG 1.1//EN" "http://www.w3.org/Graphics/SVG/1.1/DTD/svg11.dtd">
<svg version="1.1" xmlns="http://www.w3.org/2000/svg" xmlns:xlink="http://www.w3.org/1999/xlink" width="32" height="32" viewBox="0 0 32 32">
<path fill="#444444" d="M18.276 26.578c0.018 0.036 0 0.071-0.018 0.107 0.16-0.018 0.302-0.053 0.444-0.107h-0.427zM13.724 26.578h-0.427c0.142 0.053 0.284 0.089 0.444 0.107-0.018-0.036-0.036-0.071-0.018-0.107z"></path>
<path fill="#444444" d="M13.724 26.578h-0.427c0.142 0.053 0.284 0.089 0.444 0.107-0.018-0.036-0.036-0.071-0.018-0.107zM18.276 26.578c0.018 0.036 0 0.071-0.018 0.107 0.16-0.018 0.302-0.053 0.444-0.107h-0.427z"></path>
<path fill="#444444" d="M26.667 23.022v-7.111c-0.089-5.458-4.142-9.92-9.333-10.578 0.444-0.373 0.729-0.942 0.729-1.564 0-1.156-0.924-2.080-2.062-2.080s-2.062 0.924-2.062 2.080c0 0.622 0.284 1.191 0.729 1.564-5.191 0.658-9.244 5.12-9.333 10.578v7.111l-3.556 3.556h10.133c0.196 2.098 1.956 3.733 4.089 3.733s3.893-1.636 4.089-3.733h10.133l-3.556-3.556zM16 3.467c0.16 0 0.284 0.142 0.284 0.302s-0.124 0.302-0.284 0.302-0.284-0.142-0.284-0.302c0-0.16 0.124-0.302 0.284-0.302zM18.258 26.684c-0.213 1.049-1.156 1.849-2.258 1.849s-2.044-0.8-2.258-1.849c-0.16-0.018-0.302-0.053-0.444-0.107h5.404c-0.142 0.053-0.284 0.089-0.444 0.107zM6.062 24.8l0.533-0.516 0.516-0.516v-7.68c0-0.053 0-0.124 0.018-0.178 0-0.053 0-0.107 0.018-0.16 0.142-4.836 4.053-8.729 8.853-8.729s8.711 3.893 8.853 8.729c0.018 0.053 0.018 0.107 0.018 0.16 0.018 0.053 0.018 0.124 0.018 0.178v7.68l0.516 0.516 0.533 0.516h-19.876z"></path>
</svg>
