<?xml version="1.0" encoding="utf-8"?>
<!-- Generated by IcoMoon.io -->
<!DOCTYPE svg PUBLIC "-//W3C//DTD SVG 1.1//EN" "http://www.w3.org/Graphics/SVG/1.1/DTD/svg11.dtd">
<svg version="1.1" xmlns="http://www.w3.org/2000/svg" xmlns:xlink="http://www.w3.org/1999/xlink" width="32" height="32" viewBox="0 0 32 32">
<path fill="#444444" d="M22.222 5.333c3.556 0 6.222 2.844 6.222 6.222 0 1.422-0.533 3.022-1.6 4.089l-0.356 0.356-10.489 9.956-10.667-9.956-0.178-0.178c-1.067-1.067-1.6-2.667-1.6-4.267 0-3.378 2.667-6.222 6.222-6.222 1.956 0 3.733 0.889 4.8 2.311l1.422 1.778 1.422-1.778c1.067-1.422 2.844-2.311 4.8-2.311zM22.222 3.556c-2.489 0-4.8 1.244-6.222 3.022-1.422-1.778-3.733-3.022-6.222-3.022-4.444 0-8 3.556-8 8 0 2.133 0.889 4.089 2.133 5.511 0 0 0 0 0.178 0.178l12.089 11.2 11.556-11.022 0.356-0.356c1.422-1.422 2.133-3.378 2.133-5.511 0-4.444-3.556-8-8-8v0z"></path>
</svg>
