<?xml version="1.0" encoding="utf-8"?>
<!-- Generated by IcoMoon.io -->
<!DOCTYPE svg PUBLIC "-//W3C//DTD SVG 1.1//EN" "http://www.w3.org/Graphics/SVG/1.1/DTD/svg11.dtd">
<svg version="1.1" xmlns="http://www.w3.org/2000/svg" xmlns:xlink="http://www.w3.org/1999/xlink" width="32" height="32" viewBox="0 0 32 32">
<path fill="#444444" d="M16 7.644l2.489 4.8 0.356 0.889 0.889 0.178 5.333 0.711-3.911 3.733-0.711 0.711 0.178 0.889 0.889 5.333-4.8-2.489-0.711-0.356-0.889 0.356-4.8 2.489 0.889-5.333 0.178-0.889-0.711-0.711-3.733-3.556 5.333-0.711 0.889-0.178 0.356-0.889 2.489-4.978zM16 3.733l-4.089 8-8.889 1.244 6.4 6.4-1.6 8.889 8.178-4.089 8 4.267-1.6-8.889 6.4-6.4-8.889-1.244-3.911-8.178z"></path>
</svg>
