<?xml version="1.0" encoding="utf-8"?>
<!-- Generated by IcoMoon.io -->
<!DOCTYPE svg PUBLIC "-//W3C//DTD SVG 1.1//EN" "http://www.w3.org/Graphics/SVG/1.1/DTD/svg11.dtd">
<svg version="1.1" xmlns="http://www.w3.org/2000/svg" xmlns:xlink="http://www.w3.org/1999/xlink" width="32" height="32" preserveAspectRatio="xMinYMin meet" viewBox="0 0 32 32">
<path fill="#444444" d="M23.076 12.231h-0.889l-0.747 0.747c0.676 1.084 1.067 2.364 1.067 3.733 0 3.929-3.182 7.111-7.111 7.111s-7.111-3.182-7.111-7.111c0-3.929 3.182-7.111 7.111-7.111 1.262 0 2.453 0.338 3.484 0.907l0.782-0.782v-0.818c-1.262-0.693-2.72-1.084-4.267-1.084-4.907 0-8.889 3.982-8.889 8.889s3.982 8.889 8.889 8.889 8.889-3.982 8.889-8.889c0-1.636-0.444-3.164-1.209-4.48z"></path>
<path fill="#444444" d="M26.596 11.307l-0.907 0.907h-0.622c0.64 1.369 0.996 2.88 0.996 4.498 0 5.884-4.782 10.667-10.667 10.667s-10.667-4.782-10.667-10.667 4.782-10.667 10.667-10.667c1.529 0 2.969 0.32 4.284 0.889v-0.711l0.853-0.853c-1.564-0.711-3.307-1.102-5.138-1.102-6.88 0-12.444 5.564-12.444 12.444s5.564 12.444 12.444 12.444 12.444-5.564 12.444-12.444c0-1.938-0.444-3.769-1.244-5.404z"></path>
<path fill="#444444" d="M20.196 14.222l-1.351 1.351c0.107 0.356 0.178 0.747 0.178 1.138 0 2.009-1.618 3.627-3.627 3.627s-3.627-1.618-3.627-3.627 1.618-3.627 3.627-3.627c0.284 0 0.551 0.036 0.818 0.089l1.387-1.387c-0.676-0.32-1.422-0.48-2.204-0.48-2.987 0-5.404 2.418-5.404 5.404s2.418 5.404 5.404 5.404c2.987 0 5.404-2.418 5.404-5.404 0-0.907-0.213-1.742-0.604-2.489z"></path>
<path fill="#444444" d="M25.813 7.218l-0.871 0.018h-0.267v-1.156l0.018-3.236-3.858 3.858v1.849l-0.018 1.12v0.533l-4.853 4.853c-0.178-0.071-0.373-0.107-0.569-0.107-0.427 0-0.836 0.16-1.138 0.427-0.373 0.32-0.622 0.8-0.622 1.333 0 0.96 0.8 1.76 1.76 1.76 0.711 0 1.333-0.427 1.6-1.049 0.107-0.213 0.16-0.462 0.16-0.711 0-0.302-0.089-0.604-0.231-0.853l4.782-4.782h1.636l1.084-0.018h0.782l0.818-0.818 3.022-3.040-3.236 0.018zM22.080 8.942v-1.724l0.587-0.587h0.018l0.747-0.764v1.724l-1.351 1.351zM25.298 9.191l-0.622 0.622h-0.071l-1.067 0.018h-0.569l0.284-0.302h0.018l1.031-1.049h0.409l1.102-0.018h0.231l-0.747 0.729z"></path>
</svg>
