<?xml version="1.0" encoding="utf-8"?>
<!-- Generated by IcoMoon.io -->
<!DOCTYPE svg PUBLIC "-//W3C//DTD SVG 1.1//EN" "http://www.w3.org/Graphics/SVG/1.1/DTD/svg11.dtd">
<svg version="1.1" xmlns="http://www.w3.org/2000/svg" xmlns:xlink="http://www.w3.org/1999/xlink" width="32" height="32" viewBox="0 0 32 32">
<path fill="#444444" d="M20.622 7.111v-3.556h-9.244v3.556h-6.044v5.333h1.422v16h18.667v-16h1.244v-5.333h-6.044zM13.156 5.333h5.689v1.778h-5.689v-1.778zM7.111 8.889h17.778v1.778h-17.778v-1.778zM23.467 26.667h-14.933v-14.222h15.111v14.222zM16 25.067c-0.533 0-0.889-0.356-0.889-0.889v-9.244c0-0.533 0.356-0.889 0.889-0.889s0.889 0.356 0.889 0.889v9.244c0 0.533-0.356 0.889-0.889 0.889zM11.556 25.067c-0.533 0-0.889-0.356-0.889-0.889v-9.244c0-0.533 0.356-0.889 0.889-0.889s0.889 0.356 0.889 0.889v9.244c0 0.533-0.356 0.889-0.889 0.889zM20.444 25.067c-0.533 0-0.889-0.356-0.889-0.889v-9.244c0-0.533 0.356-0.889 0.889-0.889s0.889 0.356 0.889 0.889v9.244c0 0.533-0.356 0.889-0.889 0.889z"></path>
</svg>
