<?xml version="1.0" encoding="utf-8"?>
<!-- Generated by IcoMoon.io -->
<!DOCTYPE svg PUBLIC "-//W3C//DTD SVG 1.1//EN" "http://www.w3.org/Graphics/SVG/1.1/DTD/svg11.dtd">
<svg version="1.1" xmlns="http://www.w3.org/2000/svg" xmlns:xlink="http://www.w3.org/1999/xlink" width="32" height="32" viewBox="0 0 32 32">
<path fill="#444444" d="M16 19.408c-0.491 0-0.889-0.398-0.889-0.889v-6.814c0-0.491 0.398-0.889 0.889-0.889s0.889 0.398 0.889 0.889v6.814c0 0.491-0.398 0.889-0.889 0.889z"></path>
<path fill="#444444" d="M16 24.741c-0.491 0-0.889-0.398-0.889-0.889v-1.52c0-0.491 0.398-0.889 0.889-0.889s0.889 0.398 0.889 0.889v1.52c0 0.491-0.398 0.889-0.889 0.889z"></path>
<path fill="#444444" d="M16 5.339l12.181 21.328-24.361-0.004 12.18-21.324zM16 3.556c-0.592 0-1.182 0.268-1.49 0.805l-12.549 21.973c-0.553 0.969 0.251 2.11 1.49 2.11h25.099c1.237 0 2.043-1.14 1.49-2.11l-12.549-21.973c-0.308-0.537-0.898-0.805-1.49-0.805v0z"></path>
</svg>
