<?xml version="1.0" encoding="utf-8"?>
<!-- Generator: Adobe Illustrator 18.1.1, SVG Export Plug-In . SVG Version: 6.00 Build 0)  -->
<svg version="1.1" id="Layer_1" xmlns="http://www.w3.org/2000/svg" xmlns:xlink="http://www.w3.org/1999/xlink" x="0px" y="0px"
	 viewBox="541 647.5 18 18" enable-background="new 541 647.5 18 18" xml:space="preserve">
<path d="M556.5,660.57v-1.47c0-0.1,0-0.19-0.01-0.29c-0.17-1.84-1.84-2.44-3.32-2.98c-1.66-0.6-2.67-1.06-2.67-2.33v-1.07
	c0.86-0.22,1.5-1,1.5-1.93c0-1.1-0.9-2-2-2s-2,0.9-2,2c0,0.93,0.64,1.71,1.5,1.93v1.07c0,1.27-1.01,1.73-2.67,2.33
	c-1.56,0.57-3.33,1.21-3.33,3.27v1.47c-0.86,0.22-1.5,1-1.5,1.93c0,1.1,0.9,2,2,2s2-0.9,2-2c0-0.93-0.64-1.71-1.5-1.93v-1.47
	c0-1.27,1.01-1.73,2.67-2.33c1.05-0.38,2.2-0.8,2.83-1.67c0.63,0.87,1.78,1.29,2.83,1.67c1.59,0.58,2.56,1.01,2.66,2.13
	c0.01,0.06,0.01,0.13,0.01,0.2v1.47c-0.86,0.22-1.5,1-1.5,1.93c0,1.1,0.9,2,2,2s2-0.9,2-2C558,661.57,557.36,660.79,556.5,660.57z
	 M545,662.5c0,0.55-0.45,1-1,1s-1-0.45-1-1s0.45-1,1-1S545,661.95,545,662.5z M549,650.5c0-0.55,0.45-1,1-1s1,0.45,1,1s-0.45,1-1,1
	S549,651.05,549,650.5z M556,663.5c-0.55,0-1-0.45-1-1s0.45-1,1-1s1,0.45,1,1S556.55,663.5,556,663.5z"/>
</svg>
