<?xml version="1.0" encoding="utf-8"?>
<!-- Generated by IcoMoon.io -->
<!DOCTYPE svg PUBLIC "-//W3C//DTD SVG 1.1//EN" "http://www.w3.org/Graphics/SVG/1.1/DTD/svg11.dtd">
<svg version="1.1" xmlns="http://www.w3.org/2000/svg" xmlns:xlink="http://www.w3.org/1999/xlink" width="32" height="32" viewBox="0 0 32 32">
<path fill="#444444" d="M23.36 16.183l3.771-3.771-7.543-7.543-3.771 3.771 1.257 1.257-3.771 3.771-1.257-1.257-3.771 3.771 3.143 3.143-6.286 6.286c-0.352 0.352-0.352 0.905 0 1.257s0.905 0.352 1.257 0l6.286-6.286 3.143 3.143 3.771-3.771-1.257-1.257 3.771-3.771 1.257 1.257zM17.076 19.954l-1.257 1.257-5.028-5.028 1.257-1.257 1.257 1.257 6.286-6.286-1.257-1.257 1.257-1.257 5.028 5.028-1.257 1.257-1.257-1.257-6.286 6.286 1.257 1.257z"></path>
</svg>
