<?xml version="1.0" encoding="utf-8"?>
<!-- Generator: Adobe Illustrator 19.2.1, SVG Export Plug-In . SVG Version: 6.00 Build 0)  -->
<svg version="1.1" id="Layer_1" xmlns="http://www.w3.org/2000/svg" xmlns:xlink="http://www.w3.org/1999/xlink" x="0px" y="0px"
	 viewBox="0 0 18 18" style="enable-background:new 0 0 18 18;" xml:space="preserve">
<g>
	<path d="M9.6,8.3L9.6,8.3C9.6,8.3,9.6,8.3,9.6,8.3L9.6,8.3z"/>
	<path d="M6.4,13.6H4.3V7.4h2.1V13.6z M5.3,6.5L5.3,6.5C4.6,6.5,4.2,6,4.2,5.4c0-0.6,0.5-1.1,1.2-1.1c0.7,0,1.1,0.5,1.2,1.1
		C6.5,6,6,6.5,5.3,6.5z M13.8,13.6h-2.1v-3.3c0-0.8-0.3-1.4-1.1-1.4c-0.6,0-0.9,0.4-1.1,0.8C9.6,9.8,9.6,10,9.6,10.1v3.5H7.5
		c0,0,0-5.7,0-6.2h2.1v0.9c0.3-0.4,0.8-1,1.9-1c1.4,0,2.4,0.9,2.4,2.8V13.6z"/>
</g>
</svg>
