<?xml version="1.0" encoding="utf-8"?>
<!-- Generator: Adobe Illustrator 18.1.1, SVG Export Plug-In . SVG Version: 6.00 Build 0)  -->
<svg version="1.1" id="Layer_1" xmlns="http://www.w3.org/2000/svg" xmlns:xlink="http://www.w3.org/1999/xlink" x="0px" y="0px"
	 viewBox="0 0 18 18" enable-background="new 0 0 18 18" xml:space="preserve">
<g>
	<g>
		<path d="M9,0.9921875C4.5773926,0.9921875,0.9921875,4.5773926,0.9921875,9S4.5773926,17.0078125,9,17.0078125
			S17.0078125,13.4226074,17.0078125,9S13.4226074,0.9921875,9,0.9921875z M9,16.0078125
			c-3.8641357,0-7.0078125-3.1436768-7.0078125-7.0078125S5.1358643,1.9921875,9,1.9921875S16.0078125,5.1358643,16.0078125,9
			S12.8641357,16.0078125,9,16.0078125z"/>
	</g>
	<g>
		<path d="M12.7974243,5.8536377c-0.3189697,0.1893921-0.6721802,0.3267822-1.0475464,0.4003296
			c-0.3007202-0.3198242-0.7294922-0.5200806-1.2034912-0.5200806c-0.9110107,0-1.6494141,0.737915-1.6494141,1.6485596
			c0,0.1295166,0.0147095,0.2550659,0.0426636,0.3757935C7.569397,7.6895142,6.3535767,7.0330811,5.5406494,6.0352173
			C5.3988037,6.2785034,5.3173828,6.5621338,5.3173828,6.8643188c0,0.5720825,0.2909546,1.0773926,0.7335205,1.3728027
			C5.7805176,8.2282715,5.5263672,8.1546631,5.3036499,8.0310059c0,0.006897,0,0.0137939,0,0.0206299
			c0,0.7987061,0.5691528,1.4649658,1.3227539,1.6170654C6.4885254,9.7059937,6.3427734,9.7266235,6.1921387,9.7266235
			c-0.1064453,0-0.2094727-0.0108032-0.3099976-0.02948c0.2094116,0.654541,0.8187866,1.1314087,1.5400391,1.1451416
			c-0.56427,0.4425659-1.2746582,0.7055054-2.0478516,0.7055054c-0.1329346,0-0.2639771-0.0078735-0.3934937-0.022583
			c0.7300415,0.4680176,1.5964355,0.7408447,2.5281372,0.7408447c3.0335083,0,4.6923218-2.5130005,4.6923218-4.6922607
			c0-0.0716553-0.0014648-0.1422729-0.0048828-0.2129517c0.3223267-0.232605,0.6019897-0.5230103,0.8227539-0.8536987
			c-0.2953491,0.1305542-0.6132812,0.2197876-0.9468994,0.2590332C12.4127808,6.5621338,12.6737671,6.2392578,12.7974243,5.8536377z
			"/>
	</g>
</g>
</svg>
