<?xml version="1.0" encoding="utf-8"?>
<!-- Generator: Adobe Illustrator 19.2.1, SVG Export Plug-In . SVG Version: 6.00 Build 0)  -->
<svg version="1.1" id="Layer_1" xmlns="http://www.w3.org/2000/svg" xmlns:xlink="http://www.w3.org/1999/xlink" x="0px" y="0px"
	 viewBox="0 0 18 18" style="enable-background:new 0 0 18 18;" xml:space="preserve">
<g>
	<path d="M13,6.9c0,0.1,0,0.2,0,0.3c0,2.7-2.1,5.9-5.9,5.9c-1.2,0-2.2-0.3-3.2-0.9c0.2,0,0.3,0,0.5,0c1,0,1.9-0.3,2.6-0.9
		c-0.9,0-1.7-0.6-1.9-1.4c0.1,0,0.3,0,0.4,0c0.2,0,0.4,0,0.5-0.1c-0.9-0.2-1.7-1-1.7-2c0,0,0,0,0,0C4.7,7.9,5,8,5.3,8
		C4.8,7.7,4.4,7,4.4,6.3c0-0.4,0.1-0.7,0.3-1c1,1.2,2.5,2.1,4.3,2.2c0-0.2-0.1-0.3-0.1-0.5c0-1.1,0.9-2.1,2.1-2.1
		c0.6,0,1.1,0.3,1.5,0.7c0.5-0.1,0.9-0.3,1.3-0.5c-0.2,0.5-0.5,0.9-0.9,1.1c0.4,0,0.8-0.2,1.2-0.3C13.8,6.3,13.4,6.7,13,6.9z"/>
</g>
</svg>
