<?xml version="1.0" encoding="utf-8"?>
<!-- Generated by IcoMoon.io -->
<!DOCTYPE svg PUBLIC "-//W3C//DTD SVG 1.1//EN" "http://www.w3.org/Graphics/SVG/1.1/DTD/svg11.dtd">
<svg version="1.1" xmlns="http://www.w3.org/2000/svg" xmlns:xlink="http://www.w3.org/1999/xlink" width="32" height="32" viewBox="0 0 32 32">
<path fill="#444444" d="M24 19.556c-1.724 0-3.271 0.818-4.231 2.098l-6.702-4.018c0.178-0.516 0.267-1.067 0.267-1.636s-0.089-1.12-0.267-1.636l6.702-4.018c0.96 1.28 2.507 2.098 4.231 2.098 2.951 0 5.333-2.382 5.333-5.333s-2.382-5.333-5.333-5.333-5.333 2.382-5.333 5.333c0 0.569 0.089 1.12 0.267 1.636l-6.702 4.018c-0.96-1.28-2.507-2.098-4.231-2.098-2.951 0-5.333 2.382-5.333 5.333s2.382 5.333 5.333 5.333c1.724 0 3.271-0.818 4.231-2.098l6.702 4.018c-0.178 0.516-0.267 1.067-0.267 1.636 0 2.951 2.382 5.333 5.333 5.333s5.333-2.382 5.333-5.333c0-2.951-2.382-5.333-5.333-5.333zM24 3.556c1.956 0 3.556 1.6 3.556 3.556s-1.6 3.556-3.556 3.556-3.556-1.6-3.556-3.556c0-1.956 1.6-3.556 3.556-3.556zM8 19.556c-1.956 0-3.556-1.6-3.556-3.556s1.6-3.556 3.556-3.556 3.556 1.6 3.556 3.556c0 1.956-1.6 3.556-3.556 3.556zM24 28.444c-1.956 0-3.556-1.6-3.556-3.556s1.6-3.556 3.556-3.556 3.556 1.6 3.556 3.556c0 1.956-1.6 3.556-3.556 3.556z"></path>
</svg>
