<?xml version="1.0" encoding="utf-8"?>
<!-- Generator: Adobe Illustrator 18.1.1, SVG Export Plug-In . SVG Version: 6.00 Build 0)  -->
<svg version="1.1" id="Layer_1" xmlns="http://www.w3.org/2000/svg" xmlns:xlink="http://www.w3.org/1999/xlink" x="0px" y="0px"
	 viewBox="0 0 18 18" enable-background="new 0 0 18 18" xml:space="preserve">
<path d="M14.499,8.114c-0.011-3.171-1.649-6.359-5.297-6.359c-3.691,0-5.687,3.27-5.701,6.359H3.5v0.032v2.968h1h0.304
	c0.845,0,1.53-0.28,1.53-1.5s-0.685-1.5-1.53-1.5H4.501c0.013-2.604,1.66-5.359,4.701-5.359c2.957,0,4.286,2.686,4.297,5.359h-0.278
	c-0.836,0-1.514,0.292-1.514,1.5c0,1.208,0.678,1.5,1.514,1.5H13.5v2.209c0,0.437-0.354,0.791-0.791,0.791h-1.646
	c-0.212-0.655-0.82-1.132-1.545-1.132c-0.901,0-1.632,0.731-1.632,1.632c0,0.901,0.731,1.632,1.632,1.632
	c0.726,0,1.333-0.477,1.545-1.132h1.646c0.987,0,1.791-0.804,1.791-1.791v-2.209V8.146V8.114H14.499z"/>
</svg>
