<?xml version="1.0" encoding="utf-8"?>
<!-- Generator: Adobe Illustrator 18.1.1, SVG Export Plug-In . SVG Version: 6.00 Build 0)  -->
<svg version="1.1" id="Layer_1" xmlns="http://www.w3.org/2000/svg" xmlns:xlink="http://www.w3.org/1999/xlink" x="0px" y="0px"
	 viewBox="0 0 18 18" enable-background="new 0 0 18 18" xml:space="preserve">
<g>
	<path fill="#231F20" d="M9.748,8.024H3.185c-0.276,0-0.5,0.224-0.5,0.5c0,0.276,0.224,0.5,0.5,0.5h7.035
		c0.009,0,0.016-0.005,0.024-0.005L9.869,8.229C9.834,8.156,9.787,8.094,9.748,8.024z"/>
	<g>
		<path fill="#231F20" d="M3.185,10.688c-0.276,0-0.5,0.224-0.5,0.5c0,0.276,0.224,0.5,0.5,0.5h4.431
			c-0.223-0.284-0.349-0.639-0.35-0.999H3.185z"/>
	</g>
	<path fill="#231F20" d="M10.22,13.352H3.185c-0.276,0-0.5,0.224-0.5,0.5c0,0.276,0.224,0.5,0.5,0.5h7.035
		c0.276,0,0.5-0.224,0.5-0.5C10.72,13.576,10.496,13.352,10.22,13.352z"/>
	<g>
		<path fill="#020202" d="M3.209,7.37c0.363-0.814,0.975-1.486,1.797-1.878c2.023-0.964,4.561,0.124,5.658,2.426l1.728,3.625
			l-3.383-1.45c-0.364-0.156-0.747,0.026-0.855,0.407c-0.105,0.369,0.111,0.821,0.463,0.972l4.974,2.133
			c0.176,0.076,0.362,0.075,0.524-0.003c0.161-0.077,0.279-0.22,0.331-0.405l1.476-5.208c0.104-0.367-0.112-0.821-0.463-0.971
			c-0.364-0.156-0.747,0.026-0.855,0.407l-1.004,3.542l-1.728-3.625C10.415,4.281,7.04,2.835,4.351,4.116
			C3.323,4.606,2.542,5.425,2.05,6.42l0.36,0.65L3.209,7.37z"/>
	</g>
</g>
</svg>
