<?xml version="1.0" encoding="utf-8"?>
<!-- Generator: Adobe Illustrator 18.1.1, SVG Export Plug-In . SVG Version: 6.00 Build 0)  -->
<svg version="1.1" id="Layer_1" xmlns="http://www.w3.org/2000/svg" xmlns:xlink="http://www.w3.org/1999/xlink" x="0px" y="0px"
	 viewBox="0 0 18 18" enable-background="new 0 0 18 18" xml:space="preserve">
<g>
	<path fill="#010101" d="M6.386,12.748c0.904,0.247,1.68,0.334,2.461,0.316c1.392-0.032,2.784-0.297,4.077-0.889l0.563-0.288
		c0.574-0.309,1.127-0.673,1.644-1.105c0.028-0.024,0.056-0.049,0.082-0.074l1.505-1.497c0,0,0-0.001,0.001-0.001
		c0,0,0.001,0,0.001-0.001c0.016-0.016,0.023-0.035,0.035-0.053c0.012-0.018,0.027-0.034,0.035-0.054
		c0.008-0.02,0.008-0.041,0.012-0.062c0.004-0.02,0.011-0.04,0.011-0.061c0-0.021-0.008-0.04-0.012-0.061
		c-0.004-0.021-0.004-0.042-0.012-0.062c-0.008-0.02-0.024-0.036-0.036-0.054c-0.012-0.018-0.019-0.037-0.035-0.053
		c0,0-0.001,0-0.001-0.001c0,0,0-0.001-0.001-0.001L15.17,7.219c-0.026-0.026-0.053-0.05-0.08-0.073
		c-0.388-0.323-0.798-0.604-1.219-0.858l-0.001-0.01l-0.146-0.084c-0.009-0.005-0.019-0.01-0.028-0.015
		c-0.064-0.037-0.131-0.07-0.196-0.105c-0.163-0.089-0.328-0.174-0.495-0.253c-0.077-0.037-0.155-0.072-0.233-0.107
		c-0.201-0.089-0.403-0.171-0.608-0.246c-0.028-0.01-0.055-0.022-0.083-0.032c-0.255-0.091-0.512-0.168-0.772-0.237
		c-0.018-0.005-0.037-0.009-0.055-0.014c-0.259-0.067-0.52-0.123-0.783-0.168c-0.002,0-0.004-0.001-0.007-0.001
		C9.109,4.782,7.719,4.838,6.377,5.186C6.331,5.198,6.286,5.21,6.241,5.222C6.018,5.283,5.797,5.351,5.578,5.428
		C5.545,5.44,5.512,5.449,5.479,5.461C5.248,5.546,5.019,5.64,4.793,5.742C4.715,5.777,4.638,5.816,4.561,5.853
		C4.476,5.894,4.39,5.932,4.306,5.975l-0.15,0.078l-0.001,0.01C3.582,6.373,3.03,6.738,2.514,7.171l-1.121,0.94
		C1.144,8.32,1,8.627,1,8.952c0,0.325,0.142,0.632,0.391,0.842l1.136,0.957c0.076,0.064,0.187,0.156,0.325,0.261
		c0.58,0.443,1.082,0.705,1.511,0.926c0.259,0.134,0.561,0.288,0.984,0.458C5.838,12.593,6.23,12.706,6.386,12.748z M8.625,7.31
		c0,0.793-0.645,1.438-1.438,1.438S5.75,8.103,5.75,7.31s0.645-1.438,1.438-1.438S8.625,6.518,8.625,7.31z M14.259,10.187
		c-0.011,0.011-0.023,0.022-0.036,0.033c-3.181,2.656-7.789,2.645-10.958-0.025L2.207,9.303c-0.094-0.08-0.148-0.196-0.148-0.319
		c0-0.124,0.055-0.24,0.149-0.319l1.044-0.876c0.341-0.286,0.702-0.535,1.072-0.76c0,0.012-0.001,0.025-0.001,0.037
		c0,0.671,0.142,1.317,0.422,1.921c0.747,1.612,2.377,2.654,4.153,2.654c1.776,0,3.406-1.041,4.153-2.653
		c0.257-0.554,0.391-1.144,0.413-1.754c0.247,0.165,0.49,0.34,0.723,0.534c0.012,0.01,0.024,0.021,0.036,0.033l1.223,1.208
		L14.259,10.187z"/>
</g>
</svg>
