<?xml version="1.0" encoding="utf-8"?>
<!-- Generator: Adobe Illustrator 19.1.0, SVG Export Plug-In . SVG Version: 6.00 Build 0)  -->
<svg version="1.1" id="Layer_1" xmlns="http://www.w3.org/2000/svg" xmlns:xlink="http://www.w3.org/1999/xlink" x="0px" y="0px"
	 viewBox="-289 381 32 32" style="enable-background:new -289 381 32 32;" xml:space="preserve">
<style type="text/css">
	.st0{fill:#020202;}
</style>
<g>
	<g>
		<path class="st0" d="M-273,382.58c-7.3,0-13.21,5.91-13.21,13.21c0,7.3,5.91,13.21,13.21,13.21c2.45,0,4.74-0.67,6.71-1.83
			l-0.08-1.92c-1.88,1.32-4.17,2.1-6.63,2.1c-6.37,0-11.56-5.19-11.56-11.56s5.19-11.56,11.56-11.56c5.56,0,10.21,3.95,11.31,9.18
			h1.68C-261.13,387.25-266.51,382.58-273,382.58z"/>
		<path class="st0" d="M-266.59,395.79c0,0.17-0.05,0.33-0.14,0.46v0.01c-0.16,0.22-0.41,0.36-0.69,0.36H-273
			c-0.46,0-0.83-0.37-0.83-0.83v-8.25c0-0.47,0.37-0.83,0.83-0.83s0.83,0.36,0.83,0.83v7.43h4.75c0.26,0,0.49,0.12,0.65,0.31
			C-266.66,395.42-266.59,395.59-266.59,395.79z"/>
	</g>
	<g>
		<g>
			<path class="st0" d="M-263.73,408.03c-0.93,0-1.68,0.78-1.68,1.7c0,0.91,0.75,1.69,1.68,1.69s1.71-0.78,1.71-1.69
				C-262.02,408.81-262.8,408.03-263.73,408.03z M-263.73,409.92c-0.09,0-0.18-0.11-0.18-0.19c0-0.1,0.09-0.2,0.18-0.2
				c0.1,0,0.21,0.1,0.21,0.2C-263.52,409.8-263.62,409.92-263.73,409.92z"/>
		</g>
		<g>
			<path class="st0" d="M-263.73,408.03c-0.93,0-1.68,0.78-1.68,1.7c0,0.91,0.75,1.69,1.68,1.69s1.71-0.78,1.71-1.69
				C-262.02,408.81-262.8,408.03-263.73,408.03z"/>
			<polygon class="st0" points="-262.17,394.91 -262.38,400.35 -262.52,403.81 -262.61,406.2 -264.83,406.2 -264.83,406.16 
				-264.92,404.04 -265.29,394.91 			"/>
		</g>
	</g>
</g>
</svg>
