<?xml version="1.0" encoding="utf-8"?>
<!-- Generator: Adobe Illustrator 19.1.0, SVG Export Plug-In . SVG Version: 6.00 Build 0)  -->
<svg version="1.1" id="Layer_1" xmlns="http://www.w3.org/2000/svg" xmlns:xlink="http://www.w3.org/1999/xlink" x="0px" y="0px"
	 viewBox="-289 381 32 32" style="enable-background:new -289 381 32 32;" xml:space="preserve">
<path d="M-270.85,396.98c0,1.06-0.72,1.95-1.96,1.95h-1.14v-3.91h1.14C-271.53,395.02-270.85,395.87-270.85,396.98z"/>
<path d="M-273,384c-7.18,0-13,5.82-13,13s5.82,13,13,13s13-5.82,13-13S-265.82,384-273,384z M-273,408.38
	c-6.27,0-11.38-5.11-11.38-11.38s5.11-11.38,11.38-11.38s11.38,5.11,11.38,11.38S-266.73,408.38-273,408.38z M-272.91,389.12
	c-4.35,0-7.88,3.53-7.88,7.88c0,1.19,0.27,2.32,0.74,3.33l-1.26,3.08l3.21-0.48c1.38,1.21,3.2,1.95,5.19,1.95
	c4.36,0,7.89-3.53,7.89-7.88S-268.55,389.12-272.91,389.12z M-272.91,400.82h-3.03v-7.7h3.03c2.41,0,4.09,1.54,4.09,3.86
	S-270.5,400.82-272.91,400.82z"/>
</svg>
