<?xml version="1.0" encoding="utf-8"?>
<!-- Generator: Adobe Illustrator 19.1.0, SVG Export Plug-In . SVG Version: 6.00 Build 0)  -->
<svg version="1.1" id="Layer_1" xmlns="http://www.w3.org/2000/svg" xmlns:xlink="http://www.w3.org/1999/xlink" x="0px" y="0px"
	 viewBox="-296 388 18 18" style="enable-background:new -296 388 18 18;" xml:space="preserve">
<path d="M-285.57,396.99c0,0.65-0.45,1.2-1.21,1.2h-0.7v-2.41h0.7C-285.99,395.78-285.57,396.3-285.57,396.99z"/>
<path d="M-286.84,392.14c-2.68,0-4.85,2.18-4.85,4.86c0,0.73,0.16,1.43,0.45,2.05l-0.78,1.9l1.98-0.3c0.86,0.75,1.98,1.21,3.2,1.21
	c2.68,0,4.86-2.18,4.86-4.86S-284.16,392.14-286.84,392.14z M-286.84,399.36h-1.87v-4.75h1.87c1.49,0,2.52,0.95,2.52,2.38
	S-285.35,399.36-286.84,399.36z"/>
</svg>
