<?xml version="1.0" encoding="utf-8"?>
<!-- Generator: Adobe Illustrator 19.1.0, SVG Export Plug-In . SVG Version: 6.00 Build 0)  -->
<svg version="1.1" id="Layer_1" xmlns="http://www.w3.org/2000/svg" xmlns:xlink="http://www.w3.org/1999/xlink" x="0px" y="0px"
	 viewBox="-583 485 32 32" style="enable-background:new -583 485 32 32;" xml:space="preserve">
<path d="M-553.641,508.063h-4.513v-14.649l3.356-3.356c0.348-0.348,0.348-0.912,0-1.26s-0.912-0.348-1.26,0l-3.356,3.356h-14.649
	v-4.513c0-0.493-0.399-0.891-0.891-0.891c-0.493,0-0.891,0.399-0.891,0.891v4.513h-4.513c-0.493,0-0.891,0.399-0.891,0.891
	s0.399,0.891,0.891,0.891h4.513v15.018c0,0.116,0.023,0.231,0.068,0.34c0.09,0.218,0.264,0.392,0.482,0.482
	c0.109,0.045,0.224,0.069,0.34,0.069h15.018v4.513c0,0.493,0.399,0.891,0.891,0.891c0.493,0,0.891-0.399,0.891-0.891v-4.513h4.513
	c0.493,0,0.891-0.399,0.891-0.891S-553.149,508.063-553.641,508.063z M-561.197,493.937l-12.866,12.866v-12.866H-561.197z
	 M-572.803,508.063l12.866-12.866v12.866H-572.803z"/>
</svg>
