<?xml version="1.0" encoding="utf-8"?>
<!-- Generator: Adobe Illustrator 19.1.0, SVG Export Plug-In . SVG Version: 6.00 Build 0)  -->
<svg version="1.1" id="Layer_1" xmlns="http://www.w3.org/2000/svg" xmlns:xlink="http://www.w3.org/1999/xlink" x="0px" y="0px"
	 viewBox="-583 485 32 32" style="enable-background:new -583 485 32 32;" xml:space="preserve">
<g>
	<polygon points="-575.808,486.244 -575.831,486.256 -575.831,486.244 	"/>
	<polygon points="-573.567,489.533 -560.433,489.533 -560.894,490.615 -573.106,490.615 	"/>
	<polygon points="-559.484,487.323 -574.516,487.323 -574.977,486.244 -559.023,486.244 	"/>
	<polygon points="-558.169,486.244 -558.169,486.256 -558.192,486.244 	"/>
	<g>
		<g>
			<path d="M-557.125,486.701l-1.044,2.431l-0.172,0.4l-0.465,1.082l-5.838,13.63c-0.358-0.145-0.732-0.255-1.12-0.331l5.7-13.298
				l0.461-1.082l0.949-2.21l0.461-1.078l0.023,0.011L-557.125,486.701z"/>
			<polygon points="-558.169,486.244 -558.169,486.256 -558.192,486.244 			"/>
			<path d="M-553.932,488.066l-7.884,18.408c-0.248-0.354-0.533-0.678-0.85-0.968l7.667-17.894L-553.932,488.066z"/>
			<path d="M-558.192,486.244l0.023,0.011v-0.011H-558.192z"/>
		</g>
	</g>
	<g>
		<g>
			<path d="M-579.031,487.624l7.67,17.909c-0.305,0.282-0.583,0.598-0.823,0.941l-7.884-18.408L-579.031,487.624z"/>
			<path d="M-568.236,503.913c-0.377,0.072-0.739,0.179-1.09,0.316l-5.83-13.615l-0.465-1.082l-0.21-0.488l-1.01-2.359l1.01-0.431
				l0.023-0.011l0.461,1.078l0.949,2.21l0.461,1.082L-568.236,503.913z"/>
			<polygon points="-575.808,486.244 -575.831,486.256 -575.831,486.244 			"/>
			<path d="M-575.831,486.244v0.011l0.023-0.011H-575.831z"/>
		</g>
	</g>
	<g>
		<path d="M-561.74,508.226c-0.061-0.164-0.13-0.328-0.206-0.488c-0.069-0.145-0.145-0.29-0.229-0.431
			c-0.229-0.385-0.499-0.743-0.808-1.059c-0.552-0.564-1.219-1.014-1.962-1.307c-0.358-0.141-0.735-0.248-1.128-0.309
			c-0.126-0.027-0.255-0.042-0.389-0.053c-0.133-0.015-0.271-0.023-0.408-0.023c-0.042-0.004-0.088-0.004-0.13-0.004
			c-0.046,0-0.088,0-0.133,0.004c-0.137,0-0.274,0.008-0.408,0.023c-0.133,0.011-0.263,0.03-0.389,0.053
			c-0.381,0.061-0.747,0.16-1.097,0.297c-0.77,0.301-1.459,0.766-2.016,1.349c-0.301,0.312-0.564,0.659-0.781,1.033
			c-0.084,0.137-0.16,0.282-0.232,0.427c-0.072,0.16-0.141,0.32-0.206,0.484c-0.217,0.602-0.339,1.254-0.339,1.932
			c0,3.094,2.507,5.601,5.601,5.601c3.09,0,5.597-2.507,5.597-5.601C-561.401,509.476-561.519,508.828-561.74,508.226z
			 M-566.998,514.597c-2.45,0-4.447-1.993-4.447-4.443c0-0.091,0.004-0.183,0.011-0.271c0.008-0.187,0.031-0.366,0.065-0.545
			c0.038-0.206,0.091-0.408,0.156-0.602c0.156-0.465,0.389-0.892,0.678-1.273c0.503-0.655,1.181-1.17,1.966-1.463
			c0.351-0.137,0.724-0.225,1.113-0.267c0.03-0.004,0.057-0.004,0.088-0.004c0.103-0.011,0.206-0.019,0.312-0.019h0.11
			c0.107,0,0.21,0.008,0.312,0.015c0.031,0.004,0.057,0.004,0.088,0.008c0.4,0.042,0.785,0.133,1.143,0.274
			c0.762,0.293,1.421,0.793,1.913,1.425c0.301,0.389,0.541,0.827,0.701,1.303c0.065,0.194,0.118,0.396,0.156,0.602
			c0.034,0.179,0.057,0.358,0.065,0.545c0.008,0.088,0.011,0.179,0.011,0.271C-562.555,512.605-564.548,514.597-566.998,514.597z"/>
	</g>
	<g>
		<path d="M-563.371,509.537c-0.023-0.156-0.061-0.309-0.107-0.457c-0.053-0.171-0.118-0.339-0.19-0.499
			c-0.053-0.111-0.111-0.217-0.175-0.324c-0.427-0.705-1.078-1.254-1.859-1.547c-0.187-0.072-0.381-0.126-0.579-0.164
			c-0.145-0.03-0.293-0.05-0.442-0.061c-0.046-0.004-0.091-0.008-0.137-0.008c-0.046-0.004-0.091-0.004-0.137-0.004
			c-0.046,0-0.095,0-0.141,0.004c-0.046,0-0.091,0.004-0.137,0.008c-0.149,0.011-0.297,0.03-0.442,0.061
			c-0.187,0.034-0.37,0.088-0.549,0.152c-0.808,0.293-1.482,0.865-1.909,1.597c-0.057,0.091-0.107,0.187-0.156,0.286
			c-0.072,0.16-0.137,0.328-0.191,0.499c-0.046,0.149-0.084,0.301-0.107,0.457c-0.034,0.202-0.053,0.408-0.053,0.617
			c0,2.035,1.65,3.681,3.685,3.681c2.031,0,3.681-1.646,3.681-3.681C-563.317,509.945-563.336,509.739-563.371,509.537z
			 M-566.998,512.852c-1.49,0-2.698-1.208-2.698-2.698c0-0.4,0.088-0.781,0.244-1.12c0.091-0.202,0.206-0.389,0.347-0.56
			l0.004-0.004c0.312-0.396,0.735-0.697,1.223-0.861c0.206-0.076,0.419-0.122,0.644-0.141h0.004
			c0.076-0.008,0.152-0.011,0.232-0.011s0.156,0.004,0.232,0.011c0.225,0.019,0.442,0.065,0.648,0.141
			c0.488,0.164,0.914,0.469,1.231,0.865v0.004c0.137,0.171,0.255,0.358,0.343,0.56c0.156,0.339,0.244,0.716,0.244,1.116
			C-564.3,511.644-565.508,512.852-566.998,512.852z"/>
	</g>
</g>
</svg>
