<?xml version="1.0" encoding="utf-8"?>
<!-- Generator: Adobe Illustrator 19.1.0, SVG Export Plug-In . SVG Version: 6.00 Build 0)  -->
<svg version="1.1" id="Layer_1" xmlns="http://www.w3.org/2000/svg" xmlns:xlink="http://www.w3.org/1999/xlink" x="0px" y="0px"
	 viewBox="-583 485 32 32" style="enable-background:new -583 485 32 32;" xml:space="preserve">
<g>
	<g>
		<path d="M-567.772,500.099v0.96c-0.313,0.095-0.623,0.203-0.899,0.298c-0.454,0.156-0.884,0.304-1.23,0.374
			c-0.568,0.12-1.135,0.663-1.681,1.187c-0.282,0.267-0.574,0.546-0.868,0.767c-0.184,0.138-0.426,0.276-0.724,0.411
			c-0.273,0.126-0.592,0.249-0.96,0.371c-0.242,0.08-0.5-0.052-0.58-0.291c-0.083-0.242,0.049-0.503,0.288-0.583
			c0.838-0.279,1.236-0.503,1.427-0.644c0.249-0.187,0.506-0.436,0.779-0.696c0.614-0.586,1.307-1.249,2.132-1.42
			c0.291-0.061,0.693-0.199,1.117-0.347C-568.582,500.35-568.174,500.209-567.772,500.099z"/>
		<path d="M-558.761,505.286c-0.092,0.098-0.218,0.15-0.344,0.15c-0.11,0-0.218-0.04-0.307-0.12
			c-0.141-0.126-0.298-0.258-0.466-0.39c-1.031-0.813-2.461-1.651-3.071-1.767c-0.77-0.15-1.39-0.764-1.991-1.356
			c-0.325-0.325-0.66-0.653-0.963-0.838v-1c0.025,0.003,0.046,0.012,0.068,0.018c0.558,0.19,1.037,0.663,1.543,1.163
			c0.503,0.497,1.022,1.012,1.519,1.108c0.963,0.187,2.93,1.433,3.979,2.381C-558.608,504.805-558.593,505.096-558.761,505.286z"/>
	</g>
	<g>
		<path d="M-581.455,509.164l-0.12,0.009C-581.544,509.17-581.501,509.167-581.455,509.164z"/>
		<path d="M-581.455,509.164l-0.12,0.009C-581.544,509.17-581.501,509.167-581.455,509.164z"/>
	</g>
	<g>
		<path d="M-552.291,507.118c-0.752,0.776-9.725,4.596-11.011,4.82c-0.715,0.123-4.651,0.276-7.667,0.276
			c-1.648,0-3.022-0.046-3.445-0.166c-0.617-0.175-1.663-0.81-2.675-1.423c-0.687-0.417-1.54-0.936-1.795-0.997
			c-0.454-0.107-1.927-0.049-2.746,0.012c-0.252,0.021-0.476-0.172-0.494-0.426c-0.018-0.252,0.172-0.472,0.426-0.491
			c0.23-0.018,2.283-0.166,3.025,0.009c0.114,0.028,0.249,0.08,0.411,0.156c0.387,0.184,0.923,0.509,1.651,0.951
			c0.868,0.525,1.948,1.181,2.445,1.322c0.908,0.255,9.4,0.095,10.707-0.132c1.255-0.218,9.9-3.964,10.508-4.553
			c0.172-0.178,0.206-0.454,0.086-0.672c-0.178-0.322-0.641-0.442-1.242-0.322c-0.365,0.123-4.491,1.488-7.191,2.368
			c-0.374,0.518-1.108,0.957-2.175,1.065c-1.378,0.141-3.488,0.218-5.624,0.218c-1.31,0-2.626-0.031-3.786-0.089
			c-0.255-0.012-0.451-0.227-0.439-0.482c0.003-0.034,0.009-0.071,0.018-0.101l0.138-0.009l-0.117-0.052
			c0.077-0.172,0.252-0.285,0.445-0.273c0.795,0.04,1.663,0.067,2.549,0.077c2.479,0.034,5.114-0.04,6.722-0.202
			c0.611-0.061,1.058-0.264,1.331-0.488c0.104-0.086,0.181-0.175,0.233-0.261c0.006-0.009,0.015-0.021,0.018-0.034
			c0.046-0.08,0.064-0.156,0.061-0.224c-0.018-0.282-0.555-0.564-1.534-0.549l-0.687,0.012c-2.313,0.034-6.624,0.098-7.777,0
			c-0.681-0.058-1.632-0.368-2.556-0.672c-0.856-0.279-1.74-0.568-2.243-0.595c-0.736-0.04-2.7-0.025-3.918-0.012
			c-0.592,0.006-1.009,0.012-1.022,0.012c-0.267,0.012-0.463-0.199-0.466-0.454c-0.003-0.252,0.199-0.463,0.451-0.466
			c0.16-0.003,3.881-0.058,5.007,0c0.623,0.034,1.522,0.328,2.476,0.641c0.874,0.285,1.773,0.58,2.347,0.629
			c1.108,0.095,5.387,0.031,7.688-0.003l0.687-0.012c1.629-0.021,2.322,0.614,2.445,1.267c2.795-0.914,6.611-2.175,6.654-2.19
			c0.015-0.006,0.034-0.012,0.049-0.015c1.031-0.215,1.875,0.074,2.261,0.776C-551.745,505.931-551.84,506.652-552.291,507.118z"/>
		<path d="M-573.165,508.453l-0.138,0.009c0.006-0.021,0.012-0.043,0.021-0.061L-573.165,508.453z"/>
	</g>
	<g>
		<line x1="-566.845" y1="501.562" x2="-566.845" y2="500.838"/>
	</g>
	<g>
		<path d="M-557.764,492.515c-1.678-1.077-3.344-1.439-4.949-1.077c-1.881,0.423-3.194,1.733-3.829,2.51
			c-1.086-2-2.556-3.295-4.369-3.853c-3.12-0.957-6.099,0.617-6.225,0.684c-0.147,0.08-0.206,0.264-0.126,0.411
			c1.693,3.243,4.519,4.016,6.835,4.016c1.396,0,2.608-0.282,3.273-0.472v6.829c0,0.169,0.138,0.307,0.307,0.307
			c0.169,0,0.307-0.138,0.307-0.307v-6.397c1.046,0.595,2.056,0.828,2.994,0.828c3.366,0,5.823-2.988,5.854-3.028
			c0.055-0.067,0.08-0.156,0.064-0.242C-557.639,492.637-557.691,492.564-557.764,492.515z M-576.565,491.186
			c0.788-0.353,3.132-1.227,5.479-0.503c1.365,0.42,2.522,1.31,3.451,2.654c-2.276-1.328-4.326-1.905-6.249-1.764
			c-0.169,0.012-0.295,0.16-0.282,0.328c0.012,0.169,0.156,0.288,0.328,0.282c1.933-0.141,4.031,0.509,6.409,1.994
			C-569.137,494.656-574.055,495.57-576.565,491.186z M-560.694,494.622c-1.825,0.982-3.617,1.019-5.332,0.123
			c1.841-0.746,3.482-1.068,5.01-0.991c0.166,0.009,0.313-0.123,0.322-0.291c0.006-0.169-0.123-0.313-0.291-0.322
			c-1.47-0.074-3.034,0.199-4.752,0.831c0.647-0.703,1.73-1.611,3.16-1.933c1.341-0.304,2.746-0.034,4.175,0.804
			C-558.78,493.248-559.596,494.033-560.694,494.622z"/>
	</g>
</g>
</svg>
