<?xml version="1.0" encoding="utf-8"?>
<!-- Generator: Adobe Illustrator 19.1.0, SVG Export Plug-In . SVG Version: 6.00 Build 0)  -->
<svg version="1.1" id="Layer_1" xmlns="http://www.w3.org/2000/svg" xmlns:xlink="http://www.w3.org/1999/xlink" x="0px" y="0px"
	 viewBox="-583 485 32 32" style="enable-background:new -583 485 32 32;" xml:space="preserve">
<g>
	<g>
		<path d="M-569.667,508.093c-0.374-0.383-0.888-0.591-1.437-0.6c0.026-0.565-0.166-1.108-0.559-1.511
			c-0.351-0.361-0.83-0.562-1.354-0.588c-0.003-0.527-0.192-1.019-0.546-1.386c-0.351-0.361-0.834-0.562-1.354-0.588
			c-0.003-0.527-0.192-1.019-0.546-1.383c-0.821-0.84-2.232-0.818-3.146,0.054c-0.913,0.875-1.393,2.405-0.568,3.35
			c0.501,0.575,1.073,0.623,1.549,0.543c-0.096,0.396-0.086,0.878,0.332,1.408c0.479,0.607,1.076,0.645,1.581,0.556
			c-0.102,0.412-0.099,0.907,0.323,1.421c0.473,0.572,1.092,0.626,1.651,0.537c-0.134,0.466-0.144,1.019,0.358,1.584
			c0.307,0.351,0.757,0.549,1.303,0.572c0.035,0.003,0.073,0.003,0.109,0.003c0.754,0,1.6-0.329,2.137-0.843
			c0.46-0.438,0.728-1.041,0.741-1.654C-569.086,509.01-569.287,508.486-569.667,508.093z M-577.115,504.855
			c-0.077,0.019-0.153,0.045-0.233,0.07c-0.562,0.176-0.821,0.214-1.108-0.115c-0.431-0.492-0.077-1.463,0.508-2.025
			c0.537-0.511,1.341-0.546,1.798-0.08c0.236,0.246,0.326,0.6,0.249,0.99v0.003L-577.115,504.855z M-575.211,506.826h-0.003
			c-0.073,0.019-0.147,0.042-0.224,0.064c-0.578,0.179-0.859,0.224-1.105-0.089c-0.265-0.335-0.204-0.524-0.022-0.958
			c0.038-0.093,0.077-0.192,0.112-0.294l1.214-1.156h0.003c0.396-0.061,0.751,0.042,0.987,0.284
			c0.236,0.246,0.326,0.604,0.249,0.993v0.003L-575.211,506.826z M-573.183,508.771l-0.035,0.013
			c-0.636,0.204-1.143,0.332-1.434-0.019c-0.249-0.303-0.179-0.517-0.003-0.968c0.035-0.089,0.07-0.179,0.099-0.275l1.214-1.156
			h0.003c0.396-0.061,0.751,0.042,0.99,0.284c0.278,0.284,0.358,0.715,0.224,1.143l-1.054,0.977H-573.183z M-570.497,510.53
			c-0.374,0.358-1.028,0.6-1.543,0.578c-0.195-0.01-0.46-0.061-0.626-0.249c-0.3-0.339-0.23-0.581,0.029-1.147
			c0.038-0.08,0.073-0.16,0.109-0.24l1.057-0.98c0.434-0.109,0.846-0.01,1.118,0.268c0.198,0.208,0.307,0.489,0.3,0.792
			C-570.06,509.911-570.223,510.268-570.497,510.53z"/>
		<path d="M-567.965,491.732c-0.211,0.153-0.508,0.105-0.664-0.102c-0.01-0.013-0.105-0.125-0.326-0.249
			c-0.294-0.166-0.814-0.354-1.658-0.354c-0.489,0-1.185,0.224-1.919,0.543c-1.293,0.559-2.712,1.408-3.357,1.83
			c-0.038,0.026-0.642,0.402-1.581,0.402c-0.418,0-0.904-0.077-1.437-0.291l-2.897-1.009c-0.249-0.086-0.383-0.361-0.294-0.61
			c0.086-0.249,0.361-0.38,0.61-0.294l1.111,0.386l1.808,0.629c1.268,0.514,2.127,0.003,2.162-0.019
			c0.144-0.096,0.722-0.469,1.488-0.897c1.293-0.731,3.123-1.629,4.305-1.629c1.98,0,2.683,0.894,2.756,0.996
			C-567.703,491.278-567.751,491.575-567.965,491.732z"/>
		<path d="M-579.973,502.785c-0.077,0.188-0.255,0.3-0.444,0.3c-0.061,0-0.121-0.013-0.182-0.035
			c-0.693-0.284-1.143-0.386-1.15-0.386c-0.256-0.057-0.422-0.313-0.364-0.568c0.054-0.259,0.31-0.425,0.568-0.367
			c0.022,0.003,0.53,0.115,1.31,0.434C-579.993,502.262-579.874,502.543-579.973,502.785z"/>
		<path d="M-558.09,505.621c-0.473,0.473-1.147,0.62-1.747,0.447c0.163,0.591,0.01,1.236-0.447,1.693
			c-0.533,0.533-1.335,0.652-1.993,0.339c0.048,0.508-0.121,1.028-0.505,1.415c-0.572,0.568-1.437,0.668-2.108,0.294
			c0.01,0.466-0.16,0.936-0.514,1.29c-0.345,0.345-0.798,0.517-1.252,0.517c-0.45,0-0.904-0.172-1.246-0.517
			c-0.233-0.233-0.616-0.652-0.661-0.709c-0.156-0.214-0.109-0.514,0.102-0.671c0.118-0.089,0.265-0.112,0.399-0.08
			c0.099,0.022,0.188,0.077,0.256,0.16c0.048,0.054,0.358,0.396,0.581,0.623c0.313,0.316,0.827,0.313,1.143,0
			c0.313-0.316,0.313-0.83-0.003-1.143c-0.581-0.591-1.15-1.159-1.485-1.645c-0.307-0.447-0.422-0.818-0.176-1.067
			c0.089-0.089,0.22-0.137,0.361-0.147c0.035,0,0.067,0,0.112,0.01c0.23,0.051,0.703,0.37,2.66,2.398
			c0.323,0.323,0.837,0.323,1.153,0.01c0.313-0.316,0.313-0.827-0.003-1.143c-0.016-0.016-0.109-0.102-0.156-0.153
			c-2.229-1.987-2.239-2.29-2.245-2.488c-0.003-0.134,0.057-0.287,0.15-0.383c0.399-0.396,0.869-0.019,1.987,0.942
			c0.655,0.565,1.351,1.204,1.578,1.415l0.073,0.067c0.003,0.003,0.006,0.003,0.006,0.006c0.323,0.291,0.808,0.281,1.108-0.016
			c0.291-0.291,0.303-0.754,0.035-1.079c-0.003-0.003-0.006-0.006-0.01-0.01c-0.022-0.026-0.08-0.089-0.163-0.176
			c-1.961-2.121-2.175-2.472-1.773-2.878c0.089-0.093,0.24-0.153,0.367-0.153h0.003c0.208,0.003,0.492,0.003,2.59,2.159
			c0.313,0.313,0.827,0.313,1.143-0.003c0.303-0.303,0.31-0.798,0.022-1.118c-0.019-0.013-0.035-0.029-0.048-0.038l-2.054-2.054
			c-2.216-2.22-2.216-2.22-3.299-3.302l-0.933-0.936l-0.204-0.204c-0.185-0.185-0.185-0.489,0-0.677c0.188-0.185,0.492-0.185,0.68,0
			l1.137,1.14c1.079,1.083,1.079,1.083,3.296,3.299l2.025,2.025c0.019,0.016,0.042,0.032,0.054,0.045
			C-557.406,503.817-557.406,504.938-558.09,505.621z"/>
		<path d="M-552.261,502.373c-0.08,0.016-1.919,0.38-2.322,0.431c-0.045,0.003-0.105,0.016-0.172,0.029
			c-0.217,0.042-0.552,0.105-0.936,0.105c-0.559,0-1.226-0.134-1.785-0.674c-1.357-1.3-6.19-6.107-6.237-6.154
			c-0.057-0.051-0.639-0.549-1.626-0.029c-1.038,0.549-3.018,1.584-3.845,1.987c-0.747,0.399-1.549,0.393-2.239-0.022
			c-0.655-0.393-1.095-1.111-1.095-1.792c0-0.824,0.45-1.491,1.338-1.99c1.773-1.073,5.487-3.155,6.966-3.941
			c1.048-0.559,1.945-0.642,3.411,0.597c1.559,1.309,2.967,2.52,2.98,2.533c0.003,0,0.201,0.147,0.53,0.147
			c0.073,0,0.156-0.006,0.246-0.026c1.766-0.37,4.561-0.996,4.589-1.003c0.259-0.057,0.514,0.102,0.572,0.361
			s-0.105,0.514-0.361,0.572c-0.003,0-0.042,0.01-0.105,0.022c-0.527,0.118-2.922,0.655-4.497,0.987
			c-0.929,0.195-1.527-0.275-1.594-0.329c-0.019-0.016-1.421-1.226-2.977-2.533c-1.134-0.955-1.606-0.875-2.347-0.482
			c-1.466,0.779-5.155,2.849-6.931,3.922c-0.776,0.434-0.862,0.872-0.862,1.163c0,0.294,0.217,0.722,0.629,0.971
			c0.278,0.166,0.728,0.3,1.313-0.01c0.728-0.358,2.446-1.249,3.833-1.98c1.638-0.866,2.702,0.15,2.747,0.195
			c0.048,0.048,4.877,4.848,6.228,6.142c0.588,0.568,1.396,0.412,1.875,0.319c0.096-0.016,0.172-0.032,0.236-0.038
			c0.307-0.038,1.731-0.316,2.255-0.418c0.032-0.006,0.061-0.01,0.093-0.01c0.22,0,0.425,0.16,0.469,0.386
			C-551.833,502.073-552.002,502.322-552.261,502.373z"/>
	</g>
</g>
</svg>
