<?xml version="1.0" encoding="utf-8"?>
<!-- Generator: Adobe Illustrator 19.1.0, SVG Export Plug-In . SVG Version: 6.00 Build 0)  -->
<svg version="1.1" id="Layer_1" xmlns="http://www.w3.org/2000/svg" xmlns:xlink="http://www.w3.org/1999/xlink" x="0px" y="0px"
	 viewBox="-583 485 32 32" style="enable-background:new -583 485 32 32;" xml:space="preserve">
<g>
	<g>
		<g>
			<path d="M-565.996,506.131v0.131c0.036-0.013,0.075-0.029,0.111-0.046C-565.925,506.189-565.96,506.163-565.996,506.131z
				 M-566.032,506.105c0.013,0.013,0.023,0.02,0.036,0.026v-0.042C-566.006,506.095-566.019,506.101-566.032,506.105z
				 M-565.996,506.131v0.131c0.036-0.013,0.075-0.029,0.111-0.046C-565.925,506.189-565.96,506.163-565.996,506.131z
				 M-566.032,506.105c0.013,0.013,0.023,0.02,0.036,0.026v-0.042C-566.006,506.095-566.019,506.101-566.032,506.105z"/>
			<path d="M-581.16,500.018c0,1.4,0.552,2.751,1.596,3.917c0.421,0.473,0.937,0.92,1.534,1.325c0.007,0.46-0.029,0.927-0.114,1.459
				c-0.088,0.568-0.215,1.106-0.388,1.645l-0.117,0.356l0.339-0.157c0.542-0.251,1.139-0.587,1.776-1.002
				c0.45-0.287,0.914-0.61,1.341-0.93c0.503,0.17,1.067,0.31,1.73,0.431c0.783,0.134,1.583,0.199,2.376,0.199
				c1.018,0,1.997-0.108,2.924-0.313c0.307,0.31,0.643,0.601,1.005,0.868c-1.224,0.346-2.546,0.535-3.93,0.535
				c-1.292,0-2.572-0.17-3.809-0.503l-0.072-0.023l-0.062,0.046c-1.23,0.855-2.999,1.942-4.426,2.252l-0.137,0.026
				c-0.052-0.007-0.287-0.036-0.45-0.261c-0.16-0.212-0.098-0.395,0.023-0.672l0.023-0.055c0.512-1.175,0.79-2.255,0.849-3.3
				l0.003-0.085l-0.065-0.052c-1.958-1.554-3.039-3.577-3.039-5.705c0-4.592,5.007-8.329,11.162-8.329
				c3.636,0,6.874,1.306,8.91,3.319c-0.45,0.059-0.888,0.147-1.315,0.261c-1.847-1.524-4.566-2.49-7.595-2.49
				C-576.643,492.779-581.16,496.026-581.16,500.018z"/>
			<path d="M-566.032,506.105c0.013,0.013,0.023,0.02,0.036,0.026v-0.042C-566.006,506.095-566.019,506.101-566.032,506.105z
				 M-565.996,506.131v0.131c0.036-0.013,0.075-0.029,0.111-0.046C-565.925,506.189-565.96,506.163-565.996,506.131z
				 M-566.032,506.105c0.013,0.013,0.023,0.02,0.036,0.026v-0.042C-566.006,506.095-566.019,506.101-566.032,506.105z
				 M-565.996,506.131v0.131c0.036-0.013,0.075-0.029,0.111-0.046C-565.925,506.189-565.96,506.163-565.996,506.131z
				 M-566.032,506.105c0.013,0.013,0.023,0.02,0.036,0.026v-0.042C-566.006,506.095-566.019,506.101-566.032,506.105z
				 M-565.996,506.131v0.131c0.036-0.013,0.075-0.029,0.111-0.046C-565.925,506.189-565.96,506.163-565.996,506.131z
				 M-566.032,506.105c0.013,0.013,0.023,0.02,0.036,0.026v-0.042C-566.006,506.095-566.019,506.101-566.032,506.105z
				 M-565.996,506.131v0.131c0.036-0.013,0.075-0.029,0.111-0.046C-565.925,506.189-565.96,506.163-565.996,506.131z
				 M-566.032,506.105c0.013,0.013,0.023,0.02,0.036,0.026v-0.042C-566.006,506.095-566.019,506.101-566.032,506.105z
				 M-565.996,506.131v0.131c0.036-0.013,0.075-0.029,0.111-0.046C-565.925,506.189-565.96,506.163-565.996,506.131z
				 M-566.032,506.105c0.013,0.013,0.023,0.02,0.036,0.026v-0.042C-566.006,506.095-566.019,506.101-566.032,506.105z
				 M-565.996,506.131v0.131c0.036-0.013,0.075-0.029,0.111-0.046C-565.925,506.189-565.96,506.163-565.996,506.131z
				 M-566.032,506.105c0.013,0.013,0.023,0.02,0.036,0.026v-0.042C-566.006,506.095-566.019,506.101-566.032,506.105z
				 M-565.996,506.131v0.131c0.036-0.013,0.075-0.029,0.111-0.046C-565.925,506.189-565.96,506.163-565.996,506.131z"/>
		</g>
	</g>
	<g>
		<path d="M-566.76,507.114c-0.038,0.017-0.08,0.035-0.118,0.049v-0.139C-566.839,507.059-566.801,507.086-566.76,507.114z"/>
	</g>
	<g>
		<g>
			<g>
				<path d="M-566.916,506.996c0.014,0.014,0.024,0.021,0.038,0.028v-0.045C-566.888,506.986-566.902,506.993-566.916,506.996z
					 M-566.878,507.024v0.139c0.038-0.014,0.08-0.031,0.118-0.049C-566.801,507.086-566.839,507.059-566.878,507.024z"/>
			</g>
			<g>
				<path d="M-566.916,506.996c0.014,0.014,0.024,0.021,0.038,0.028v-0.045C-566.888,506.986-566.902,506.993-566.916,506.996z
					 M-566.916,506.996c0.014,0.014,0.024,0.021,0.038,0.028v-0.045C-566.888,506.986-566.902,506.993-566.916,506.996z
					 M-566.916,506.996c0.014,0.014,0.024,0.021,0.038,0.028v-0.045C-566.888,506.986-566.902,506.993-566.916,506.996z
					 M-566.916,506.996c0.014,0.014,0.024,0.021,0.038,0.028v-0.045C-566.888,506.986-566.902,506.993-566.916,506.996z
					 M-566.916,506.996c0.014,0.014,0.024,0.021,0.038,0.028v-0.045C-566.888,506.986-566.902,506.993-566.916,506.996z"/>
			</g>
		</g>
	</g>
	<g>
		<g>
			<path d="M-565.996,506.131v0.131c0.036-0.013,0.075-0.029,0.111-0.046C-565.925,506.189-565.96,506.163-565.996,506.131z"/>
			<path d="M-554.136,506.881c1.469-1.165,2.386-2.742,2.386-4.484c0-3.603-3.897-6.531-8.711-6.531
				c-0.183,0-0.362,0.003-0.539,0.013c-0.065,0.003-0.131,0.007-0.193,0.01c-0.065,0.003-0.131,0.01-0.196,0.013
				c-0.431,0.036-0.852,0.091-1.26,0.173c-0.059,0.01-0.121,0.023-0.18,0.036c-0.062,0.013-0.124,0.026-0.186,0.039
				c-1.103,0.255-2.112,0.669-2.98,1.208c-0.003,0-0.003,0-0.003,0c-1.939,1.198-3.172,3.012-3.172,5.039
				c0,1.511,0.685,2.902,1.834,4.001c0.042,0.049,0.088,0.091,0.134,0.134c0.046,0.039,0.091,0.082,0.14,0.121
				c0.323,0.287,0.679,0.545,1.061,0.78c0.055,0.036,0.114,0.072,0.173,0.104c0.059,0.036,0.117,0.072,0.176,0.104
				c1.449,0.809,3.244,1.286,5.189,1.286c1.048,0,2.037-0.14,2.964-0.392c0.999,0.698,2.35,1.514,3.45,1.753l0.121,0.023
				c0,0,0.271,0,0.457-0.251c0.183-0.251,0.065-0.48-0.023-0.685C-553.875,508.503-554.09,507.678-554.136,506.881z
				 M-555.157,507.567c0.065,0.424,0.163,0.849,0.304,1.286c-0.447-0.206-0.914-0.48-1.348-0.764
				c-0.395-0.248-0.764-0.509-1.08-0.751c-0.434,0.153-0.891,0.261-1.371,0.349c-0.578,0.098-1.185,0.153-1.808,0.153
				c-1.443,0-2.794-0.287-3.946-0.787c-0.059-0.026-0.121-0.055-0.18-0.085c-0.062-0.026-0.124-0.055-0.183-0.085
				c-0.114-0.055-0.228-0.114-0.336-0.176c-0.274-0.15-0.535-0.313-0.78-0.493c-0.036,0.016-0.075,0.033-0.111,0.046v-0.131
				c-0.013-0.007-0.023-0.013-0.036-0.026c-0.049-0.036-0.101-0.075-0.147-0.114c-1.182-0.956-1.9-2.216-1.9-3.593
				c0-1.446,0.793-2.761,2.082-3.73c0.744-0.565,1.648-1.012,2.663-1.309c0.349-0.101,0.711-0.186,1.084-0.248
				c0.055-0.013,0.114-0.023,0.173-0.029c0.059-0.01,0.117-0.02,0.176-0.026c0.388-0.052,0.787-0.085,1.195-0.095
				c0.059-0.003,0.121-0.003,0.183-0.003h0.062c0.039,0,0.078,0,0.117,0.003c0.973,0.007,1.903,0.15,2.755,0.398
				c0.238,0.069,0.47,0.147,0.692,0.235c2.412,0.911,4.057,2.722,4.057,4.804c0,1.077-0.434,2.079-1.198,2.928
				c-0.336,0.382-0.751,0.731-1.208,1.035C-555.255,506.764-555.223,507.155-555.157,507.567z"/>
		</g>
	</g>
</g>
</svg>
