<?xml version="1.0" encoding="utf-8"?>
<!-- Generator: Adobe Illustrator 19.1.0, SVG Export Plug-In . SVG Version: 6.00 Build 0)  -->
<svg version="1.1" id="Layer_1" xmlns="http://www.w3.org/2000/svg" xmlns:xlink="http://www.w3.org/1999/xlink" x="0px" y="0px"
	 viewBox="-583 485 32 32" style="enable-background:new -583 485 32 32;" xml:space="preserve">
<g>
	<g>
		<path d="M-561.224,501.477v0.003l0.926-0.234L-561.224,501.477z M-566.997,498.686l-0.01,0.405l0.013-0.405H-566.997z
			 M-560.196,502.198l-0.926,0.234l0.256,2.425c-0.044,0.695-2.551,1.464-6.133,1.464c-3.579,0-6.086-0.768-6.13-1.464l0.19-1.796
			l-0.92-0.332l-0.218,2.058l-0.003,0.051c0,0.857,0.816,1.505,2.419,1.925c1.239,0.326,2.893,0.506,4.663,0.506
			c1.182,0,7.082-0.117,7.082-2.431L-560.196,502.198z"/>
	</g>
	<g>
		<g>
			<polygon points="-566.991,498.55 -566.994,498.686 -567.006,499.09 -566.997,498.686 -566.994,498.55 			"/>
			<polygon points="-552.372,499.249 -553.282,499.479 -553.282,498.923 			"/>
		</g>
		<g>
			<path d="M-553.282,498.923v0.556l0.911-0.231L-553.282,498.923z M-561.224,501.477v0.003l0.926-0.234L-561.224,501.477z"/>
		</g>
	</g>
	<g>
		<g>
			<polygon points="-566.991,498.55 -566.994,498.686 -567.006,499.09 -566.997,498.686 -566.994,498.55 			"/>
		</g>
		<g>
			<path d="M-553.282,498.923v0.556l0.911-0.231L-553.282,498.923z M-561.224,501.477v0.003l0.926-0.234L-561.224,501.477z"/>
			<polygon points="-556.861,499.89 -555.116,499.941 -555.388,500.01 -560.298,501.247 -561.224,501.477 -561.224,501.481 
				-568.77,503.381 -569.049,503.45 -569.321,503.352 -572.836,502.088 -573.756,501.759 -578.697,499.982 -581.628,498.929 
				-578.609,498.17 -565.23,494.8 -564.948,494.731 -564.676,494.829 -555.299,498.199 -554.838,498.363 -556.352,498.322 
				-556.355,498.322 -557.873,498.281 -564.996,495.72 -578.378,499.09 -573.655,500.788 -572.735,501.12 -569.001,502.461 
				-561.325,500.529 -560.396,500.295 -558.606,499.843 -556.864,499.89 			"/>
		</g>
	</g>
	<g>
		<g>
			<polygon points="-566.991,498.55 -566.994,498.686 -567.006,499.09 -566.997,498.686 -566.994,498.55 			"/>
		</g>
	</g>
	<g>
		<path d="M-566.997,498.686l-0.01,0.405c-0.259-0.003-0.471-0.12-0.471-0.272c0-0.047,0.022-0.095,0.063-0.133
			c0.082-0.082,0.237-0.136,0.414-0.136c0.003,0,0.003,0,0.006,0L-566.997,498.686z"/>
		<path d="M-553.848,503.039l0.199,0.797c-0.285,0.174-0.566,0.174-0.85,0l0.196-0.797c-0.098-0.06-0.174-0.161-0.212-0.281
			c-0.019-0.054-0.028-0.114-0.028-0.174c0-0.155,0.06-0.294,0.155-0.386v-2.713l-0.778-0.022l-1.739-0.047h-0.003l-3.591-0.101
			l-6.506-0.18v-0.044l0.013-0.405l0.003-0.136h-0.003l0.003-0.047l10.55,0.291l0.003,0.003l1.514,0.041l1.167,0.032v3.329
			c0.095,0.095,0.152,0.231,0.152,0.386c0,0.06-0.009,0.12-0.028,0.174C-553.671,502.881-553.747,502.979-553.848,503.039z"/>
		<polygon points="-566.991,498.55 -566.994,498.686 -567.006,499.09 -566.997,498.686 -566.994,498.55 		"/>
	</g>
</g>
</svg>
