<?xml version="1.0" encoding="utf-8"?>
<!-- Generator: Adobe Illustrator 19.1.0, SVG Export Plug-In . SVG Version: 6.00 Build 0)  -->
<svg version="1.1" id="Layer_1" xmlns="http://www.w3.org/2000/svg" xmlns:xlink="http://www.w3.org/1999/xlink" x="0px" y="0px"
	 viewBox="-583 485 32 32" style="enable-background:new -583 485 32 32;" xml:space="preserve">
<g>
	<path d="M-565.729,486.639l-4.989,3.898l4.989,3.881h12.464v-7.779H-565.729z M-558.952,492.325l-0.268-0.697h-1.645l-0.268,0.697
		h-0.715l1.413-3.594h0.787l1.413,3.594H-558.952z M-560.686,491.073h1.288l-0.644-1.699L-560.686,491.073z"/>
</g>
<g>
	<path d="M-565.729,497.189l-4.989,3.898l4.989,3.88h12.464v-7.779H-565.729z M-554.338,503.895h-11.034l-3.594-2.808l3.594-2.825
		h11.034V503.895z"/>
</g>
<g>
	<path d="M-565.729,507.561l-4.989,3.916l4.989,3.863h12.464v-7.779H-565.729z M-554.338,514.267h-11.034l-3.594-2.79l3.612-2.843
		h11.016V514.267z"/>
</g>
<g>
	<g>
		<path d="M-559.31,501.016c0.34-0.054,0.626-0.358,0.626-0.823c0-0.501-0.358-0.912-1.019-0.912h-1.77v3.594h1.824
			c0.662,0,1.037-0.411,1.037-0.966C-558.612,501.463-558.916,501.088-559.31,501.016z M-560.829,499.836h1.001
			c0.322,0,0.501,0.215,0.501,0.483c0,0.268-0.179,0.447-0.501,0.447h-1.001V499.836z M-559.81,502.322h-1.019v-1.001h1.019
			c0.358,0,0.554,0.232,0.554,0.501C-559.256,502.125-559.453,502.322-559.81,502.322z"/>
	</g>
</g>
<g>
	<g>
		<path d="M-559.739,512.747c-0.715,0-1.252-0.554-1.252-1.305c0-0.751,0.536-1.288,1.252-1.288c0.376,0,0.715,0.232,0.894,0.519
			l0.536-0.268c-0.268-0.429-0.715-0.805-1.431-0.805c-1.073,0-1.896,0.751-1.896,1.842c0,1.109,0.823,1.86,1.896,1.86
			c0.715,0,1.162-0.376,1.431-0.805l-0.536-0.268C-559.023,512.515-559.363,512.747-559.739,512.747z"/>
	</g>
</g>
<path d="M-576.834,486.513c-2.164,0-3.898,1.735-3.898,3.898c0,2.146,1.735,3.898,3.898,3.898s3.898-1.753,3.898-3.898
	C-572.936,488.248-574.671,486.513-576.834,486.513z M-574.599,489.375l-2.861,2.861l-1.609-1.609c-0.143-0.143-0.143-0.411,0-0.554
	c0.161-0.161,0.411-0.161,0.572,0l1.037,1.019l2.289-2.289c0.161-0.161,0.411-0.161,0.572,0
	C-574.438,488.963-574.438,489.214-574.599,489.375z"/>
<path d="M-576.833,498.43c1.463,0,2.653,1.19,2.653,2.653c0,1.463-1.19,2.653-2.653,2.653c-1.463,0-2.653-1.19-2.653-2.653
	C-579.486,499.62-578.296,498.43-576.833,498.43 M-576.833,497.178c-2.156,0-3.904,1.748-3.904,3.904s1.748,3.904,3.904,3.904
	s3.904-1.748,3.904-3.904S-574.677,497.178-576.833,497.178L-576.833,497.178z"/>
<path d="M-576.833,508.934c1.463,0,2.653,1.19,2.653,2.653s-1.19,2.653-2.653,2.653c-1.463,0-2.653-1.19-2.653-2.653
	S-578.296,508.934-576.833,508.934 M-576.833,507.682c-2.156,0-3.904,1.748-3.904,3.904s1.748,3.904,3.904,3.904
	s3.904-1.748,3.904-3.904S-574.677,507.682-576.833,507.682L-576.833,507.682z"/>
</svg>
