<?xml version="1.0" encoding="utf-8"?>
<!-- Generator: Adobe Illustrator 19.1.0, SVG Export Plug-In . SVG Version: 6.00 Build 0)  -->
<svg version="1.1" id="Layer_1" xmlns="http://www.w3.org/2000/svg" xmlns:xlink="http://www.w3.org/1999/xlink" x="0px" y="0px"
	 viewBox="-583 485 32 32" style="enable-background:new -583 485 32 32;" xml:space="preserve">
<g>
	<g>
		<g>
			<path d="M-560.481,496.495l-8.463,8.48l-0.159-0.159l-4.417-4.435c-0.141-0.141-0.23-0.336-0.23-0.53
				c0-0.212,0.088-0.406,0.23-0.548c0.3-0.3,0.777-0.3,1.078,0l3.498,3.498l7.385-7.385c0.3-0.3,0.777-0.3,1.078,0
				C-560.18,495.717-560.18,496.194-560.481,496.495z"/>
		</g>
	</g>
	<g>
		<g>
			<path d="M-577.601,512.722l0.194-0.035c1.784-0.389,3.975-1.714,5.601-2.844c1.502,0.406,3.109,0.636,4.805,0.636
				c7.809,0,14.134-4.753,14.134-10.601c0-5.848-6.325-10.6-14.134-10.6s-14.134,4.753-14.134,10.6c0,2.827,1.484,5.389,3.869,7.279
				c-0.071,1.29-0.424,2.633-1.042,4.046c-0.141,0.336-0.336,0.707-0.035,1.113C-578.042,512.722-577.601,512.722-577.601,512.722z
				 M-567,508.712c-1.007,0-1.996-0.088-2.933-0.247c-0.777-0.141-1.52-0.318-2.226-0.565c-0.512,0.389-1.113,0.813-1.749,1.219
				c-0.707,0.459-1.466,0.901-2.191,1.237c0.23-0.707,0.389-1.396,0.495-2.085c0.106-0.671,0.159-1.307,0.141-1.961
				c-0.742-0.495-1.413-1.06-1.961-1.678c-1.237-1.378-1.943-3.003-1.943-4.753c0-4.876,5.548-8.834,12.367-8.834
				s12.367,3.958,12.367,8.834C-554.633,504.754-560.18,508.712-567,508.712z"/>
		</g>
	</g>
</g>
</svg>
