<?xml version="1.0" encoding="utf-8"?>
<!-- Generator: Adobe Illustrator 19.2.0, SVG Export Plug-In . SVG Version: 6.00 Build 0)  -->
<svg version="1.1" id="Layer_1" xmlns="http://www.w3.org/2000/svg" xmlns:xlink="http://www.w3.org/1999/xlink" x="0px" y="0px"
	 viewBox="0 0 32 32" style="enable-background:new 0 0 32 32;" xml:space="preserve">
<style type="text/css">
	.st0{fill:#050505;}
</style>
<path class="st0" d="M19.439,14.234c0.472,3.247-0.052,6.19-2.452,8.579c-1.272,1.266-2.858,1.944-4.626,2.189
	c-3.1,0.429-5.794-0.422-8.013-2.643c-3.438-3.441-3.462-9.127-0.076-12.624c3.41-3.52,8.717-3.808,12.441-0.673
	c0.071,0.06,0.137,0.127,0.145,0.135c-0.881,0.88-1.753,1.75-2.646,2.642c-2.695-1.593-4.905-1.585-6.785,0.088
	c-1.78,1.585-2.339,4.087-1.396,6.246c0.988,2.261,3.067,3.417,5.697,3.168c1.956-0.185,3.496-1.525,3.909-3.453
	c-1.586,0-3.16,0-4.786,0c0-1.242,0-2.42,0-3.654C13.679,14.234,16.517,14.234,19.439,14.234z M27.245,14.322v-3.175h-2.438v3.175
	h-3.119v2.438h3.119v3.062h2.438V16.76h3.005v-2.438H27.245z"/>
</svg>
