<?xml version="1.0" encoding="utf-8"?>
<!-- Generator: Adobe Illustrator 18.1.1, SVG Export Plug-In . SVG Version: 6.00 Build 0)  -->
<svg version="1.1" id="Layer_1" xmlns="http://www.w3.org/2000/svg" xmlns:xlink="http://www.w3.org/1999/xlink" x="0px" y="0px"
	 viewBox="0 0 792 612" enable-background="new 0 0 792 612" xml:space="preserve">
<g>
	<g>
		<path d="M541.9,447.1c0,9.4-7.6,17.1-17.1,17.1H273.9c-9.4,0-17.1-7.6-17.1-17.1V223.4c0-9.4,7.6-17.1,17.1-17.1h250.9
			c9.4,0,17.1,7.6,17.1,17.1V447.1z"/>
		<rect x="256.6" y="206.3" width="285.5" height="117.5"/>
	</g>
	<g>
		<path d="M618.1,363.4c0,16.8-13.6,30.4-30.4,30.4l0,0c-16.8,0-30.4-13.6-30.4-30.4V227c0-16.8,13.6-30.4,30.4-30.4l0,0
			c16.8,0,30.4,13.6,30.4,30.4V363.4z"/>
		<path d="M241.4,363.4c0,16.8-13.6,30.4-30.4,30.4l0,0c-16.8,0-30.4-13.6-30.4-30.4V227c0-16.8,13.6-30.4,30.4-30.4l0,0
			c16.8,0,30.4,13.6,30.4,30.4V363.4z"/>
	</g>
	<path d="M399.4,69.1c-138.4-0.4-141.6,120.4-141.6,120.4H541C541,189.5,536.5,69.5,399.4,69.1z M337.2,144.9c-9.4,0-17-7.6-17-17
		c0-9.4,7.6-17,17-17c9.4,0,17,7.6,17,17C354.3,137.2,346.6,144.9,337.2,144.9z M461.5,144.9c-9.4,0-17-7.6-17-17
		c0-9.4,7.6-17,17-17c9.4,0,17,7.6,17,17C478.6,137.2,470.9,144.9,461.5,144.9z"/>
	<g>
		<path d="M332.5,85.3c0.5,0.7,2,0.5,3.5-0.5l0,0c1.4-1,2.1-2.4,1.6-3.1l-26.5-37.3c-0.5-0.7-2.1-0.5-3.4,0.5l0,0
			c-1.4,1-2.1,2.4-1.6,3.1L332.5,85.3z"/>
		<path d="M466.2,85.3c-0.5,0.7-2,0.5-3.5-0.5l0,0c-1.4-1-2.1-2.4-1.6-3.1l26.5-37.3c0.5-0.7,2.1-0.5,3.5,0.5l0,0
			c1.4,1,2.1,2.4,1.6,3.1L466.2,85.3z"/>
	</g>
	<g>
		<path d="M488.3,540.1c0,16.8-13.6,30.4-30.4,30.4l0,0c-16.8,0-30.4-13.6-30.4-30.4V403.6c0-16.8,13.6-30.4,30.4-30.4l0,0
			c16.8,0,30.4,13.6,30.4,30.4V540.1z"/>
		<path d="M371.1,540.1c0,16.8-13.6,30.4-30.4,30.4l0,0c-16.8,0-30.4-13.6-30.4-30.4V403.6c0-16.8,13.6-30.4,30.4-30.4l0,0
			c16.8,0,30.4,13.6,30.4,30.4V540.1z"/>
	</g>
</g>
</svg>
