<?xml version="1.0" encoding="utf-8"?>
<!-- Generator: Adobe Illustrator 18.1.1, SVG Export Plug-In . SVG Version: 6.00 Build 0)  -->
<svg version="1.1" id="Layer_1" xmlns="http://www.w3.org/2000/svg" xmlns:xlink="http://www.w3.org/1999/xlink" x="0px" y="0px"
	 viewBox="0 0 18 18" enable-background="new 0 0 18 18" xml:space="preserve">
<g>
	<defs>
		<rect id="SVGID_1_" x="2.5174" y="1.06623" width="13.17002" height="15.55877"/>
	</defs>
	<clipPath id="SVGID_2_">
		<use xlink:href="#SVGID_1_"  overflow="visible"/>
	</clipPath>
	<g clip-path="url(#SVGID_2_)">
		<defs>
			<rect id="SVGID_3_" x="-76.57431" y="-109.99966" width="110.65047" height="151.9496"/>
		</defs>
		<clipPath id="SVGID_4_">
			<use xlink:href="#SVGID_3_"  overflow="visible"/>
		</clipPath>
		<g clip-path="url(#SVGID_4_)" enable-background="new    ">
			<g>
				<defs>
					<rect id="SVGID_5_" x="2.5174" y="1.04043" width="13.24689" height="15.58457"/>
				</defs>
				<clipPath id="SVGID_6_">
					<use xlink:href="#SVGID_5_"  overflow="visible"/>
				</clipPath>
				<g clip-path="url(#SVGID_6_)">
					<defs>
						<path id="SVGID_7_" d="M3.4776,6.09882c-0.5303-0.00025-0.96008,0.43041-0.9602,0.96024l0.00072,4.02129
							c0.00013,0.53165,0.43008,0.96062,0.96042,0.96054c0.53064,0.00004,0.9605-0.42919,0.95995-0.9605l0.00008-4.02188
							C4.43836,6.52881,4.00794,6.09843,3.4776,6.09882z M11.22149,2.48771l0.67027-1.224
							c0.03573-0.06394,0.01229-0.14541-0.05258-0.18152c-0.06534-0.03463-0.14613-0.01111-0.18068,0.0533l-0.67698,1.23676
							c-0.56979-0.25345-1.20715-0.39574-1.88168-0.39498C8.42708,1.97672,7.78988,2.11837,7.22259,2.37039l-0.6777-1.2335
							C6.50958,1.0718,6.42858,1.04827,6.36455,1.08371C6.2993,1.11881,6.27552,1.2004,6.31163,1.26422l0.67056,1.22307
							C5.66468,3.1668,4.77454,4.46066,4.77526,5.94614l8.65007-0.00089C13.42559,4.45999,12.53706,3.16883,11.22149,2.48771z
							 M7.13246,4.37906C6.93324,4.3786,6.77098,4.21667,6.77093,4.01665C6.77102,3.81739,6.9329,3.65356,7.13275,3.6536
							c0.20057-0.00017,0.3628,0.16379,0.36305,0.36296C7.49589,4.21646,7.33329,4.37894,7.13246,4.37906z M11.07113,4.37835
							c-0.19998,0.00021-0.36275-0.16193-0.36271-0.36263c0.00068-0.19867,0.16252-0.36267,0.36288-0.36338
							c0.19888,0.00059,0.36203,0.16455,0.36187,0.36364C11.43363,4.21621,11.27103,4.37839,11.07113,4.37835z M4.81057,6.28013
							l0.00148,6.23193c-0.00046,0.56687,0.45803,1.0244,1.02461,1.02453l0.69767,0.0003l0.0008,2.12774
							c-0.00013,0.52966,0.4305,0.96037,0.95957,0.96037c0.53064,0,0.9605-0.43105,0.96063-0.96105l-0.00051-2.12732
							l1.29643-0.00025l0.00055,2.12765c-0.00013,0.52941,0.43075,0.9608,0.95991,0.95995
							c0.53059,0.00034,0.96071-0.43071,0.96062-0.9608l-0.00059-2.1271l0.70013-0.00051
							c0.56518,0.00021,1.02495-0.45799,1.02508-1.02486L13.3959,6.27869L4.81057,6.28013z M15.6867,7.05758
							c-0.00008-0.53034-0.42995-0.96016-0.96025-0.96008c-0.53026-0.00038-0.96008,0.4302-0.95995,0.96058l0.00068,4.02137
							c-0.00004,0.53089,0.42961,0.95995,0.96024,0.96012c0.53026-0.00008,0.95987-0.42923,0.96-0.96054L15.6867,7.05758z"/>
					</defs>
					<clipPath id="SVGID_8_">
						<use xlink:href="#SVGID_7_"  overflow="visible"/>
					</clipPath>
					<g clip-path="url(#SVGID_8_)">
						<defs>
							<rect id="SVGID_9_" x="2.5174" y="1.04043" width="13.24689" height="15.58457"/>
						</defs>
						<clipPath id="SVGID_10_">
							<use xlink:href="#SVGID_9_"  overflow="visible"/>
						</clipPath>
						<rect x="0.56933" y="-0.88184" clip-path="url(#SVGID_10_)" fill="#010101" width="17.06616" height="19.4549"/>
					</g>
				</g>
			</g>
		</g>
	</g>
</g>
</svg>
