<?xml version="1.0" encoding="utf-8"?>
<!-- Generator: Adobe Illustrator 18.1.1, SVG Export Plug-In . SVG Version: 6.00 Build 0)  -->
<svg version="1.1" id="Layer_1" xmlns="http://www.w3.org/2000/svg" xmlns:xlink="http://www.w3.org/1999/xlink" x="0px" y="0px"
	 viewBox="0 0 18 18" enable-background="new 0 0 18 18" xml:space="preserve">
<g>
	<g>
		<path fill="#010101" d="M13.3015,9.34126c-0.01818-1.99996,1.63754-2.97322,1.71331-3.01871
			c-0.93758-1.36721-2.39117-1.55419-2.90173-1.56871c-1.22088-0.12815-2.40445,0.73055-3.02659,0.73055
			c-0.63417,0-1.59205-0.71783-2.62352-0.69661c-1.3278,0.0206-2.57052,0.78938-3.25199,1.98326
			c-1.40606,2.43443-0.35727,6.01222,0.98965,7.98003c0.67389,0.96358,1.46148,2.03992,2.49202,2.00176
			c1.00845-0.04183,1.38508-0.64305,2.60236-0.64305c1.20598,0,1.55934,0.64305,2.6108,0.61878
			c1.08211-0.01756,1.76389-0.96786,2.41414-1.94057c0.77877-1.10476,1.09148-2.19265,1.10395-2.24838
			C15.3987,12.53112,13.3221,11.73907,13.3015,9.34126z"/>
		<path fill="#010101" d="M11.31551,3.45967c0.54214-0.67848,0.91331-1.60117,0.8103-2.53782
			c-0.7851,0.03481-1.76693,0.5427-2.33203,1.2066C9.29377,2.71298,8.84682,3.67147,8.96225,4.57231
			C9.84404,4.63778,10.74947,4.12748,11.31551,3.45967z"/>
	</g>
</g>
</svg>
