<?xml version="1.0" encoding="utf-8"?>
<!-- Generator: Adobe Illustrator 19.2.1, SVG Export Plug-In . SVG Version: 6.00 Build 0)  -->
<svg version="1.1" id="Layer_1" xmlns="http://www.w3.org/2000/svg" xmlns:xlink="http://www.w3.org/1999/xlink" x="0px" y="0px"
	 viewBox="0 0 18 18" style="enable-background:new 0 0 18 18;" xml:space="preserve">
<style type="text/css">
	.st0{fill:#231F20;}
</style>
<path class="st0" d="M15.8,6.1l-3,1.6V5.5c0-0.8-0.7-1.5-1.5-1.5H3.7C2.9,4,2.2,4.7,2.2,5.5v7c0,0.8,0.7,1.5,1.5,1.5h7.6
	c0.8,0,1.5-0.7,1.5-1.5v-2l3,1.4V6.1z M11.8,12.5c0,0.3-0.2,0.5-0.5,0.5H3.7c-0.3,0-0.5-0.2-0.5-0.5v-7C3.2,5.2,3.4,5,3.7,5h7.6
	c0.3,0,0.5,0.2,0.5,0.5V12.5z"/>
</svg>
