<?xml version="1.0" encoding="utf-8"?>
<!-- Generator: Adobe Illustrator 19.2.1, SVG Export Plug-In . SVG Version: 6.00 Build 0)  -->
<svg version="1.1" id="Layer_1" xmlns="http://www.w3.org/2000/svg" xmlns:xlink="http://www.w3.org/1999/xlink" x="0px" y="0px"
	 viewBox="0 0 18 18" style="enable-background:new 0 0 18 18;" xml:space="preserve">
<g>
	<path d="M2.502,8.996c0-2.57,1.482-4.832,3.756-5.886L5.709,4.812L6.66,5.119l0.888-2.751c0.085-0.263-0.06-0.544-0.322-0.629
		L4.475,0.852L4.168,1.803l1.481,0.478C3.128,3.531,1.502,6.1,1.502,8.996c0,3.694,2.748,6.889,6.394,7.431l0.146-0.988
		C4.884,14.968,2.502,12.198,2.502,8.996z"/>
	<path d="M16.498,9.004c0-3.707-2.649-6.826-6.299-7.416l-0.16,0.986c3.163,0.513,5.459,3.216,5.459,6.43
		c0,2.57-1.482,4.832-3.756,5.886l0.549-1.702l-0.951-0.307l-0.888,2.751c-0.085,0.263,0.06,0.544,0.322,0.629l2.751,0.888
		l0.307-0.951l-1.481-0.478C14.872,14.469,16.498,11.9,16.498,9.004z"/>
</g>
</svg>
