<?xml version="1.0" encoding="utf-8"?>
<!-- Generator: Adobe Illustrator 19.2.1, SVG Export Plug-In . SVG Version: 6.00 Build 0)  -->
<svg version="1.1" id="Layer_1" xmlns="http://www.w3.org/2000/svg" xmlns:xlink="http://www.w3.org/1999/xlink" x="0px" y="0px"
	 viewBox="0 0 18 18" style="enable-background:new 0 0 18 18;" xml:space="preserve">
<style type="text/css">
	.st0{fill:#231F20;}
</style>
<path class="st0" d="M1.7,4.9L0.4,3.6C0.2,3.4,0.2,3,0.4,2.8c0.2-0.2,0.6-0.2,0.8,0l0.5,0.5l1.9-1.9c0.2-0.2,0.6-0.2,0.8,0
	c0.2,0.2,0.2,0.6,0,0.8L1.7,4.9z M17.8,3.3c0-0.3-0.3-0.6-0.6-0.6H7.6C7.3,2.8,7.1,3,7.1,3.3s0.3,0.6,0.6,0.6h9.5
	C17.5,3.9,17.8,3.7,17.8,3.3z M4.4,8.2c0.2-0.2,0.2-0.6,0-0.8c-0.2-0.2-0.6-0.2-0.8,0L1.7,9.2L1.2,8.7C1,8.5,0.6,8.5,0.4,8.7
	C0.2,9,0.2,9.3,0.4,9.6l1.3,1.3L4.4,8.2z M17.8,9.3c0-0.3-0.3-0.6-0.6-0.6H7.6C7.3,8.7,7.1,9,7.1,9.3s0.3,0.6,0.6,0.6h9.5
	C17.5,9.9,17.8,9.6,17.8,9.3z M4.4,14.1c0.2-0.2,0.2-0.6,0-0.8c-0.2-0.2-0.6-0.2-0.8,0l-1.9,1.9l-0.5-0.5c-0.2-0.2-0.6-0.2-0.8,0
	s-0.2,0.6,0,0.8l1.3,1.3L4.4,14.1z M17.8,15.2c0-0.3-0.3-0.6-0.6-0.6H7.6c-0.3,0-0.6,0.3-0.6,0.6c0,0.3,0.3,0.6,0.6,0.6h9.5
	C17.5,15.8,17.8,15.5,17.8,15.2z"/>
</svg>
