<?xml version="1.0" encoding="utf-8"?>
<!-- Generator: Adobe Illustrator 19.2.1, SVG Export Plug-In . SVG Version: 6.00 Build 0)  -->
<svg version="1.1" id="Layer_1" xmlns="http://www.w3.org/2000/svg" xmlns:xlink="http://www.w3.org/1999/xlink" x="0px" y="0px"
	 viewBox="0 0 18 18" style="enable-background:new 0 0 18 18;" xml:space="preserve">
<style type="text/css">
	.st0{fill:#231F20;}
</style>
<path class="st0" d="M3.288,5.549L2.192,4.454c-0.195-0.195-0.195-0.512,0-0.707s0.512-0.195,0.707,0l0.388,0.388L4.863,2.56
	c0.195-0.195,0.512-0.195,0.707,0s0.195,0.512,0,0.707L3.288,5.549z M15.954,4.2c0-0.276-0.224-0.5-0.5-0.5H7.35
	c-0.276,0-0.5,0.224-0.5,0.5s0.224,0.5,0.5,0.5h8.104C15.73,4.7,15.954,4.477,15.954,4.2z M5.57,8.305
	c0.195-0.195,0.195-0.512,0-0.707s-0.512-0.195-0.707,0L3.288,9.173L2.899,8.785c-0.195-0.195-0.512-0.195-0.707,0
	s-0.195,0.512,0,0.707l1.095,1.095L5.57,8.305z M15.954,9.238c0-0.276-0.224-0.5-0.5-0.5H7.35c-0.276,0-0.5,0.224-0.5,0.5
	s0.224,0.5,0.5,0.5h8.104C15.73,9.738,15.954,9.515,15.954,9.238z M5.57,13.305c0.195-0.195,0.195-0.512,0-0.707
	s-0.512-0.195-0.707,0l-1.575,1.575l-0.388-0.388c-0.195-0.195-0.512-0.195-0.707,0s-0.195,0.512,0,0.707l1.095,1.095L5.57,13.305z
	 M15.954,14.238c0-0.276-0.224-0.5-0.5-0.5H7.35c-0.276,0-0.5,0.224-0.5,0.5s0.224,0.5,0.5,0.5h8.104
	C15.73,14.738,15.954,14.515,15.954,14.238z"/>
</svg>
