<?xml version="1.0" encoding="utf-8"?>
<!-- Generator: Adobe Illustrator 18.1.1, SVG Export Plug-In . SVG Version: 6.00 Build 0)  -->
<svg version="1.1" id="Layer_1" xmlns="http://www.w3.org/2000/svg" xmlns:xlink="http://www.w3.org/1999/xlink" x="0px" y="0px" width="500px" height="500px"
	 viewBox="591 491 18 18" enable-background="new 591 491 18 18" xml:space="preserve">
<g>
	<g>
		<path d="M603.98,497.88h-0.5l-0.42,0.42c0.38,0.61,0.6,1.33,0.6,2.1c0,2.21-1.79,4-4,4c-2.21,0-4-1.79-4-4c0-2.21,1.79-4,4-4
			c0.71,0,1.38,0.19,1.96,0.51l0.44-0.44v-0.46c-0.71-0.39-1.53-0.61-2.4-0.61c-2.76,0-5,2.24-5,5s2.24,5,5,5s5-2.24,5-5
			C604.66,499.48,604.41,498.62,603.98,497.88z"/>
	</g>
</g>
<g>
	<g>
		<path d="M605.96,497.36l-0.51,0.51h-0.35c0.36,0.77,0.56,1.62,0.56,2.53c0,3.31-2.69,6-6,6c-3.31,0-6-2.69-6-6s2.69-6,6-6
			c0.86,0,1.67,0.18,2.41,0.5v-0.4l0.48-0.48c-0.88-0.4-1.86-0.62-2.89-0.62c-3.87,0-7,3.13-7,7s3.13,7,7,7s7-3.13,7-7
			C606.66,499.31,606.41,498.28,605.96,497.36z"/>
	</g>
</g>
<g>
	<g>
		<path d="M602.36,499l-0.76,0.76c0.06,0.2,0.1,0.42,0.1,0.64c0,1.13-0.91,2.04-2.04,2.04s-2.04-0.91-2.04-2.04s0.91-2.04,2.04-2.04
			c0.16,0,0.31,0.02,0.46,0.05l0.51-0.51l0.27-0.27c-0.38-0.18-0.8-0.27-1.24-0.27c-1.68,0-3.04,1.36-3.04,3.04s1.36,3.04,3.04,3.04
			c1.68,0,3.04-1.36,3.04-3.04C602.7,499.89,602.58,499.42,602.36,499z"/>
	</g>
</g>
<g>
	<g>
		<path d="M605.52,495.06l-0.49,0.01h-0.15v-0.65l0.01-1.82l-2.17,2.17v1.04l-0.01,0.63v0.3l-0.15,0.15l-0.35,0.35l-0.04,0.04
			l-0.69,0.69l-0.72,0.72l-0.78,0.78c-0.1-0.04-0.21-0.06-0.32-0.06c-0.24,0-0.47,0.09-0.64,0.24c-0.21,0.18-0.35,0.45-0.35,0.75
			c0,0.54,0.45,0.99,0.99,0.99c0.4,0,0.75-0.24,0.9-0.59c0.06-0.12,0.09-0.26,0.09-0.4c0-0.17-0.05-0.34-0.13-0.48l0.76-0.76
			l1.39-1.39l0.04-0.04l0.5-0.5h0.92l0.61-0.01h0.44l0.46-0.46l1.7-1.71L605.52,495.06z M603.42,496.03v-0.97l0.33-0.33h0.01
			l0.42-0.43v0.97l-0.6,0.6L603.42,496.03z M605.23,496.17l-0.35,0.35h-0.04l-0.6,0.01h-0.32l0.16-0.17h0.01l0.58-0.59h0.23
			l0.62-0.01h0.13L605.23,496.17z"/>
	</g>
</g>
</svg>
