<?xml version="1.0" encoding="utf-8"?>
<!-- Generator: Adobe Illustrator 18.1.1, SVG Export Plug-In . SVG Version: 6.00 Build 0)  -->
<svg version="1.1" id="Layer_1" xmlns="http://www.w3.org/2000/svg" xmlns:xlink="http://www.w3.org/1999/xlink" x="0px" y="0px"
	 viewBox="0 0 18 18" enable-background="new 0 0 18 18" xml:space="preserve">
<path fill="#231F20" d="M10.673,11.413c-0.141-0.077-0.288-0.16-0.422-0.243c-0.294-0.166-0.575-0.352-0.818-0.511
	c-0.774-0.511-1.477-1.074-2.039-1.624C6.722,8.37,6.319,7.776,6.255,7.36L6.236,7.226H6.102C5.961,7.22,5.82,7.22,5.686,7.22
	c-2.167,0-4.386,0.422-4.66,1.362C1.006,8.632,1,8.684,0.994,8.741v0.946c-0.013,0.211,0.07,0.422,0.243,0.62
	c0.703,0.806,2.896,1.451,5.453,1.617c0.416,0.026,0.818,0.038,1.215,0.038c1.016,0,1.963-0.089,2.723-0.256l0.422-0.09
	L10.673,11.413z M1.313,8.76C1.32,8.709,1.332,8.658,1.364,8.607c0.275-0.55,1.86-1.068,4.322-1.068h0.281
	C6.089,8.012,6.479,8.53,6.875,8.965c0.058,0.058,0.109,0.115,0.16,0.173l0.128,0.128c0.013,0.013,0.026,0.026,0.038,0.038
	c0,0,0,0,0.006,0c0.141,0.141,0.294,0.275,0.454,0.416c0.16,0.134,0.326,0.275,0.499,0.409c0.141,0.115,0.288,0.23,0.441,0.339
	c0.051,0.045,0.102,0.077,0.153,0.115c0.038,0.032,0.077,0.058,0.122,0.089c-0.684,0.038-1.419,0.038-2.161-0.013
	c-3.005-0.192-5.089-1.004-5.364-1.732c-0.026-0.057-0.038-0.109-0.038-0.16V8.76z M6.715,11.605
	c-2.442-0.153-4.597-0.774-5.236-1.502C1.358,9.962,1.307,9.834,1.313,9.7V9.451c0.831,0.825,3.158,1.387,5.377,1.528
	c0.409,0.026,0.812,0.038,1.208,0.038c0.486,0,0.959-0.019,1.4-0.057c0.237,0.147,0.511,0.326,0.786,0.486
	c0.019,0.013,0.038,0.019,0.051,0.032C9.164,11.637,7.956,11.682,6.715,11.605z M0.994,8.581v0.16C1,8.684,1.006,8.632,1.026,8.581
	H0.994z M12.846,6.977C10.973,5.858,9.087,5.167,7.93,5.167c-0.435,0-0.754,0.096-0.946,0.3C6.946,5.5,6.914,5.544,6.882,5.596
	C6.862,5.621,6.85,5.653,6.837,5.685L6.453,6.44c-0.62,1.036,1.624,3.139,4.059,4.584c1.873,1.119,3.759,1.809,4.916,1.809
	c0.524,0,0.876-0.141,1.055-0.435l0.422-0.838c0.013-0.019,0.026-0.045,0.038-0.07c0.006-0.025,0.019-0.051,0.026-0.077
	C17.321,10.333,15.167,8.357,12.846,6.977z M16.203,12.244c-0.134,0.224-0.499,0.269-0.774,0.269c-1.087,0-2.954-0.691-4.756-1.764
	C7.879,9.086,6.351,7.226,6.728,6.593l0.121-0.23c0.352,1.112,2.161,2.672,4.092,3.816c1.873,1.119,3.759,1.809,4.916,1.809
	c0.192,0,0.358-0.019,0.505-0.051L16.203,12.244z M16.631,11.401c-0.026,0.045-0.064,0.089-0.115,0.115
	c-0.166,0.128-0.435,0.153-0.659,0.153c-1.087,0-2.954-0.691-4.756-1.764C8.518,8.364,7.016,6.65,7.105,5.915
	C7.112,5.851,7.131,5.8,7.156,5.755C7.182,5.711,7.22,5.666,7.272,5.64C7.438,5.513,7.713,5.487,7.93,5.487
	c1.087,0,2.954,0.691,4.756,1.764c2.583,1.541,4.085,3.248,3.996,3.989C16.676,11.298,16.657,11.356,16.631,11.401z"/>
</svg>
