<?xml version="1.0" encoding="utf-8"?>
<!-- Generated by IcoMoon.io -->
<!DOCTYPE svg PUBLIC "-//W3C//DTD SVG 1.1//EN" "http://www.w3.org/Graphics/SVG/1.1/DTD/svg11.dtd">
<svg version="1.1" xmlns="http://www.w3.org/2000/svg" xmlns:xlink="http://www.w3.org/1999/xlink" width="32" height="32" viewBox="0 0 32 32">
<path fill="#444444" d="M23.876 20.551c-0.178 0.284-0.462 0.444-0.764 0.444-0.16 0-0.32-0.036-0.444-0.124l-5.778-3.342v6.684c0 0.48-0.391 0.889-0.889 0.889s-0.889-0.409-0.889-0.889v-6.667l-5.778 3.307c-0.142 0.071-0.302 0.107-0.444 0.107-0.32 0-0.622-0.142-0.782-0.444-0.249-0.427-0.089-0.96 0.338-1.209l5.778-3.307-5.778-3.342c-0.409-0.249-0.569-0.782-0.32-1.209s0.8-0.569 1.209-0.32l5.778 3.342v-6.684c0-0.48 0.391-0.889 0.889-0.889s0.889 0.409 0.889 0.889v6.667l5.778-3.307c0.427-0.249 0.978-0.107 1.227 0.338 0.249 0.427 0.089 0.96-0.338 1.209l-5.778 3.307 5.778 3.342c0.409 0.249 0.569 0.782 0.32 1.209z"></path>
</svg>
