<?xml version="1.0" encoding="utf-8"?>
<!-- Generated by IcoMoon.io -->
<!DOCTYPE svg PUBLIC "-//W3C//DTD SVG 1.1//EN" "http://www.w3.org/Graphics/SVG/1.1/DTD/svg11.dtd">
<svg version="1.1" xmlns="http://www.w3.org/2000/svg" xmlns:xlink="http://www.w3.org/1999/xlink" width="32" height="32" viewBox="0 0 32 32">
<path fill="#444444" d="M25.991 19.324c0.356 0 0.622-0.284 0.622-0.622 0-0.356-0.267-0.604-0.622-0.604h-2.258v-2.311h2.258c0.356 0 0.622-0.267 0.622-0.604 0-0.373-0.267-0.622-0.622-0.622h-2.258v-2.116c0-0.338-0.284-0.622-0.622-0.622s-0.622 0.284-0.622 0.622v2.116h-2.311v-2.116c0-0.338-0.284-0.622-0.622-0.622s-0.622 0.284-0.622 0.622v2.116h-2.311v-2.116c0-0.338-0.284-0.622-0.622-0.622s-0.622 0.284-0.622 0.622v2.116h-2.311v-2.116c0-0.338-0.284-0.622-0.622-0.622s-0.622 0.284-0.622 0.622v2.116h-2.311v-2.116c0-0.338-0.284-0.622-0.622-0.622s-0.622 0.284-0.622 0.622v2.116h-2.062c-0.338 0-0.622 0.249-0.622 0.622 0 0.338 0.284 0.604 0.622 0.604h2.062v2.311h-2.062c-0.338 0-0.622 0.249-0.622 0.604 0 0.338 0.284 0.622 0.622 0.622h2.062v2.347h-2.062c-0.338 0-0.622 0.249-0.622 0.622 0 0.338 0.284 0.604 0.622 0.604h2.062v2.027c0 0.373 0.284 0.64 0.622 0.64s0.622-0.267 0.622-0.64v-2.027h2.311v2.027c0 0.373 0.284 0.64 0.622 0.64s0.622-0.267 0.622-0.64v-2.027h2.311v2.027c0 0.373 0.284 0.64 0.622 0.64s0.622-0.267 0.622-0.64v-2.027h2.311v2.027c0 0.373 0.284 0.64 0.622 0.64s0.622-0.267 0.622-0.64v-2.027h2.311v2.027c0 0.373 0.284 0.64 0.622 0.64s0.622-0.267 0.622-0.64v-2.027h2.258c0.356 0 0.622-0.267 0.622-0.604 0-0.373-0.267-0.622-0.622-0.622h-2.258v-2.347h2.258zM11.822 21.671h-2.311v-2.347h2.311v2.347zM11.822 18.098h-2.311v-2.311h2.311v2.311zM15.378 21.671h-2.311v-2.347h2.311v2.347zM15.378 18.098h-2.311v-2.311h2.311v2.311zM18.933 21.671h-2.311v-2.347h2.311v2.347zM18.933 18.098h-2.311v-2.311h2.311v2.311zM22.489 21.671h-2.311v-2.347h2.311v2.347zM22.489 18.098h-2.311v-2.311h2.311v2.311z"></path>
<path fill="#444444" d="M22.169 4.516v-1.209c0-0.462-0.373-0.853-0.836-0.853s-0.836 0.391-0.836 0.853v1.209h-8.996v-1.209c0-0.462-0.373-0.853-0.836-0.853s-0.836 0.391-0.836 0.853v1.209h-8.053v25.031h28.444v-25.031h-8.053zM28.444 27.769h-24.889v-17.778h24.889v17.778zM28.444 8.213h-24.889v-1.92h6.276v0.498c0 0.462 0.373 0.853 0.836 0.853s0.836-0.391 0.836-0.853v-0.498h8.996v0.498c0 0.462 0.373 0.853 0.836 0.853s0.836-0.391 0.836-0.853v-0.498h6.276v1.92z"></path>
</svg>
