<?xml version="1.0" encoding="utf-8"?>
<!-- Generated by IcoMoon.io -->
<!DOCTYPE svg PUBLIC "-//W3C//DTD SVG 1.1//EN" "http://www.w3.org/Graphics/SVG/1.1/DTD/svg11.dtd">
<svg version="1.1" xmlns="http://www.w3.org/2000/svg" xmlns:xlink="http://www.w3.org/1999/xlink" width="32" height="32" viewBox="0 0 32 32">
<path fill="#444444" d="M17.467 16l8.336-8.336c0.349-0.349 0.349-0.918 0-1.267s-0.918-0.349-1.267 0l-8.336 8.336-8.336-8.336c-0.349-0.349-0.918-0.349-1.267 0s-0.349 0.918 0 1.267l8.336 8.336-8.336 8.336c-0.349 0.349-0.349 0.918 0 1.267 0.176 0.176 0.403 0.262 0.634 0.262s0.458-0.086 0.634-0.262l8.336-8.336 8.336 8.336c0.176 0.176 0.403 0.262 0.634 0.262s0.458-0.086 0.634-0.262c0.349-0.349 0.349-0.918 0-1.267l-8.336-8.336z"></path>
</svg>
