<?xml version="1.0" encoding="utf-8"?>
<!-- Generated by IcoMoon.io -->
<!DOCTYPE svg PUBLIC "-//W3C//DTD SVG 1.1//EN" "http://www.w3.org/Graphics/SVG/1.1/DTD/svg11.dtd">
<svg version="1.1" xmlns="http://www.w3.org/2000/svg" xmlns:xlink="http://www.w3.org/1999/xlink" width="32" height="32" viewBox="0 0 32 32">
<path fill="#444444" d="M8.684 28.574c-1.824 0-3.621-1.508-3.621-3.883v-5.968c0-1.074-0.491-2-1.508-2v-1.447c1.015 0 1.508-0.926 1.508-1.998v-5.94c0-2.405 1.797-3.911 3.621-3.911h1.767v1.593h-1.767c-1.044 0-1.911 0.955-1.911 2.318v6.112c0 1.218-0.377 2.144-1.333 2.549 0.956 0.407 1.333 1.333 1.333 2.551v6.112c0 1.332 0.868 2.318 1.911 2.318h1.767v1.593h-1.767z"></path>
<path fill="#444444" d="M12.444 24.889l5.333-17.778h1.778l-5.333 17.778h-1.778z"></path>
<path fill="#444444" d="M21.55 26.98h1.767c1.042 0 1.911-0.987 1.911-2.318v-6.112c0-1.218 0.377-2.144 1.333-2.551-0.956-0.405-1.333-1.332-1.333-2.549v-6.112c0-1.364-0.869-2.318-1.911-2.318h-1.767v-1.593h1.767c1.854 0 3.621 1.508 3.621 3.911v5.94c0 1.072 0.491 1.998 1.506 1.998v1.447c-1.013 0-1.506 0.926-1.506 2v5.968c0 2.375-1.767 3.883-3.621 3.883h-1.767v-1.593z"></path>
</svg>
