<?xml version="1.0" encoding="utf-8"?>
<!-- Generated by IcoMoon.io -->
<!DOCTYPE svg PUBLIC "-//W3C//DTD SVG 1.1//EN" "http://www.w3.org/Graphics/SVG/1.1/DTD/svg11.dtd">
<svg version="1.1" xmlns="http://www.w3.org/2000/svg" xmlns:xlink="http://www.w3.org/1999/xlink" width="32" height="32" viewBox="0 0 32 32">
<path fill="#444444" d="M29.102 14.347c0.018-0.053 0.018-0.107 0.018-0.16 0-1.404-1.44-2.453-3.609-3.147-0.018 0-0.053-0.018-0.071-0.018 0.036-0.053 0.071-0.107 0.089-0.178 0.036-0.071 0.036-0.142 0.036-0.213v-3.289c0-0.036 0-0.071-0.018-0.089v-0.018c0.018-0.053 0.018-0.107 0.018-0.16 0-5.547-22.684-5.547-22.684 0 0 0.053 0 0.107 0.018 0.16v0.018c-0.018 0.018-0.018 0.053-0.018 0.089v3.289c0 0.142 0.018 0.267 0.053 0.391 0.231 1.209 1.6 2.133 3.556 2.791-0.036 0.124-0.053 0.249-0.053 0.373 0 0.053 0 0.107 0.018 0.16v0.018c-0.018 0.018-0.018 0.053-0.018 0.089v3.289c0 0.142 0.018 0.267 0.053 0.391v0.018c-2.169 0.693-3.609 1.742-3.609 3.147 0 0.053 0 0.107 0.018 0.16v0.018c-0.018 0.018-0.018 0.053-0.018 0.089v3.289c0 0.142 0.018 0.267 0.053 0.391 0.516 2.524 5.938 3.84 11.289 3.84 5.636 0 11.342-1.458 11.342-4.231v-3.289c0-0.036 0-0.071-0.018-0.089v-0.018c0.018-0.053 0.018-0.107 0.018-0.16 0-0.124-0.018-0.249-0.053-0.373 2.151-0.729 3.609-1.778 3.609-3.182v-3.289c0-0.036 0-0.071-0.018-0.089v-0.018zM24.231 10.702c0 0-0.018-0.018-0.036 0-0.036 0.338-0.409 0.729-1.049 1.102-0.356 0.213-0.782 0.409-1.28 0.587v-2.116c0.924-0.302 1.724-0.658 2.347-1.084v1.44c0 0.018 0 0.053 0.018 0.071zM14.222 4.196c6.098 0 9.991 1.707 9.991 2.88s-3.893 2.88-9.991 2.88-9.991-1.707-9.991-2.88c0-1.173 3.893-2.88 9.991-2.88zM20.8 10.578v2.151c-0.729 0.196-1.564 0.373-2.489 0.498v-2.187c0.871-0.107 1.707-0.267 2.489-0.462zM17.244 11.164v2.204c-0.782 0.071-1.6 0.124-2.489 0.142v-2.222c0.836 0 1.671-0.053 2.489-0.124zM13.689 11.289v2.222c-0.889-0.018-1.707-0.071-2.489-0.142v-2.204c0.818 0.071 1.653 0.124 2.489 0.124zM7.644 12.729v-2.151c0.747 0.196 1.547 0.338 2.4 0.462 0.036 0 0.053-0.018 0.089-0.018v2.204c-0.444-0.053-0.871-0.124-1.28-0.213-0.427-0.089-0.836-0.178-1.209-0.284zM7.787 16.302c0.622 0.427 1.422 0.782 2.347 1.084v2.116c-0.498-0.178-0.924-0.373-1.28-0.587-0.64-0.373-1.013-0.764-1.049-1.102h-0.018v-1.511zM4.231 10.631v-1.44c0.622 0.427 1.422 0.782 2.347 1.084v2.116c-1.511-0.551-2.347-1.209-2.347-1.76zM4.231 24.853v-1.44c0.622 0.427 1.422 0.782 2.347 1.084v2.116c-1.511-0.551-2.347-1.209-2.347-1.76zM10.133 27.449c-0.924-0.124-1.76-0.302-2.489-0.498v-2.151c0.782 0.196 1.618 0.356 2.489 0.462v2.187zM13.689 27.733c-0.889-0.018-1.707-0.071-2.489-0.142v-2.204c0.818 0.071 1.653 0.124 2.489 0.124v2.222zM17.244 27.591c-0.782 0.071-1.6 0.124-2.489 0.142v-2.222c0.836 0 1.671-0.053 2.489-0.124v2.204zM20.8 26.951c-0.729 0.196-1.564 0.373-2.489 0.498v-2.187c0.871-0.107 1.707-0.267 2.489-0.462v2.151zM24.213 24.853c0 0.551-0.836 1.209-2.347 1.76v-2.116c0.924-0.302 1.724-0.658 2.347-1.084v1.44zM24.213 21.298c0 1.173-3.893 2.88-9.991 2.88s-9.991-1.707-9.991-2.88c0-0.622 1.067-1.369 2.951-1.956 1.724 1.742 6.187 2.631 10.596 2.631 2.258 0 4.516-0.231 6.436-0.693v0.018zM11.2 19.84v-2.151c0.782 0.196 1.618 0.356 2.489 0.462v2.187c-0.924-0.124-1.76-0.302-2.489-0.498zM14.756 20.48v-2.204c0.818 0.071 1.653 0.124 2.489 0.124v2.222c-0.889-0.018-1.707-0.071-2.489-0.142zM18.311 20.622v-2.222c0.836 0 1.671-0.053 2.489-0.124v2.204c-0.782 0.071-1.6 0.124-2.489 0.142zM24.356 19.84c-0.373 0.107-0.782 0.196-1.209 0.284-0.409 0.089-0.836 0.16-1.28 0.213v-2.204c0.036 0 0.053 0.018 0.089 0.018 0.853-0.124 1.653-0.267 2.4-0.462v2.151zM27.769 17.742c0 0.551-0.836 1.209-2.347 1.76v-2.116c0.924-0.302 1.724-0.658 2.347-1.084v1.44zM17.778 17.067c-6.098 0-9.991-1.707-9.991-2.88v-0.018c1.92 0.462 4.178 0.693 6.436 0.693 4.409 0 8.871-0.889 10.596-2.631 1.884 0.587 2.951 1.333 2.951 1.956 0 1.173-3.893 2.88-9.991 2.88z"></path>
<path fill="#444444" d="M24.231 10.702c0 0-0.018-0.018-0.036 0 0.018-0.018 0.018-0.053 0.018-0.071 0 0.018 0 0.053 0.018 0.071z"></path>
<path fill="#444444" d="M25.529 10.844c0.018 0.071 0 0.142-0.018 0.196-0.018 0-0.053-0.018-0.071-0.018 0.036-0.053 0.071-0.107 0.089-0.178z"></path>
<path fill="#444444" d="M10.044 11.040h0.089v-0.018c-0.036 0-0.053 0.018-0.089 0.018z"></path>
<path fill="#444444" d="M2.933 11.022c-0.036-0.089-0.053-0.178-0.053-0.267v-0.124c0 0.142 0.018 0.267 0.053 0.391z"></path>
</svg>
