<?xml version="1.0" encoding="utf-8"?>
<!-- Generated by IcoMoon.io -->
<!DOCTYPE svg PUBLIC "-//W3C//DTD SVG 1.1//EN" "http://www.w3.org/Graphics/SVG/1.1/DTD/svg11.dtd">
<svg version="1.1" xmlns="http://www.w3.org/2000/svg" xmlns:xlink="http://www.w3.org/1999/xlink" width="32" height="32" viewBox="0 0 32 32">
<path fill="#444444" d="M16 17.956c-0.533 0-0.889-0.356-0.889-0.889v-8.711c0-0.533 0.356-0.889 0.889-0.889s0.889 0.356 0.889 0.889v8.533c0 0.533-0.356 1.067-0.889 1.067z"></path>
<path fill="#444444" d="M16 24.711c-0.533 0-0.889-0.356-0.889-0.889v-1.067c0-0.533 0.356-0.889 0.889-0.889s0.889 0.356 0.889 0.889v1.067c0 0.533-0.356 0.889-0.889 0.889z"></path>
<path fill="#444444" d="M16 3.556c6.933 0 12.444 5.511 12.444 12.444s-5.511 12.444-12.444 12.444-12.444-5.511-12.444-12.444 5.511-12.444 12.444-12.444zM16 1.778c-7.822 0-14.222 6.4-14.222 14.222s6.4 14.222 14.222 14.222 14.222-6.4 14.222-14.222-6.4-14.222-14.222-14.222v0z"></path>
</svg>
