<?xml version="1.0" encoding="utf-8"?>
<!-- Generator: Adobe Illustrator 18.1.1, SVG Export Plug-In . SVG Version: 6.00 Build 0)  -->
<svg version="1.1" id="Layer_1" xmlns="http://www.w3.org/2000/svg" xmlns:xlink="http://www.w3.org/1999/xlink" x="0px" y="0px"
	 viewBox="189.425 295.725 18 18" enable-background="new 189.425 295.725 18 18" xml:space="preserve">
<g>
	<g>
		<path d="M198.425,297.717c3.864,0,7.008,3.144,7.008,7.008c0,3.864-3.144,7.008-7.008,7.008s-7.008-3.144-7.008-7.008
			C191.417,300.861,194.561,297.717,198.425,297.717 M198.425,296.717c-4.423,0-8.008,3.585-8.008,8.008
			c0,4.423,3.585,8.008,8.008,8.008s8.008-3.585,8.008-8.008C206.433,300.302,202.848,296.717,198.425,296.717L198.425,296.717z"/>
	</g>
</g>
<g>
	<path d="M199.111,309.704h-1.923c-0.193,0-0.35-0.156-0.35-0.35v-4.277h-0.564c-0.193,0-0.35-0.156-0.35-0.35v-1.634
		c0-0.193,0.156-0.35,0.35-0.35h0.564v-0.709c0-1.057,0.6-2.29,2.29-2.29l1.425,0.006c0.193,0,0.349,0.157,0.349,0.35v1.587
		c0,0.193-0.156,0.35-0.35,0.35h-1.033c-0.044,0.007-0.059,0.028-0.059,0.096v0.611h1.116c0.099,0,0.193,0.042,0.26,0.115
		s0.099,0.172,0.089,0.271l-0.168,1.634c-0.019,0.178-0.169,0.313-0.349,0.313h-0.948v4.277
		C199.46,309.548,199.304,309.704,199.111,309.704z M197.537,309.005h1.224v-4.277c0-0.193,0.156-0.35,0.35-0.35h0.982l0.096-0.935
		h-1.078c-0.193,0-0.35-0.156-0.35-0.35v-0.961c0-0.55,0.381-0.795,0.758-0.795h0.684v-0.889l-1.075-0.005
		c-1.435,0-1.59,1.112-1.59,1.591v1.059c0,0.193-0.156,0.35-0.35,0.35h-0.564v0.935h0.564c0.193,0,0.35,0.156,0.35,0.35V309.005z"/>
</g>
</svg>
