<?xml version="1.0" encoding="utf-8"?>
<!-- Generator: Adobe Illustrator 18.1.1, SVG Export Plug-In . SVG Version: 6.00 Build 0)  -->
<svg version="1.1" id="Layer_1" xmlns="http://www.w3.org/2000/svg" xmlns:xlink="http://www.w3.org/1999/xlink" x="0px" y="0px"
	 viewBox="189.425 295.725 18 18" enable-background="new 189.425 295.725 18 18" xml:space="preserve">
<g>
	<path d="M198.425,297.717c3.864,0,7.008,3.144,7.008,7.008c0,3.864-3.144,7.008-7.008,7.008s-7.008-3.144-7.008-7.008
		C191.417,300.861,194.561,297.717,198.425,297.717 M198.425,296.717c-4.423,0-8.008,3.585-8.008,8.008
		c0,4.423,3.585,8.008,8.008,8.008s8.008-3.585,8.008-8.008C206.433,300.302,202.848,296.717,198.425,296.717L198.425,296.717z"/>
</g>
<path d="M200.408,304.728h-1.298c0,2.073,0,4.626,0,4.626h-1.923c0,0,0-2.527,0-4.626h-0.914v-1.634h0.914v-1.058
	c0-0.757,0.359-1.941,1.94-1.941l1.424,0.006v1.587c0,0-0.866,0-1.034,0c-0.168,0-0.408,0.084-0.408,0.445v0.961h1.466
	L200.408,304.728z"/>
</svg>
