<?xml version="1.0" encoding="utf-8"?>
<!-- Generator: Adobe Illustrator 18.1.1, SVG Export Plug-In . SVG Version: 6.00 Build 0)  -->
<svg version="1.1" id="Layer_1" xmlns="http://www.w3.org/2000/svg" xmlns:xlink="http://www.w3.org/1999/xlink" x="0px" y="0px"
	 viewBox="541 647.5 18 18" enable-background="new 541 647.5 18 18" xml:space="preserve">
<g>
	<g>
		<path d="M550.723,654.762c0.958,0.399,1.413,1.503,1.014,2.461c-0.399,0.958-1.503,1.413-2.461,1.014
			c-0.958-0.399-1.413-1.503-1.014-2.461C548.661,654.818,549.765,654.363,550.723,654.762 M551.085,653.893
			c-1.44-0.599-3.093,0.082-3.692,1.522c-0.599,1.44,0.082,3.092,1.522,3.692c1.44,0.599,3.092-0.082,3.692-1.522
			C553.206,656.146,552.525,654.493,551.085,653.893L551.085,653.893z"/>
	</g>
	<g>
		<path d="M546.925,663.886c-0.272-0.113-0.531-0.241-0.783-0.38l-0.33-0.182l0.557-1.903c-0.502-0.368-0.939-0.806-1.305-1.308
			l-1.903,0.551l-0.18-0.332c-0.279-0.513-0.501-1.053-0.661-1.606l-0.105-0.362l1.737-0.949c-0.094-0.614-0.092-1.233,0.005-1.848
			l-1.74-0.958l0.108-0.363c0.082-0.276,0.176-0.549,0.288-0.819c0.113-0.271,0.241-0.53,0.378-0.781l0.181-0.333l1.906,0.559
			c0.368-0.502,0.806-0.939,1.308-1.305l-0.55-1.902l0.331-0.181c0.505-0.277,1.044-0.499,1.605-0.663l0.363-0.106l0.95,1.738
			c0.612-0.093,1.232-0.092,1.848,0.005l0.958-1.737l0.362,0.106c0.552,0.162,1.1,0.39,1.604,0.668l0.33,0.182l-0.557,1.903
			c0.502,0.368,0.939,0.806,1.305,1.308l1.903-0.551l0.18,0.332c0.279,0.513,0.501,1.053,0.661,1.606l0.105,0.362l-1.737,0.949
			c0.094,0.614,0.092,1.233-0.005,1.848l1.739,0.959l-0.108,0.363c-0.081,0.275-0.175,0.548-0.288,0.819
			c-0.112,0.27-0.24,0.529-0.378,0.781l-0.181,0.333l-1.906-0.559c-0.368,0.502-0.806,0.939-1.308,1.305l0.55,1.902l-0.331,0.181
			c-0.505,0.277-1.044,0.499-1.605,0.663l-0.363,0.106l-0.95-1.738c-0.614,0.094-1.233,0.092-1.848-0.005l-0.958,1.737l-0.362-0.106
			C547.47,664.093,547.197,663.999,546.925,663.886z M546.93,662.856c0.234,0.113,0.478,0.215,0.723,0.301l0.922-1.672l0.342,0.074
			c0.715,0.154,1.438,0.157,2.15,0.006l0.342-0.073l0.913,1.671c0.247-0.086,0.49-0.186,0.725-0.299l-0.53-1.829l0.294-0.189
			c0.611-0.395,1.123-0.906,1.521-1.519l0.192-0.293l1.831,0.538c0.057-0.117,0.111-0.236,0.161-0.357
			c0.051-0.121,0.096-0.244,0.139-0.366l-1.672-0.922l0.074-0.342c0.154-0.715,0.157-1.438,0.006-2.15l-0.073-0.342l1.671-0.913
			c-0.086-0.246-0.186-0.489-0.299-0.725l-1.829,0.529l-0.189-0.294c-0.395-0.611-0.906-1.123-1.519-1.521l-0.293-0.191l0.536-1.832
			c-0.233-0.115-0.477-0.217-0.723-0.301l-0.921,1.67l-0.342-0.074c-0.718-0.153-1.441-0.155-2.149-0.005l-0.343,0.073l-0.913-1.671
			c-0.247,0.086-0.49,0.186-0.725,0.299l0.53,1.829l-0.294,0.189c-0.611,0.395-1.123,0.906-1.521,1.519l-0.191,0.293l-1.832-0.537
			c-0.057,0.117-0.111,0.236-0.161,0.357c-0.051,0.121-0.096,0.244-0.139,0.366l1.672,0.92l-0.073,0.343
			c-0.154,0.715-0.157,1.438-0.006,2.15l0.073,0.342l-1.671,0.913c0.086,0.246,0.186,0.489,0.299,0.725l1.829-0.529l0.189,0.294
			c0.395,0.611,0.906,1.123,1.519,1.521l0.293,0.191L546.93,662.856z"/>
	</g>
</g>
</svg>
