<?xml version="1.0" encoding="utf-8"?>
<!-- Generated by IcoMoon.io -->
<!DOCTYPE svg PUBLIC "-//W3C//DTD SVG 1.1//EN" "http://www.w3.org/Graphics/SVG/1.1/DTD/svg11.dtd">
<svg version="1.1" xmlns="http://www.w3.org/2000/svg" xmlns:xlink="http://www.w3.org/1999/xlink" width="32" height="32" viewBox="0 0 32 32">
<path fill="#444444" d="M16 1.76c-7.858 0-14.24 6.382-14.24 14.24s6.382 14.24 14.24 14.24 14.24-6.382 14.24-14.24c0-7.858-6.382-14.24-14.24-14.24zM24.444 8.871c-0.587 0.249-1.227 0.391-1.849 0.391h-0.089c-0.107 0-0.16-0.053-0.124-0.196 0.231-0.249 1.067-0.48 1.6-0.48 0.124 0 0.231 0 0.32 0.036 0.107 0.018 0.196 0.16 0.142 0.249zM5.369 11.787c0.124-0.213 0.302-0.516 0.444-0.889 0.231-0.658 0.231-1.28 0.231-1.778 0-0.231 0-0.444 0.036-0.622 0.604-0.836 1.333-1.564 2.151-2.204 0.249-0.124 0.48-0.142 0.836-0.142h0.427l0.142 0.018h0.391c-0.053 0.231-0.036 0.48 0.036 0.747 0.196 0.818 0.889 1.333 1.742 1.333 0.427 0 0.8-0.107 1.049-0.196 0.427-0.124 0.782-0.32 1.067-0.462 0.284-0.16 0.462-0.249 0.587-0.249 0.053 0 0.107 0.018 0.196 0.036 0.142 0.036 0.231 0.124 0.284 0.213-0.071 0.018-0.142 0.036-0.196 0.036-0.196 0.036-0.373 0.089-0.569 0.124-1.404 0.373-2.364 1.333-3.2 2.187-0.604 0.587-1.156 1.156-1.707 1.369-0.107 0.018-0.231 0.018-0.373 0.036-0.622 0.036-1.564 0.089-2.151 0.853-0.16 0.196-0.338 0.498-0.391 0.907-0.427-0.373-0.853-0.782-1.084-1.138 0-0.018-0.018-0.036-0.018-0.036 0.018-0.053 0.053-0.089 0.071-0.142zM16 28.462c-6.862 0-12.462-5.6-12.462-12.462 0-1.227 0.178-2.418 0.533-3.538 0.036 0.071 0.071 0.16 0.124 0.231 0.462 0.729 1.351 1.44 2.027 1.991 0.907 0.729 2.062 1.44 3.253 1.582 0.178 0.018 0.32 0.036 0.427 0.036 0.569 0 0.427-0.284-0.16-0.924-0.462-0.516-1.884-1.084-2.009-1.76-0.231-1.209 1.387-0.8 2.027-1.049 1.831-0.729 2.827-2.987 4.8-3.52 0.836-0.231 1.689-0.124 1.796-1.262 0.089-0.8-0.533-1.458-1.244-1.671-0.231-0.071-0.427-0.107-0.604-0.107-0.764 0-1.262 0.533-2.044 0.782-0.142 0.036-0.409 0.124-0.658 0.124-0.196 0-0.391-0.071-0.444-0.32-0.107-0.427 0.284-0.48 0.48-0.782 0.462-0.693-0.533-0.907-1.369-0.96 1.671-0.853 3.538-1.316 5.529-1.316 2.613 0 5.049 0.818 7.040 2.204-0.249 0.284-0.391 0.64-0.267 1.031 0.178 0.64 1.316 0.551 1.369 0.924-0.622 0.142-4.107 0.498-3.147 1.831 0.356 0.587 0.907 0.782 1.493 0.782 0.676 0 1.387-0.249 1.92-0.427 0.444-0.142 0.693-0.249 1.067-0.249 0.124 0 0.249 0 0.409 0.036 0.284 0.036 0.658 0.249 1.031 0.356 0.391 0.676 0.693 1.387 0.924 2.133-0.089-0.018-0.178-0.018-0.267-0.018-0.231 0-0.48 0.018-0.711 0.018-0.107 0-0.213 0-0.302-0.018-1.067-0.089-1.013-0.836-1.707-1.173-0.196-0.107-0.427-0.142-0.658-0.142-0.676 0-1.458 0.302-2.009 0.444-1.387 0.338-1.813 0.587-2.293 1.956-0.604 1.618-0.16 3.36 1.689 3.502h0.089c0.427 0 1.013-0.178 1.529-0.178 0.32 0 0.604 0.071 0.818 0.284 0.356 0.391 0 0.729 0.196 1.156 0.231 0.498 0.658 0.533 0.711 1.173 0.071 0.942-0.818 1.351-0.48 2.311 0.124 0.32 0.516 0.693 0.676 1.049 0.16 0.338 0.16 0.729 0.427 1.031 0.053 0.071 0.124 0.142 0.178 0.178-2.258 2.88-5.778 4.729-9.724 4.729zM26.329 21.956c-0.142-0.284-0.302-0.516-0.462-0.729-0.053-0.071-0.107-0.124-0.142-0.196 0.018-0.053 0.071-0.142 0.107-0.213 0.196-0.391 0.48-0.96 0.409-1.778-0.071-0.853-0.498-1.298-0.747-1.529 0.036-0.356 0.053-0.996-0.516-1.6-0.444-0.462-1.049-0.693-1.778-0.693-0.391 0-0.747 0.053-1.049 0.107-0.178 0.036-0.338 0.071-0.48 0.071-0.409-0.036-0.516-0.196-0.551-0.249-0.16-0.249-0.231-0.8 0.018-1.476 0.302-0.853 0.302-0.853 1.369-1.12 0.16-0.036 0.338-0.089 0.516-0.142 0.373-0.107 0.853-0.249 1.173-0.249 0.018 0 0.053 0 0.053 0 0.018 0 0.018 0 0.018 0 0.036 0.036 0.089 0.107 0.142 0.178 0.284 0.356 0.818 1.031 2.044 1.138 0.124 0 0.267 0.018 0.409 0.018 0.124 0 0.267 0 0.391-0.018h0.462c0.693 2.756 0.196 5.831-1.351 8.551-0.018-0.036-0.036-0.053-0.036-0.071z"></path>
<path fill="#444444" d="M12.267 16.629c0.103 0 0.286 0.014 0.565 0.085 0.478 0.121 0.905 0.446 1.399 0.825 0.489 0.373 1.042 0.796 1.744 1.088 0.583 0.242 0.734 0.42 0.748 0.42v0c-0.002 0.032-0.023 0.19-0.231 0.523-0.167 0.267-0.332 0.539-0.498 0.811-0.535 0.878-1.090 1.788-1.691 2.542-0.213 0.268-0.437 0.549-0.633 0.88-0.005-0.224 0-0.464 0.004-0.709 0.016-0.981 0.036-2.092-0.475-3.102-0.372-0.738-0.93-1.058-1.262-1.252-0.076-0.044-0.181-0.105-0.206-0.128-0.076-0.092-0.092-0.112 0.004-0.782 0.146-1.022 0.35-1.175 0.352-1.177 0.002 0 0.048-0.023 0.18-0.023v0zM12.267 15.296c-1.211 0-1.641 0.891-1.851 2.343-0.101 0.709-0.196 1.237 0.29 1.822 0.396 0.478 0.971 0.468 1.305 1.129 0.606 1.202 0.153 2.887 0.421 4.196 0.089 0.432 0.967 3.042 1.838 3.042 0.112 0 0.226-0.043 0.336-0.14 0.405-0.357-0.146-1.516-0.135-1.957 0.021-0.876 0.357-1.324 0.876-1.975 0.844-1.060 1.554-2.318 2.277-3.479 0.901-1.442 0.336-2.268-1.14-2.88-1.225-0.507-1.995-1.636-3.328-1.973-0.334-0.085-0.631-0.126-0.891-0.126v0z"></path>
</svg>
