<?xml version="1.0" encoding="utf-8"?>
<!-- Generated by IcoMoon.io -->
<!DOCTYPE svg PUBLIC "-//W3C//DTD SVG 1.1//EN" "http://www.w3.org/Graphics/SVG/1.1/DTD/svg11.dtd">
<svg version="1.1" xmlns="http://www.w3.org/2000/svg" xmlns:xlink="http://www.w3.org/1999/xlink" width="32" height="32" viewBox="0 0 32 32">
<path fill="#444444" d="M25.388 10.222h-18.777c-0.736 0-1.333-0.597-1.333-1.333s0.597-1.333 1.333-1.333h18.777c0.736 0 1.333 0.597 1.333 1.333s-0.597 1.333-1.333 1.333z"></path>
<path fill="#444444" d="M25.388 17.333h-18.777c-0.736 0-1.333-0.597-1.333-1.333s0.597-1.333 1.333-1.333h18.777c0.736 0 1.333 0.597 1.333 1.333s-0.597 1.333-1.333 1.333z"></path>
<path fill="#444444" d="M25.388 24.444h-18.777c-0.736 0-1.333-0.597-1.333-1.333s0.597-1.333 1.333-1.333h18.777c0.736 0 1.333 0.597 1.333 1.333s-0.597 1.333-1.333 1.333z"></path>
</svg>
