<?xml version="1.0" encoding="utf-8"?>
<!-- Generator: Adobe Illustrator 18.1.1, SVG Export Plug-In . SVG Version: 6.00 Build 0)  -->
<svg version="1.1" id="Layer_1" xmlns="http://www.w3.org/2000/svg" xmlns:xlink="http://www.w3.org/1999/xlink" x="0px" y="0px"
	 viewBox="189.425 295.725 18 18" enable-background="new 189.425 295.725 18 18" xml:space="preserve">
<g>
	<path d="M198.425,297.717c3.864,0,7.008,3.144,7.008,7.008c0,3.864-3.144,7.008-7.008,7.008s-7.008-3.144-7.008-7.008
		C191.417,300.861,194.561,297.717,198.425,297.717 M198.425,296.717c-4.423,0-8.008,3.585-8.008,8.008
		c0,4.423,3.585,8.008,8.008,8.008s8.008-3.585,8.008-8.008C206.433,300.302,202.848,296.717,198.425,296.717L198.425,296.717z"/>
</g>
<g>
	<path d="M198.912,304.128v-0.017c-0.003,0.006-0.007,0.012-0.011,0.017H198.912z"/>
	<path d="M196.206,308.61h-1.743v-5.242h1.743V308.61z M195.334,302.652h-0.011c-0.585,0-0.963-0.403-0.963-0.906
		c0-0.514,0.39-0.906,0.985-0.906c0.596,0,0.964,0.392,0.975,0.906C196.32,302.249,195.942,302.652,195.334,302.652z M202.49,308.61
		h-1.743v-2.805c0-0.705-0.252-1.186-0.883-1.186c-0.481,0-0.768,0.326-0.894,0.638c-0.046,0.112-0.058,0.267-0.058,0.425v2.928
		h-1.742c0,0,0.022-4.751,0-5.242h1.742v0.742c0.232-0.358,0.646-0.865,1.571-0.865c1.146,0,2.007,0.748,2.007,2.359V308.61z"/>
</g>
</svg>
