<?xml version="1.0" encoding="utf-8"?>
<!-- Generator: Adobe Illustrator 18.1.1, SVG Export Plug-In . SVG Version: 6.00 Build 0)  -->
<svg version="1.1" id="Layer_1" xmlns="http://www.w3.org/2000/svg" xmlns:xlink="http://www.w3.org/1999/xlink" x="0px" y="0px"
	 viewBox="0 0 18 18" enable-background="new 0 0 18 18" xml:space="preserve">
<g>
	<g>
		<path d="M9.9988995,11.0941925c-0.4695272,0.0329037-0.955246-0.0518885-1.3832731-0.2217321l-0.9681339,0.9681339
			c-0.4425411,0.4425411-1.1755729,0.47157-1.618104,0.0290384l0.0024467,0.0024471
			c-0.4425311-0.4425316-0.3215609-1.083622,0.1209798-1.5261631L8.284585,8.2141476
			C8.7271156,7.771616,9.3967829,7.7212124,9.8393135,8.163743c0.1053963,0.1053963,0.0625343,0.042182,0.1177254,0.1715631
			c0.0111084-0.0091648-0.0104055,0.0104055,0,0l0.7976694-0.7976699c0.0184803-0.0184798-0.1147451-0.1718383-0.2172203-0.2743144
			c-0.8832674-0.8832669-2.2664423-0.829248-3.1497097,0.054019L5.2560086,9.449111
			c-0.8832669,0.8832664-0.8865209,2.3171873-0.0032539,3.2004547c0.8832669,0.8832664,2.3155756,0.8784008,3.1988425-0.0048666"/>
	</g>
	<g>
		<path d="M8.9249697,5.8776579c0.4695263-0.0329032,1.0007954,0.0974383,1.4288225,0.267282l0.9681339-0.9681339
			c0.4425411-0.4425411,1.1437359-0.6219301,1.5862665-0.179399l-0.0024462-0.0024471
			c0.4425306,0.4425316,0.3533974,1.2339826-0.0891428,1.6765232l-2.1317701,2.1317701
			C10.2423029,9.2457838,9.5270863,9.250639,9.0845556,8.8081074C8.9791594,8.7027121,8.8500385,8.5323429,8.7948475,8.4029617
			c-0.0111084,0.0091648-0.0709982-0.0302086-0.0814037-0.019803L7.9157743,9.180829
			C8.1962299,9.4982443,8.179987,9.5021343,8.2824631,9.6046104c0.8832664,0.8832674,2.4159098,0.9787159,3.2991772,0.0954485
			l2.1317692-2.1317692c0.8832674-0.8832674,0.8409719-2.3627377-0.0422955-3.2460046
			c-0.8832664-0.8832669-2.3155756-0.8784008-3.198842,0.0048661"/>
	</g>
</g>
</svg>
