<?xml version="1.0" encoding="utf-8"?>
<!-- Generated by IcoMoon.io -->
<!DOCTYPE svg PUBLIC "-//W3C//DTD SVG 1.1//EN" "http://www.w3.org/Graphics/SVG/1.1/DTD/svg11.dtd">
<svg version="1.1" xmlns="http://www.w3.org/2000/svg" xmlns:xlink="http://www.w3.org/1999/xlink" width="32" height="32" viewBox="0 0 32 32">
<path fill="#444444" d="M7.111 5.333c0 1.067-0.711 1.778-1.778 1.778s-1.778-0.711-1.778-1.778 0.711-1.778 1.778-1.778 1.778 0.711 1.778 1.778zM5.333 10.667c-1.067 0-1.778 0.711-1.778 1.778s0.711 1.778 1.778 1.778 1.778-0.711 1.778-1.778-0.889-1.778-1.778-1.778zM5.333 17.778c-1.067 0-1.778 0.711-1.778 1.778s0.711 1.778 1.778 1.778 1.778-0.711 1.778-1.778-0.889-1.778-1.778-1.778zM5.333 24.889c-1.067 0-1.778 0.711-1.778 1.778s0.711 1.778 1.778 1.778 1.778-0.711 1.778-1.778-0.889-1.778-1.778-1.778zM28.444 5.333c0-0.533-0.356-0.889-0.889-0.889h-16c-0.533 0-0.889 0.356-0.889 0.889s0.356 0.889 0.889 0.889h16.178c0.356 0 0.711-0.356 0.711-0.889zM28.444 12.444c0-0.533-0.356-0.889-0.889-0.889h-16c-0.533 0-0.889 0.356-0.889 0.889s0.356 0.889 0.889 0.889h16.178c0.356 0 0.711-0.356 0.711-0.889zM28.444 19.556c0-0.533-0.356-0.889-0.889-0.889h-16c-0.533 0-0.889 0.356-0.889 0.889s0.356 0.889 0.889 0.889h16.178c0.356 0 0.711-0.356 0.711-0.889zM28.444 26.667c0-0.533-0.356-0.889-0.889-0.889h-16c-0.533 0-0.889 0.356-0.889 0.889s0.356 0.889 0.889 0.889h16.178c0.356 0 0.711-0.356 0.711-0.889z"></path>
</svg>
