<?xml version="1.0" encoding="utf-8"?>
<!-- Generated by IcoMoon.io -->
<!DOCTYPE svg PUBLIC "-//W3C//DTD SVG 1.1//EN" "http://www.w3.org/Graphics/SVG/1.1/DTD/svg11.dtd">
<svg version="1.1" xmlns="http://www.w3.org/2000/svg" xmlns:xlink="http://www.w3.org/1999/xlink" width="32" height="32" viewBox="0 0 32 32">
<path fill="#444444" d="M23.111 14.222v-4c0-3.68-3.431-6.667-7.111-6.667s-7.111 2.987-7.111 6.667v4h-3.556v14.222h21.333v-14.222h-3.556zM10.667 10.222c0-2.596 2.489-4.889 5.333-4.889s5.333 2.293 5.333 4.889v4h-10.667v-4zM24.889 26.667h-17.778v-10.667h17.778v10.667z"></path>
<path fill="#444444" d="M18.844 19.84c0-0.818-0.356-1.547-0.907-2.062-0.498-0.48-1.191-0.782-1.938-0.782s-1.44 0.302-1.938 0.782c-0.551 0.516-0.907 1.244-0.907 2.062s0.356 1.547 0.907 2.062l-0.196 2.809h4.302l-0.302-2.738c0.604-0.516 0.978-1.28 0.978-2.133zM16.462 21.191v0.729l0.089 0.711 0.071 0.693h-1.262l0.053-0.693 0.036-0.711v-0.764c-0.302-0.107-0.569-0.338-0.729-0.622-0.107-0.196-0.178-0.444-0.178-0.693 0-0.8 0.658-1.458 1.458-1.458s1.458 0.658 1.458 1.458c0 0.249-0.071 0.498-0.178 0.693-0.178 0.32-0.462 0.551-0.818 0.658z"></path>
</svg>
