<?xml version="1.0" encoding="utf-8"?>
<!-- Generated by IcoMoon.io -->
<!DOCTYPE svg PUBLIC "-//W3C//DTD SVG 1.1//EN" "http://www.w3.org/Graphics/SVG/1.1/DTD/svg11.dtd">
<svg version="1.1" xmlns="http://www.w3.org/2000/svg" xmlns:xlink="http://www.w3.org/1999/xlink" width="32" height="32" viewBox="0 0 32 32">
<path fill="#444444" d="M16 3.556c6.933 0 12.444 5.511 12.444 12.444s-5.511 12.444-12.444 12.444-12.444-5.511-12.444-12.444 5.511-12.444 12.444-12.444zM16 1.778c-7.822 0-14.222 6.4-14.222 14.222s6.4 14.222 14.222 14.222 14.222-6.4 14.222-14.222-6.4-14.222-14.222-14.222v0z"></path>
<path fill="#444444" d="M16 24.711c-0.533 0-0.889-0.356-0.889-0.889v-1.067c0-0.533 0.356-0.889 0.889-0.889s0.889 0.356 0.889 0.889v1.067c0 0.356-0.356 0.889-0.889 0.889z"></path>
<path fill="#444444" d="M16 19.556c-0.533 0-0.889-0.356-0.889-0.889v-2.844h0.889c1.956 0 3.556-1.6 3.556-3.556s-1.6-3.556-3.556-3.556-3.556 1.6-3.556 3.556c0 0.533-0.356 0.889-0.889 0.889s-0.711-0.356-0.711-0.889c0-2.844 2.311-5.156 5.156-5.156s5.156 2.311 5.156 5.156c0 2.489-1.956 4.8-4.267 5.156v1.244c0 0.533-0.356 0.889-0.889 0.889z"></path>
</svg>
