<?xml version="1.0" encoding="utf-8"?>
<!-- Generated by IcoMoon.io -->
<!DOCTYPE svg PUBLIC "-//W3C//DTD SVG 1.1//EN" "http://www.w3.org/Graphics/SVG/1.1/DTD/svg11.dtd">
<svg version="1.1" xmlns="http://www.w3.org/2000/svg" xmlns:xlink="http://www.w3.org/1999/xlink" width="32" height="32" viewBox="0 0 32 32">
<path fill="#444444" d="M1.868 13.572c0.3 2.704 2.357 4.976 5.031 5.511-1.289 1.289-3.348 1.422-5.049 1.422v4.871h0.889c6.453 0 11.698-5.244 11.698-11.716-0.172-3.748-2.37-7.202-6.558-7.031-3.621 0.148-6.336 3.365-6.011 6.942 0.018 0.16-0.018-0.196 0 0z"></path>
<path fill="#444444" d="M17.589 13.572c0.3 2.704 2.357 4.976 5.031 5.511-1.289 1.289-3.348 1.422-5.049 1.422v4.871h0.889c6.453 0 11.698-5.244 11.698-11.716-0.172-3.748-2.37-7.202-6.558-7.031-3.621 0.148-6.334 3.365-6.011 6.942 0.018 0.16-0.018-0.196 0 0z"></path>
</svg>
