<?xml version="1.0" encoding="utf-8"?>
<!-- Generated by IcoMoon.io -->
<!DOCTYPE svg PUBLIC "-//W3C//DTD SVG 1.1//EN" "http://www.w3.org/Graphics/SVG/1.1/DTD/svg11.dtd">
<svg version="1.1" xmlns="http://www.w3.org/2000/svg" xmlns:xlink="http://www.w3.org/1999/xlink" width="32" height="32" viewBox="0 0 32 32">
<path fill="#444444" d="M6.869 12.898c0.018 0 0.018 0 0.018 0v-0.036c0 0-0.036 0.018-0.018 0.036zM3.652 19.049v-0.267c-0.018 0.089-0.018 0.196-0.018 0.284 0 0.462 0.071 0.907 0.213 1.333-0.124-0.427-0.196-0.871-0.196-1.351z"></path>
<path fill="#444444" d="M14.407 18.427c-0.018-0.16-0.036-0.302-0.071-0.462-0.018-0.124-0.036-0.249-0.071-0.373-0.053-0.231-0.124-0.462-0.213-0.676-0.124-0.356-0.284-0.676-0.48-0.996-0.213-0.391-0.462-0.729-0.764-1.049-0.16-0.196-0.356-0.373-0.551-0.551-0.107-0.089-0.231-0.196-0.356-0.284-0.302-0.231-0.64-0.427-0.978-0.604-0.48-0.231-1.013-0.409-1.547-0.516 0.018-0.018 0.018-0.018 0.036-0.018 1.173-0.924 2.613-1.404 4.124-1.404h0.889v-4.871h-0.889c-6.453 0-11.698 5.244-11.698 11.716l0.018 0.391 0.018 0.356c0 1.156 0.32 2.24 0.853 3.182 0.089 0.142 0.16 0.267 0.249 0.391 0.107 0.142 0.213 0.284 0.32 0.427 0.142 0.16 0.267 0.302 0.409 0.444 1.138 1.138 2.72 1.849 4.444 1.849 3.484 0 6.293-2.827 6.293-6.293 0-0.018 0-0.018 0-0.036 0-0.213-0.018-0.427-0.036-0.622zM8.149 23.582c-1.707 0-3.182-0.942-3.964-2.364-0.142-0.249-0.249-0.516-0.338-0.8 0 0 0 0 0-0.018-0.142-0.427-0.213-0.871-0.213-1.333 0-0.089 0-0.196 0.018-0.284l-0.018-0.462c0-1.636 0.391-3.182 1.084-4.533 1.529-2.933 4.48-5.031 7.929-5.333v1.298c-1.973 0.196-3.787 1.067-5.209 2.471-0.196 0.213-0.373 0.427-0.551 0.64v1.867c0.391-0.107 0.818-0.178 1.262-0.178 1.493 0 2.827 0.729 3.644 1.867 0.107 0.16 0.213 0.32 0.32 0.498 0.071 0.142 0.142 0.267 0.196 0.409 0.071 0.142 0.107 0.284 0.142 0.427 0.142 0.409 0.213 0.871 0.213 1.333 0 2.489-2.027 4.498-4.516 4.498z"></path>
<path fill="#444444" d="M22.588 12.898c0.018 0 0.018 0 0.018 0v-0.036c0 0-0.036 0.018-0.018 0.036zM19.371 19.049v-0.267c-0.018 0.089-0.018 0.196-0.018 0.284 0 0.462 0.071 0.907 0.213 1.333-0.124-0.427-0.196-0.871-0.196-1.351z"></path>
<path fill="#444444" d="M30.126 18.427c-0.018-0.16-0.036-0.302-0.071-0.462-0.018-0.124-0.036-0.249-0.071-0.373-0.053-0.231-0.124-0.462-0.213-0.676-0.124-0.356-0.284-0.676-0.48-0.996-0.213-0.391-0.462-0.729-0.764-1.049-0.16-0.196-0.356-0.373-0.551-0.551-0.107-0.089-0.231-0.196-0.356-0.284-0.302-0.231-0.64-0.427-0.978-0.604-0.48-0.231-1.013-0.409-1.547-0.516 0.018-0.018 0.018-0.018 0.036-0.018 1.173-0.924 2.613-1.404 4.124-1.404h0.889v-4.871h-0.889c-6.453 0-11.698 5.244-11.698 11.716l0.018 0.391 0.018 0.356c0 1.156 0.32 2.24 0.853 3.182 0.089 0.142 0.16 0.267 0.249 0.391 0.107 0.142 0.213 0.284 0.32 0.427 0.142 0.16 0.267 0.302 0.409 0.444 1.138 1.138 2.72 1.849 4.444 1.849 3.484 0 6.293-2.827 6.293-6.293 0-0.018 0-0.018 0-0.036 0-0.213-0.018-0.427-0.036-0.622zM23.868 23.582c-1.707 0-3.182-0.942-3.964-2.364-0.142-0.249-0.249-0.516-0.338-0.8 0 0 0 0 0-0.018-0.142-0.427-0.213-0.871-0.213-1.333 0-0.089 0-0.196 0.018-0.284l-0.018-0.462c0-1.636 0.391-3.182 1.084-4.533 1.529-2.933 4.48-5.031 7.929-5.333v1.298c-1.973 0.196-3.787 1.067-5.209 2.471-0.196 0.213-0.373 0.427-0.551 0.64v1.867c0.391-0.107 0.818-0.178 1.262-0.178 1.493 0 2.827 0.729 3.644 1.867 0.107 0.16 0.213 0.32 0.32 0.498 0.071 0.142 0.142 0.267 0.196 0.409 0.071 0.142 0.107 0.284 0.142 0.427 0.142 0.409 0.213 0.871 0.213 1.333 0 2.489-2.027 4.498-4.516 4.498z"></path>
</svg>
