<?xml version="1.0" encoding="utf-8"?>
<!-- Generated by IcoMoon.io -->
<!DOCTYPE svg PUBLIC "-//W3C//DTD SVG 1.1//EN" "http://www.w3.org/Graphics/SVG/1.1/DTD/svg11.dtd">
<svg version="1.1" xmlns="http://www.w3.org/2000/svg" xmlns:xlink="http://www.w3.org/1999/xlink" width="32" height="32" viewBox="0 0 32 32">
<path fill="#444444" d="M29.063 28.066l-7.804-7.804c1.721-1.895 2.777-4.404 2.777-7.166 0-5.899-4.782-10.681-10.681-10.681s-10.681 4.782-10.681 10.681c0 5.899 4.782 10.681 10.681 10.681 2.496 0 4.788-0.864 6.606-2.299l7.844 7.844c0.174 0.174 0.402 0.26 0.629 0.26s0.455-0.087 0.629-0.26c0.348-0.345 0.348-0.907 0-1.255zM4.453 13.097c0-4.908 3.993-8.903 8.903-8.903 4.908 0 8.903 3.995 8.903 8.903s-3.995 8.903-8.903 8.903c-4.908 0-8.903-3.995-8.903-8.903z"></path>
</svg>
