<?xml version="1.0" encoding="utf-8"?>
<!-- Generator: Adobe Illustrator 18.1.1, SVG Export Plug-In . SVG Version: 6.00 Build 0)  -->
<svg version="1.1" id="Layer_1" xmlns="http://www.w3.org/2000/svg" xmlns:xlink="http://www.w3.org/1999/xlink" x="0px" y="0px"
	 viewBox="503 375 18 18" enable-background="new 503 375 18 18" xml:space="preserve">
<path d="M507.333,380.712v7h9.333v-7H507.333z M512,384.672l-2.96-2.96h5.92L512,384.672z M509.883,383.969l-1.55,1.808v-3.358
	L509.883,383.969z M510.592,384.678l1.408,1.408l1.408-1.408l1.743,2.034h-6.302L510.592,384.678z M514.117,383.969l1.55-1.55v3.357
	L514.117,383.969z"/>
<path d="M512,376.992c3.864,0,7.008,3.144,7.008,7.008s-3.144,7.008-7.008,7.008s-7.008-3.144-7.008-7.008
	S508.136,376.992,512,376.992 M512,375.992c-4.423,0-8.008,3.585-8.008,8.008s3.585,8.008,8.008,8.008s8.008-3.585,8.008-8.008
	S516.423,375.992,512,375.992L512,375.992z"/>
</svg>
