<?xml version="1.0" encoding="utf-8"?>
<!-- Generator: Adobe Illustrator 18.1.1, SVG Export Plug-In . SVG Version: 6.00 Build 0)  -->
<svg version="1.1" id="Layer_1" xmlns="http://www.w3.org/2000/svg" xmlns:xlink="http://www.w3.org/1999/xlink" x="0px" y="0px"
	 viewBox="0 0 18 18" enable-background="new 0 0 18 18" xml:space="preserve">
<g>
	<path d="M9,0.9921875C4.5773926,0.9921875,0.9921875,4.5773926,0.9921875,9S4.5773926,17.0078125,9,17.0078125
		S17.0078125,13.4226074,17.0078125,9S13.4226074,0.9921875,9,0.9921875z M9,16.0078125
		c-3.8641357,0-7.0078125-3.1436768-7.0078125-7.0078125S5.1358643,1.9921875,9,1.9921875S16.0078125,5.1358643,16.0078125,9
		S12.8641357,16.0078125,9,16.0078125z"/>
	<path d="M9.6855469,6.4081421c0-0.3616943,0.239624-0.4453125,0.40802-0.4453125c0.1679077,0,1.0337524,0,1.0337524,0V4.3757935
		L9.703064,4.3701172c-1.5807495,0-1.9402466,1.1835327-1.9402466,1.9408569v1.0579834H6.8483887V9.003418h0.9144287
		c0,2.0990601,0,4.6264038,0,4.6264038h1.9227295c0,0,0-2.5534058,0-4.6264038h1.2976685l0.168396-1.6344604H9.6855469V6.4081421z"
		/>
</g>
</svg>
