<?xml version="1.0" encoding="utf-8"?>
<!-- Generator: Adobe Illustrator 18.1.1, SVG Export Plug-In . SVG Version: 6.00 Build 0)  -->
<svg version="1.1" id="Layer_1" xmlns="http://www.w3.org/2000/svg" xmlns:xlink="http://www.w3.org/1999/xlink" x="0px" y="0px"
	 viewBox="0 0 18 18" enable-background="new 0 0 18 18" xml:space="preserve">
<g>
	<path d="M9,0.9921875C4.5773926,0.9921875,0.9921874,4.5773926,0.9921874,9S4.5773926,17.0078125,9,17.0078125
		S17.0078125,13.4226074,17.0078125,9S13.4226074,0.9921875,9,0.9921875z M9,16.0078125
		c-3.8641357,0-7.0078125-3.1436768-7.0078125-7.0078125S5.1358643,1.9921875,9,1.9921875S16.0078125,5.1358643,16.0078125,9
		S12.8641357,16.0078125,9,16.0078125z"/>
	<path d="M5.9204102,5.114563c-0.5953979,0-0.9854736,0.3919678-0.9854736,0.9061279
		c0,0.5031738,0.3781128,0.9060669,0.9626465,0.9060669h0.0114746c0.6078491,0,0.9859619-0.4028931,0.9859619-0.9060669
		C6.8840942,5.5065308,6.5169067,5.114563,5.9204102,5.114563z"/>
	<rect x="5.0376587" y="7.6433105" width="1.7432251" height="5.2420654"/>
	<path d="M11.0583496,7.5202026c-0.9249878,0-1.3388062,0.5072021-1.5710449,0.8654785V7.6433105H7.7450562
		c0.0223389,0.491272,0,5.2420654,0,5.2420654h1.7422485V9.9577026c0-0.1577759,0.0113525-0.3126221,0.0575562-0.4247437
		c0.1260376-0.3126831,0.4133301-0.6381836,0.894165-0.6381836c0.6312256,0,0.8833008,0.4813232,0.8833008,1.1859741v2.8046265
		h1.7427368V9.8792725C13.0650635,8.2685547,12.2045898,7.5202026,11.0583496,7.5202026z"/>
</g>
</svg>
