<?xml version="1.0" encoding="utf-8"?>
<!-- Generator: Adobe Illustrator 18.1.1, SVG Export Plug-In . SVG Version: 6.00 Build 0)  -->
<svg version="1.1" id="Layer_1" xmlns="http://www.w3.org/2000/svg" xmlns:xlink="http://www.w3.org/1999/xlink" x="0px" y="0px"
	 viewBox="0 0 18 18" enable-background="new 0 0 18 18" xml:space="preserve">
<g>
	<path d="M12.6341734,7.1363249c0.0038843,0.0803723,0.0055971,0.1606841,0.0055971,0.2421379
		c0,2.4777737-1.8860044,5.3349419-5.3349991,5.3349419c-1.0592999,0-2.0444002-0.3101645-2.8744125-0.8422985
		c0.1472507,0.016736,0.2962208,0.0256433,0.4473619,0.0256433c0.8791418,0,1.6868258-0.2989655,2.3283463-0.8021402
		C6.386045,11.0790157,5.6932302,10.536828,5.455101,9.7926617c0.1142921,0.0211916,0.2314463,0.0334692,0.3524847,0.0334692
		c0.171247,0,0.3369603-0.0234203,0.4936924-0.0657997C5.4444704,9.5873671,4.7974091,8.829895,4.7974091,7.9217324
		c0-0.0077648,0-0.0155902,0-0.0234194c0.2532153,0.1405768,0.5421882,0.2242589,0.8495536,0.2343116
		C5.1437945,7.7968135,4.8130031,7.2222381,4.8130031,6.5718069c0-0.3435802,0.0925989-0.6660256,0.2538438-0.9426603
		c0.9242668,1.1345849,2.3065834,1.8809218,3.8645458,1.959002C8.8995762,7.4509487,8.8828402,7.3081474,8.8828402,7.1608868
		c0-1.0353055,0.8395576-1.8742919,1.8753805-1.8742919c0.5388756,0,1.0264053,0.2276254,1.3683224,0.5913119
		c0.4267473-0.0836816,0.8283615-0.2398529,1.1909628-0.4551973c-0.1405735,0.4384608-0.4373083,0.8055172-0.8244772,1.0375409
		c0.3793373-0.044611,0.7407961-0.1461143,1.0766134-0.2945132C13.3186483,6.5417004,13.000658,6.8719177,12.6341734,7.1363249z"/>
</g>
</svg>
