<?xml version="1.0" encoding="utf-8"?>
<!-- Generator: Adobe Illustrator 18.1.1, SVG Export Plug-In . SVG Version: 6.00 Build 0)  -->
<svg version="1.1" id="Layer_1" xmlns="http://www.w3.org/2000/svg" xmlns:xlink="http://www.w3.org/1999/xlink" x="0px" y="0px"
	 viewBox="0 0 18 18" enable-background="new 0 0 18 18" xml:space="preserve">
<g>
	<path d="M9.5279951,8.3526659V8.3343906C9.5247469,8.3408327,9.519908,8.3472738,9.5156069,8.3526659H9.5279951z"/>
	<path d="M6.5955586,13.2098923H4.7067242V7.5300107h1.8888345V13.2098923z M5.6508937,6.7536545H5.6385059
		c-0.6333737,0-1.0430517-0.4366007-1.0430517-0.9817734c0-0.5570645,0.4226165-0.9817729,1.0677719-0.9817729
		c0.6463189,0,1.0441527,0.4247084,1.0559902,0.9817729C6.7192163,6.3170538,6.309545,6.7536545,5.6508937,6.7536545z
		 M13.4045458,13.2098923h-1.8882771V10.171031c0-0.7634764-0.2731438-1.2850256-0.9570599-1.2850256
		c-0.5210028,0-0.8322868,0.3526936-0.9688282,0.6914587C9.540328,9.6989746,9.5279951,9.8667288,9.5279951,10.0376835v3.1722088
		H7.6402683c0,0,0.0241632-5.1475925,0-5.6798816h1.8877268v0.8043799c0.2516098-0.3882055,0.7000475-0.9377275,1.7022467-0.9377275
		c1.241972,0,2.174304,0.810822,2.174304,2.5560679V13.2098923z"/>
</g>
</svg>
