<?xml version="1.0" encoding="utf-8"?>
<!-- Generator: Adobe Illustrator 18.1.1, SVG Export Plug-In . SVG Version: 6.00 Build 0)  -->
<svg version="1.1" id="Layer_1" xmlns="http://www.w3.org/2000/svg" xmlns:xlink="http://www.w3.org/1999/xlink" x="0px" y="0px"
	 viewBox="189.425 295.725 18 18" enable-background="new 189.425 295.725 18 18" xml:space="preserve">
<g>
	<g>
		<path d="M198.425,297.717c3.864,0,7.008,3.144,7.008,7.008c0,3.864-3.144,7.008-7.008,7.008s-7.008-3.144-7.008-7.008
			C191.417,300.861,194.561,297.717,198.425,297.717 M198.425,296.717c-4.423,0-8.008,3.585-8.008,8.008
			c0,4.423,3.585,8.008,8.008,8.008s8.008-3.585,8.008-8.008C206.433,300.302,202.848,296.717,198.425,296.717L198.425,296.717z"/>
	</g>
</g>
<g>
	<g>
		<path d="M198.912,304.477h-0.012c-0.135,0-0.257-0.077-0.315-0.199c-0.058-0.121-0.041-0.266,0.044-0.371
			c0.073-0.145,0.219-0.196,0.379-0.16c0.157,0.037,0.254,0.202,0.254,0.364C199.262,304.304,199.106,304.477,198.912,304.477z"/>
	</g>
	<g>
		<path d="M202.49,308.96h-1.743c-0.193,0-0.35-0.156-0.35-0.35v-2.805c0-0.837-0.374-0.837-0.533-0.837
			c-0.349,0-0.507,0.264-0.57,0.42c-0.012,0.03-0.032,0.106-0.032,0.294v2.928c0,0.193-0.156,0.35-0.35,0.35h-1.742
			c-0.093,0-0.183-0.037-0.248-0.103c-0.065-0.066-0.103-0.155-0.102-0.249c0-0.047,0.021-4.747,0-5.225
			c-0.004-0.095,0.03-0.188,0.097-0.258c0.065-0.068,0.157-0.107,0.253-0.107h1.742c0.153,0,0.284,0.099,0.331,0.235
			c0.291-0.198,0.692-0.358,1.24-0.358c1.454,0,2.356,1.037,2.356,2.708v3.007C202.84,308.804,202.684,308.96,202.49,308.96z
			 M201.097,308.261h1.044v-2.657c0-1.295-0.589-2.009-1.657-2.009c-0.723,0-1.052,0.357-1.277,0.706
			c-0.086,0.131-0.246,0.188-0.394,0.146c-0.148-0.044-0.25-0.181-0.25-0.336v-0.393h-1.036c0.009,1.007-0.001,3.592-0.005,4.543
			h1.041v-2.578c0-0.244,0.025-0.416,0.083-0.558c0.216-0.535,0.672-0.855,1.219-0.855c0.371,0,1.232,0.149,1.232,1.536V308.261z
			 M196.206,308.96h-1.743c-0.193,0-0.35-0.156-0.35-0.35v-5.242c0-0.193,0.156-0.35,0.35-0.35h1.743c0.193,0,0.35,0.156,0.35,0.35
			v5.242C196.556,308.804,196.4,308.96,196.206,308.96z M194.813,308.261h1.044v-4.543h-1.044V308.261z M195.334,303.001h-0.012
			c-0.748,0-1.312-0.54-1.312-1.256c0-0.728,0.562-1.256,1.336-1.256c0.764,0,1.309,0.514,1.323,1.249
			C196.669,302.473,196.108,303.001,195.334,303.001z M195.346,301.189c-0.387,0-0.637,0.219-0.637,0.557
			c0,0.333,0.247,0.557,0.613,0.557h0.012c0.386,0,0.636-0.219,0.636-0.557C195.962,301.406,195.724,301.189,195.346,301.189z"/>
	</g>
</g>
</svg>
