<?xml version="1.0" encoding="utf-8"?>
<!-- Generated by IcoMoon.io -->
<!DOCTYPE svg PUBLIC "-//W3C//DTD SVG 1.1//EN" "http://www.w3.org/Graphics/SVG/1.1/DTD/svg11.dtd">
<svg version="1.1" xmlns="http://www.w3.org/2000/svg" xmlns:xlink="http://www.w3.org/1999/xlink" width="32" height="32" viewBox="0 0 32 32">
<path fill="rgb(0, 0, 0)" d="M16 4.133c-7.858 0-14.222 4.782-14.222 10.667 0 2.862 1.493 5.44 3.893 7.324-0.071 1.316-0.427 2.667-1.049 4.089-0.142 0.338-0.338 0.711-0.036 1.12s0.747 0.409 0.747 0.409l0.196-0.053c1.796-0.373 4-1.707 5.636-2.844 1.191 0.302 2.453 0.516 3.787 0.587-0.658-0.569-1.227-1.227-1.636-1.938-0.089 0-0.178-0.018-0.267-0.036-0.782-0.142-1.529-0.32-2.24-0.569-0.516 0.373-1.12 0.8-1.76 1.227-0.711 0.462-1.476 0.907-2.204 1.244 0.231-0.711 0.391-1.404 0.498-2.116 0.107-0.676 0.16-1.316 0.142-1.956-0.747-0.498-1.422-1.067-1.973-1.707-1.244-1.369-1.956-3.004-1.956-4.782 0-4.889 5.582-8.889 12.444-8.889 6.542 0 11.929 3.644 12.391 8.213 0.676 0.444 1.28 0.96 1.778 1.529 0.036-0.284 0.053-0.569 0.053-0.853 0-5.884-6.364-10.667-14.222-10.667z"></path>
<path fill="rgb(255, 255, 255)" d="M26.738 25.147c-0.071 0.018-0.124 0.053-0.196 0.089 0.071 0.053 0.16 0.089 0.231 0.142-0.018-0.071-0.036-0.16-0.036-0.231z"></path>
<path fill="rgb(0, 0, 0)" d="M28.764 25.947c-0.089-0.249-0.196-0.551-0.249-0.907-0.071-0.32-0.124-0.658-0.124-1.031 1.156-1.031 1.831-2.382 1.831-3.84 0-0.818-0.213-1.582-0.604-2.293-0.32-0.604-0.782-1.156-1.351-1.653-1.476-1.262-3.644-2.080-6.080-2.080-4.444 0-8.036 2.702-8.036 6.027 0 1.316 0.551 2.524 1.493 3.502 0.658 0.693 1.476 1.262 2.436 1.671 1.209 0.551 2.613 0.853 4.107 0.853 0.764 0 1.511-0.089 2.222-0.231 0.284 0.196 0.622 0.427 0.996 0.658 0.32 0.213 0.658 0.409 0.996 0.587 0.551 0.284 1.102 0.533 1.618 0.64 0.071 0 0.124 0.018 0.196 0.018 0.284 0 0.569-0.16 0.747-0.409 0.16-0.249 0.124-0.729 0-0.996-0.053-0.124-0.124-0.302-0.196-0.516zM26.56 23.156c0 0 0 0 0 0.018 0.018 0.249 0.036 0.569 0.053 0.871 0.018 0.089 0.018 0.16 0.018 0.249 0.018 0.124 0.036 0.249 0.036 0.356 0.018 0.213 0.053 0.391 0.071 0.498 0 0.071 0.018 0.16 0.036 0.231-0.071-0.053-0.16-0.089-0.231-0.142-0.32-0.196-1.653-0.818-2.151-1.102-0.427 0.124-0.889 0.196-1.369 0.249-0.267 0.018-0.551 0.036-0.836 0.036h-0.053c-1.404 0-2.702-0.338-3.751-0.889-1.476-0.782-2.453-2.009-2.453-3.36 0-2.293 2.862-4.249 6.258-4.249 2.258 0 4.284 0.871 5.387 2.133 0.498 0.569 0.818 1.227 0.853 1.92 0.018 0.071 0.018 0.124 0.018 0.196 0 0.533-0.142 1.031-0.427 1.493-0.32 0.569-0.818 1.084-1.458 1.493z"></path>
</svg>
