<?xml version="1.0" encoding="utf-8"?>
<!-- Generated by IcoMoon.io -->
<!DOCTYPE svg PUBLIC "-//W3C//DTD SVG 1.1//EN" "http://www.w3.org/Graphics/SVG/1.1/DTD/svg11.dtd">
<svg version="1.1" xmlns="http://www.w3.org/2000/svg" xmlns:xlink="http://www.w3.org/1999/xlink" width="32" height="32" viewBox="0 0 32 32">
<path fill="#444444" d="M5.333 27.796l0.196-0.036c1.796-0.391 4-1.724 5.636-2.862 1.511 0.409 3.129 0.64 4.836 0.64 7.858 0 14.222-4.782 14.222-10.667s-6.364-10.667-14.222-10.667-14.222 4.782-14.222 10.667c0 2.844 1.493 5.422 3.893 7.324-0.071 1.298-0.427 2.649-1.049 4.071-0.142 0.338-0.338 0.711-0.036 1.12s0.747 0.409 0.747 0.409zM16 23.76c-1.013 0-2.009-0.089-2.951-0.249-0.782-0.142-1.529-0.32-2.24-0.569-0.516 0.391-1.12 0.818-1.76 1.227-0.711 0.462-1.476 0.907-2.204 1.244 0.231-0.711 0.391-1.404 0.498-2.098 0.107-0.676 0.16-1.316 0.142-1.973-0.747-0.498-1.422-1.067-1.973-1.689-1.244-1.387-1.956-3.022-1.956-4.782 0-4.907 5.582-8.889 12.444-8.889s12.444 3.982 12.444 8.889c0 4.907-5.582 8.889-12.444 8.889z"></path>
</svg>
