<?xml version="1.0" encoding="utf-8"?>
<!-- Generator: Adobe Illustrator 18.1.1, SVG Export Plug-In . SVG Version: 6.00 Build 0)  -->
<svg version="1.1" id="Layer_1" xmlns="http://www.w3.org/2000/svg" xmlns:xlink="http://www.w3.org/1999/xlink" x="0px" y="0px"
	 viewBox="189.425 295.725 18 18" enable-background="new 189.425 295.725 18 18" xml:space="preserve">
<g>
	<path d="M198.425,297.717c3.864,0,7.008,3.144,7.008,7.008c0,3.864-3.144,7.008-7.008,7.008s-7.008-3.144-7.008-7.008
		C191.417,300.861,194.561,297.717,198.425,297.717 M198.425,296.717c-4.423,0-8.008,3.585-8.008,8.008
		c0,4.423,3.585,8.008,8.008,8.008s8.008-3.585,8.008-8.008C206.433,300.302,202.848,296.717,198.425,296.717L198.425,296.717z"/>
</g>
<g>
	<path d="M201.621,303.086c0.003,0.071,0.005,0.141,0.005,0.213c0,2.179-1.659,4.692-4.692,4.692c-0.932,0-1.798-0.273-2.528-0.741
		c0.13,0.015,0.261,0.023,0.393,0.023c0.773,0,1.484-0.263,2.048-0.706c-0.721-0.014-1.331-0.491-1.54-1.145
		c0.101,0.019,0.204,0.029,0.31,0.029c0.151,0,0.296-0.021,0.434-0.058c-0.754-0.152-1.323-0.818-1.323-1.617
		c0-0.007,0-0.014,0-0.021c0.223,0.124,0.477,0.197,0.747,0.206c-0.443-0.295-0.734-0.801-0.734-1.373
		c0-0.302,0.081-0.586,0.223-0.829c0.813,0.998,2.029,1.654,3.399,1.723c-0.028-0.121-0.043-0.246-0.043-0.376
		c0-0.911,0.738-1.649,1.649-1.649c0.474,0,0.903,0.2,1.203,0.52c0.375-0.074,0.729-0.211,1.047-0.4
		c-0.124,0.386-0.385,0.708-0.725,0.913c0.334-0.039,0.652-0.129,0.947-0.259C202.223,302.563,201.944,302.853,201.621,303.086z"/>
</g>
</svg>
