<?xml version="1.0" encoding="utf-8"?>
<!-- Generator: Adobe Illustrator 18.1.1, SVG Export Plug-In . SVG Version: 6.00 Build 0)  -->
<svg version="1.1" id="Layer_1" xmlns="http://www.w3.org/2000/svg" xmlns:xlink="http://www.w3.org/1999/xlink" x="0px" y="0px"
	 viewBox="189.425 295.725 18 18" enable-background="new 189.425 295.725 18 18" xml:space="preserve">
<g>
	<g>
		<path d="M198.425,297.717c3.864,0,7.008,3.144,7.008,7.008c0,3.864-3.144,7.008-7.008,7.008s-7.008-3.144-7.008-7.008
			C191.417,300.861,194.561,297.717,198.425,297.717 M198.425,296.717c-4.423,0-8.008,3.585-8.008,8.008
			c0,4.423,3.585,8.008,8.008,8.008s8.008-3.585,8.008-8.008C206.433,300.302,202.848,296.717,198.425,296.717L198.425,296.717z"/>
	</g>
</g>
<g>
	<path d="M199.971,301.459c0.474,0,0.903,0.2,1.203,0.52c0.375-0.074,0.729-0.211,1.048-0.4c-0.124,0.386-0.385,0.708-0.725,0.913
		c0.334-0.039,0.652-0.129,0.947-0.259c-0.221,0.331-0.5,0.621-0.823,0.854c0.003,0.071,0.005,0.141,0.005,0.213
		c0,2.179-1.659,4.692-4.692,4.692c-0.932,0-1.798-0.273-2.528-0.741c0.13,0.015,0.261,0.023,0.393,0.023
		c0.773,0,1.484-0.263,2.048-0.706c-0.721-0.014-1.331-0.491-1.54-1.145c0.101,0.019,0.204,0.029,0.31,0.029
		c0.151,0,0.296-0.021,0.434-0.058c-0.754-0.152-1.323-0.818-1.323-1.617c0-0.007,0-0.014,0-0.021
		c0.223,0.124,0.477,0.197,0.747,0.206c-0.443-0.295-0.733-0.801-0.733-1.373c0-0.302,0.081-0.586,0.223-0.829
		c0.813,0.998,2.029,1.654,3.399,1.723c-0.028-0.121-0.043-0.246-0.043-0.376C198.322,302.197,199.06,301.459,199.971,301.459
		 M199.971,300.759c-1.148,0-2.107,0.828-2.31,1.918c-0.839-0.204-1.599-0.678-2.153-1.359c-0.133-0.164-0.333-0.258-0.543-0.258
		c-0.018,0-0.036,0.001-0.055,0.002c-0.229,0.018-0.435,0.147-0.55,0.345c-0.208,0.357-0.318,0.766-0.318,1.182
		c0,0.26,0.042,0.513,0.123,0.752c-0.087,0.118-0.136,0.263-0.136,0.415c0,0.597,0.219,1.147,0.585,1.568
		c-0.015,0.103-0.006,0.21,0.026,0.312c0.112,0.349,0.3,0.657,0.542,0.91c-0.126,0.018-0.254,0.027-0.383,0.027
		c-0.106,0-0.211-0.006-0.314-0.018c-0.027-0.003-0.053-0.004-0.079-0.004c-0.293,0-0.559,0.184-0.659,0.465
		c-0.109,0.307,0.008,0.648,0.282,0.824c0.869,0.557,1.874,0.852,2.906,0.852c3.324,0,5.33-2.659,5.391-5.271
		c0.267-0.234,0.503-0.501,0.701-0.799c0.173-0.259,0.154-0.601-0.046-0.839c-0.022-0.026-0.045-0.05-0.07-0.072
		c0.048-0.253-0.046-0.515-0.252-0.679c-0.127-0.101-0.281-0.152-0.436-0.152c-0.123,0-0.247,0.032-0.357,0.098
		c-0.162,0.096-0.333,0.174-0.51,0.233C200.956,300.92,200.47,300.759,199.971,300.759L199.971,300.759z"/>
</g>
</svg>
