<?xml version="1.0" encoding="utf-8"?>
<!-- Generated by IcoMoon.io -->
<!DOCTYPE svg PUBLIC "-//W3C//DTD SVG 1.1//EN" "http://www.w3.org/Graphics/SVG/1.1/DTD/svg11.dtd">
<svg version="1.1" xmlns="http://www.w3.org/2000/svg" xmlns:xlink="http://www.w3.org/1999/xlink" width="32" height="32" viewBox="0 0 32 32">
<path fill="#444444" d="M10.364 14.427v-3.751c0-2.951 2.649-5.547 5.689-5.547 2.311 0 4.498 1.547 5.316 3.769 0.178 0.462 0.693 0.693 1.156 0.516 0.462-0.16 0.693-0.676 0.516-1.138-1.084-2.898-3.947-4.924-6.987-4.924-3.982 0-7.467 3.413-7.467 7.324v3.751h-3.253v14.222h21.333v-14.222h-16.302zM24.889 26.871h-17.778v-10.667h17.778v10.667zM18.844 20.044c0-0.818-0.356-1.547-0.907-2.062-0.498-0.48-1.191-0.782-1.938-0.782s-1.44 0.302-1.938 0.782c-0.551 0.516-0.907 1.244-0.907 2.062s0.356 1.547 0.907 2.062l-0.196 2.809h4.302l-0.302-2.738c0.604-0.516 0.978-1.28 0.978-2.133zM16.462 21.396v0.729l0.089 0.711 0.071 0.693h-1.262l0.053-0.693 0.036-0.711v-0.764c-0.302-0.107-0.569-0.338-0.729-0.622-0.107-0.196-0.178-0.444-0.178-0.693 0-0.8 0.658-1.458 1.458-1.458s1.458 0.658 1.458 1.458c0 0.249-0.071 0.498-0.178 0.693-0.178 0.32-0.462 0.551-0.818 0.658z"></path>
</svg>
