<?xml version="1.0" encoding="utf-8"?>
<!-- Generated by IcoMoon.io -->
<!DOCTYPE svg PUBLIC "-//W3C//DTD SVG 1.1//EN" "http://www.w3.org/Graphics/SVG/1.1/DTD/svg11.dtd">
<svg version="1.1" xmlns="http://www.w3.org/2000/svg" xmlns:xlink="http://www.w3.org/1999/xlink" width="32" height="32" viewBox="0 0 32 32">
<path fill="#444444" d="M18.844 17.244c3.022-1.244 5.156-4.089 5.156-7.467 0-4.444-3.556-8-8-8s-8 3.556-8 8c0 3.378 2.133 6.4 5.156 7.467-6.578 1.244-11.378 6.578-11.378 12.978v0h28.444c0-6.4-4.8-11.733-11.378-12.978zM9.778 9.778c0-3.556 2.844-6.222 6.222-6.222s6.222 2.844 6.222 6.222-2.844 6.222-6.222 6.222-6.222-2.667-6.222-6.222zM3.733 28.444c0.889-5.511 6.044-9.778 12.267-9.778s11.378 4.267 12.267 9.778h-24.533z"></path>
</svg>
