<?xml version="1.0" standalone="no"?> 
<!DOCTYPE svg PUBLIC "-//W3C//DTD SVG 1.1//EN" "http://www.w3.org/Graphics/SVG/1.1/DTD/svg11.dtd" >
<svg xmlns="http://www.w3.org/2000/svg">
<defs>
  <font id="influicons" horiz-adv-x="500">
    <font-face font-family="influicons"
      units-per-em="500" ascent="500"
      descent="0" />
    <missing-glyph horiz-adv-x="0" />
    <glyph glyph-name="000-500donotdeletethis"
      unicode="&#xE001;"
      horiz-adv-x="500" d="M253.98 493.12H253.48L253.0600000000001 492.7C253.4400000000001 492.09 253.6600000000001 491.37 253.6600000000001 490.6C253.6600000000001 488.39 251.8700000000001 486.6 249.6600000000001 486.6C247.45 486.6 245.6600000000001 488.39 245.6600000000001 490.6C245.6600000000001 492.8099999999999 247.45 494.6 249.6600000000001 494.6C250.3700000000001 494.6 251.0400000000001 494.41 251.6200000000001 494.09L252.0600000000002 494.53V494.99C251.3500000000001 495.3799999999999 250.5300000000002 495.6 249.6600000000002 495.6C246.9000000000002 495.6 244.6600000000002 493.36 244.6600000000002 490.6S246.9000000000002 485.6 249.6600000000002 485.6S254.6600000000002 487.84 254.6600000000002 490.6C254.66 491.52 254.41 492.38 253.98 493.12zM255.96 493.64L255.45 493.13H255.1C255.46 492.36 255.66 491.51 255.66 490.6C255.66 487.29 252.9699999999999 484.6 249.66 484.6C246.35 484.6 243.66 487.29 243.66 490.6S246.35 496.6 249.66 496.6C250.52 496.6 251.3299999999999 496.42 252.0699999999999 496.1V496.5L252.55 496.98C251.67 497.38 250.6899999999999 497.6 249.66 497.6C245.79 497.6 242.66 494.47 242.66 490.6S245.79 483.6 249.66 483.6S256.6600000000001 486.73 256.6600000000001 490.6C256.6600000000001 491.69 256.4100000000001 492.72 255.96 493.64zM252.36 492L251.6 491.24C251.66 491.04 251.7 490.82 251.7 490.6C251.7 489.47 250.7900000000001 488.56 249.6600000000001 488.56S247.6200000000001 489.47 247.6200000000001 490.6S248.5300000000001 492.64 249.6600000000001 492.64C249.8200000000001 492.64 249.97 492.6200000000001 250.1200000000001 492.59L250.6300000000001 493.1L250.9000000000001 493.37C250.5200000000001 493.55 250.1000000000001 493.64 249.6600000000001 493.64C247.9800000000001 493.64 246.6200000000001 492.28 246.6200000000001 490.6S247.9800000000001 487.5599999999999 249.6600000000001 487.5599999999999C251.34 487.5599999999999 252.7 488.92 252.7 490.6C252.7 491.11 252.58 491.58 252.36 492zM255.52 495.94L255.03 495.93H254.88V496.58L254.89 498.4L252.72 496.23V495.1899999999999L252.71 494.5599999999999V494.2599999999999L252.5600000000001 494.11L252.21 493.7599999999999L252.1700000000001 493.7199999999999L251.48 493.0299999999999L250.76 492.3099999999999L249.98 491.5299999999999C249.88 491.5699999999999 249.77 491.5899999999999 249.66 491.5899999999999C249.42 491.5899999999999 249.1899999999999 491.4999999999999 249.02 491.3499999999999C248.8099999999999 491.1699999999999 248.67 490.8999999999999 248.67 490.5999999999999C248.67 490.0599999999999 249.12 489.6099999999999 249.66 489.6099999999999C250.0599999999999 489.6099999999999 250.41 489.8499999999999 250.5599999999999 490.1999999999999C250.6199999999999 490.3199999999999 250.65 490.4599999999999 250.65 490.5999999999999C250.65 490.7699999999999 250.6 490.9399999999998 250.52 491.0799999999999L251.28 491.8399999999999L252.67 493.2299999999998L252.7099999999999 493.2699999999999L253.2099999999999 493.7699999999999H254.1299999999999L254.7399999999999 493.7799999999999H255.18L255.64 494.2399999999998L257.34 495.9499999999998L255.52 495.94zM253.42 494.97V495.9400000000001L253.75 496.27H253.76L254.18 496.7V495.73L253.5799999999999 495.13L253.42 494.97zM255.23 494.83L254.88 494.48H254.84L254.24 494.47H253.92L254.0799999999999 494.64H254.0899999999999L254.67 495.23H254.9L255.52 495.24H255.65L255.23 494.83z" />
    <glyph glyph-name="001-alert-caution"
      unicode="&#xE002;"
      horiz-adv-x="500" d="M249.9921875 196.75C242.3203125 196.75 236.1015625 202.96875 236.1015625 210.640625V317.109375C236.1015625 324.78125 242.3203125 331 249.9921875 331S263.8828125 324.78125 263.8828125 317.109375V210.640625C263.8828125 202.96875 257.6640625 196.75 249.9921875 196.75zM249.9921875 113.421875C242.3203125 113.421875 236.1015625 119.640625 236.1015625 127.3125V151.0625C236.1015625 158.734375 242.3203125 164.953125 249.9921875 164.953125S263.8828125 158.734375 263.8828125 151.0625V127.3125C263.8828125 119.640625 257.6640625 113.421875 249.9921875 113.421875zM249.9921875 416.578125L440.3203125 83.328125L59.6796875 83.390625L249.9921875 416.578125zM249.9921875 444.4375C240.7421875 444.4375 231.5234375 440.25 226.7109375 431.859375L30.6328125 88.53125C21.9921875 73.390625 34.5546875 55.5625 53.9140625 55.5625H446.0859375C465.4140625 55.5625 478.0078125 73.375 469.3671875 88.53125L273.2890625 431.859375C268.4765625 440.25 259.2578125 444.4375 250.0078125000001 444.4375V444.4375z" />
    <glyph glyph-name="002-arrow-down"
      unicode="&#xE003;"
      horiz-adv-x="500" d="M370.828125 222.078125L250 100.96875L129.171875 222.078125C123.609375 227.3593750000001 123.609375 236.25 129.171875 241.515625C134.453125 247.0781250000001 143.34375 247.0781250000001 148.609375 241.515625L236.109375 154.296875V385.125C236.109375 392.90625 242.21875 399.015625 250 399.015625S263.890625 392.90625 263.890625 385.125V154.296875L351.390625 241.515625C356.671875 247.0781250000001 365.5625 247.0781250000001 370.828125 241.515625C376.390625 236.234375 376.390625 227.34375 370.828125 222.078125z" />
    <glyph glyph-name="003-arrow-left"
      unicode="&#xE004;"
      horiz-adv-x="500" d="M399.0234375 250C399.0234375 242.21875 392.9140625 236.109375 385.1328125 236.109375H154.3046875L241.5234375000001 148.6093750000001C247.0859375000001 143.328125 247.0859375000001 134.4375000000001 241.5234375000001 129.1718750000001C239.0234375000001 126.3906250000001 235.4140625000001 125.0000000000001 231.8046875000001 125.0000000000001S224.5859375 126.3906250000001 222.0859375 129.1718750000001L100.9765625 250.0000000000001L222.0859375 370.8281250000001C227.3671875000001 376.3906250000001 236.2578125000001 376.3906250000001 241.5234375000001 370.8281250000001C247.0859375000001 365.5468750000001 247.0859375000001 356.6562500000001 241.5234375000001 351.3906250000001L154.3046875 263.8906250000001H385.1328125C392.9140625000001 263.8906250000001 399.0234375 257.7812500000001 399.0234375 250.0000000000001z" />
    <glyph glyph-name="004-arrow-right"
      unicode="&#xE005;"
      horiz-adv-x="500" d="M100.9765625 250C100.9765625 257.78125 107.0859375 263.890625 114.8671875 263.890625H345.6953125L258.4765625 351.390625C252.9140625 356.671875 252.9140625 365.5625 258.4765625 370.828125C260.9765625 373.609375 264.5859375 375 268.1953125 375S275.4140625 373.609375 277.9140625 370.828125L399.0234375 250L277.9140625 129.171875C272.6328125 123.609375 263.7421875 123.609375 258.4765625 129.171875C252.9140625 134.453125 252.9140625 143.34375 258.4765625 148.609375L345.6953125 236.109375H114.8671875C107.0859375 236.109375 100.9765625 242.21875 100.9765625 250z" />
    <glyph glyph-name="005-arrow-up"
      unicode="&#xE006;"
      horiz-adv-x="500" d="M252.0859375 100.96875C244.3046875 100.96875 238.1953125 107.078125 238.1953125 114.859375V345.6875L150.6953125 258.46875C145.4140625 252.90625 136.5234375 252.90625 131.2578125 258.46875C128.4765625 260.96875 127.0859375 264.578125 127.0859375 268.1875S128.4765625 275.40625 131.2578125 277.90625L252.0859375 399.015625L372.9140625 277.90625C378.4765625000001 272.625 378.4765625000001 263.734375 372.9140625 258.46875C367.6328125 252.90625 358.7421875 252.90625 353.4765625 258.46875L265.9765625000001 345.6875V114.859375C265.9765625000001 107.0781249999999 259.8671875000001 100.96875 252.0859375000001 100.96875z" />
    <glyph glyph-name="006-asterisk"
      unicode="&#xE007;"
      horiz-adv-x="500" d="M373.03125 178.890625C370.25 174.4531250000001 365.8125 171.9531250000001 361.0937500000001 171.9531250000001C358.59375 171.9531250000001 356.09375 172.5156250000001 354.1562500000001 173.890625L263.8750000000001 226.109375V121.671875C263.8750000000001 114.171875 257.7656250000001 107.78125 249.9843750000001 107.78125S236.0937500000001 114.171875 236.0937500000001 121.671875V225.84375L145.8125000000001 174.1718750000001C143.5937500000001 173.0625 141.0937500000001 172.5000000000001 138.8750000000001 172.5000000000001C133.8750000000001 172.5000000000001 129.1562500000001 174.7187500000001 126.6562500000001 179.4375C122.7656250000001 186.109375 125.2656250000001 194.4375000000001 131.9375000000001 198.328125L222.2187500000001 250.0000000000001L131.9375000000001 302.21875C125.5468750000001 306.1093750000001 123.0468750000001 314.4375 126.9375000000001 321.109375S139.4375000000001 330 145.8281250000001 326.109375L236.1093750000001 273.890625V378.328125C236.1093750000001 385.828125 242.2187500000001 392.21875 250.0000000000001 392.21875S263.890625 385.8281250000001 263.890625 378.328125V274.1562500000001L354.171875 325.8281250000001C360.84375 329.7187500000001 369.4531250000001 327.5 373.34375 320.5468750000001C377.234375 313.8750000000001 374.734375 305.5468750000001 368.0625 301.6562500000001L277.78125 249.9843750000001L368.0625 197.7656250000001C374.453125 193.8750000000001 376.953125 185.5468750000001 373.0625 178.8750000000001z" />
    <glyph glyph-name="007-bell"
      unicode="&#xE008;"
      horiz-adv-x="500" d="M285.5468750000001 84.71875C285.8281250000001 84.15625 285.5468750000001 83.609375 285.2656250000001 83.046875C287.7656250000001 83.3281250000001 289.9843750000001 83.8750000000001 292.2031250000001 84.71875H285.5312500000001zM214.4218750000001 84.71875H207.7500000000001C209.9687500000001 83.890625 212.1875000000001 83.3281250000001 214.6875000000001 83.046875C214.4062500000001 83.6093750000001 214.1250000000001 84.1562500000001 214.4062500000001 84.71875zM214.4218750000001 84.71875H207.7500000000001C209.9687500000001 83.890625 212.1875000000001 83.3281250000001 214.6875000000001 83.046875C214.4062500000001 83.6093750000001 214.1250000000001 84.1562500000001 214.4062500000001 84.71875zM285.5468750000001 84.71875C285.8281250000001 84.15625 285.5468750000001 83.609375 285.2656250000001 83.046875C287.7656250000001 83.3281250000001 289.9843750000001 83.8750000000001 292.2031250000001 84.71875H285.5312500000001zM416.6562500000001 140.28125V251.3906250000001C415.2656250000002 336.671875 351.9375000000002 406.390625 270.8281250000002 416.671875C277.7656250000002 422.5 282.2187500000002 431.390625 282.2187500000002 441.109375C282.2187500000002 459.171875 267.7812500000002 473.609375 250.0000000000002 473.609375S217.7812500000001 459.171875 217.7812500000001 441.109375C217.7812500000001 431.390625 222.2187500000001 422.5 229.1718750000002 416.671875C148.0625000000001 406.390625 84.7343750000001 336.671875 83.3437500000001 251.3906250000001V140.28125L27.7812500000001 84.71875H186.1093750000001C189.1718750000001 51.9375 216.6718750000001 26.390625 250.0000000000001 26.390625S310.8281250000001 51.953125 313.8906250000001 84.71875H472.2187499999999L416.65625 140.28125zM249.9843750000001 445.828125C252.4843750000001 445.828125 254.4218750000001 443.609375 254.4218750000001 441.109375S252.4843750000001 436.390625 249.9843750000001 436.390625S245.5468750000001 438.609375 245.5468750000001 441.109375C245.5468750000001 443.609375 247.4843750000001 445.828125 249.9843750000001 445.828125zM285.2656250000001 83.0625C281.9375000000001 66.671875 267.2031250000001 54.171875 249.9843750000001 54.171875S218.0468750000001 66.671875 214.7031250000001 83.0625C212.2031250000001 83.34375 209.9843750000001 83.890625 207.7656250000001 84.734375H292.2031250000001C289.9843750000001 83.9062499999999 287.7656250000001 83.34375 285.2656250000001 83.0625zM94.7031250000001 112.5L103.0312500000001 120.5625L111.0937500000001 128.625V248.625C111.0937500000001 249.453125 111.0937500000001 250.5625 111.3750000000001 251.40625C111.3750000000001 252.234375 111.3750000000001 253.078125 111.6562500000001 253.90625C113.8750000000001 329.46875 174.9843750000001 390.296875 249.9843750000001 390.296875S386.0937500000001 329.46875 388.3125000000001 253.90625C388.5937500000002 253.078125 388.5937500000002 252.234375 388.5937500000002 251.40625C388.8750000000002 250.578125 388.8750000000002 249.4687500000001 388.8750000000002 248.625V128.625L396.9375000000001 120.5625L405.2656250000002 112.5000000000001H94.7031250000001z" />
    <glyph glyph-name="008-calendar"
      unicode="&#xE009;"
      horiz-adv-x="500" d="M406.140625 198.0625C411.703125 198.0625 415.859375 202.5 415.859375 207.78125C415.859375 213.34375 411.6875 217.21875 406.140625 217.21875H370.859375V253.328125H406.140625C411.703125 253.328125 415.859375 257.5 415.859375 262.765625C415.859375 268.59375 411.6875 272.484375 406.140625 272.484375H370.859375V305.546875C370.859375 310.8281249999999 366.421875 315.265625 361.140625 315.265625S351.421875 310.8281249999999 351.421875 305.546875V272.484375H315.3125V305.546875C315.3125 310.8281249999999 310.8750000000001 315.265625 305.59375 315.265625S295.875 310.8281249999999 295.875 305.546875V272.484375H259.765625V305.546875C259.765625 310.8281249999999 255.3281250000001 315.265625 250.0468750000001 315.265625S240.3281250000001 310.8281249999999 240.3281250000001 305.546875V272.484375H204.21875V305.546875C204.21875 310.8281249999999 199.78125 315.265625 194.5 315.265625S184.78125 310.8281249999999 184.78125 305.546875V272.484375H148.671875V305.546875C148.671875 310.8281249999999 144.234375 315.265625 138.953125 315.265625S129.234375 310.8281249999999 129.234375 305.546875V272.484375H97.015625C91.734375 272.484375 87.296875 268.59375 87.296875 262.765625C87.296875 257.484375 91.734375 253.328125 97.015625 253.328125H129.234375V217.21875H97.015625C91.734375 217.21875 87.296875 213.328125 87.296875 207.78125C87.296875 202.5 91.734375 198.0625 97.015625 198.0625H129.234375V161.390625H97.015625C91.734375 161.390625 87.296875 157.5 87.296875 151.671875C87.296875 146.390625 91.734375 142.234375 97.015625 142.234375H129.234375V110.5624999999999C129.234375 104.7343749999999 133.671875 100.5624999999999 138.953125 100.5624999999999S148.671875 104.7343749999999 148.671875 110.5624999999999V142.234375H184.78125V110.5624999999999C184.78125 104.7343749999999 189.21875 100.5624999999999 194.5 100.5624999999999S204.21875 104.7343749999999 204.21875 110.5624999999999V142.234375H240.3281250000001V110.5624999999999C240.3281250000001 104.7343749999999 244.7656250000001 100.5624999999999 250.0468750000001 100.5624999999999S259.765625 104.7343749999999 259.765625 110.5624999999999V142.234375H295.875V110.5624999999999C295.875 104.7343749999999 300.3125 100.5624999999999 305.59375 100.5624999999999S315.3125 104.7343749999999 315.3125 110.5624999999999V142.234375H351.421875V110.5624999999999C351.421875 104.7343749999999 355.859375 100.5624999999999 361.140625 100.5624999999999S370.859375 104.7343749999999 370.859375 110.5624999999999V142.234375H406.140625C411.703125 142.234375 415.859375 146.40625 415.859375 151.671875C415.859375 157.5 411.6875 161.390625 406.140625 161.390625H370.859375V198.0625H406.140625zM184.75 161.390625H148.640625V198.0625000000001H184.75V161.390625zM184.75 217.21875H148.640625V253.3281250000001H184.75V217.21875zM240.3125 161.390625H204.203125V198.0625000000001H240.3125V161.390625zM240.3125 217.21875H204.203125V253.3281250000001H240.3125V217.21875zM295.859375 161.390625H259.75V198.0625000000001H295.859375V161.390625zM295.859375 217.21875H259.75V253.3281250000001H295.859375V217.21875zM351.421875 161.390625H315.3125V198.0625000000001H351.421875V161.390625zM351.421875 217.21875H315.3125V253.3281250000001H351.421875V217.21875zM346.421875 429.4375V448.328125C346.421875 455.546875 340.59375 461.65625 333.3593750000001 461.65625S320.2968750000001 455.546875 320.2968750000001 448.328125V429.4375H179.7343750000001V448.328125C179.7343750000001 455.546875 173.9062500000001 461.65625 166.671875 461.65625S153.609375 455.546875 153.609375 448.328125V429.4375H27.78125V38.3281250000001H472.21875V429.4375H346.390625zM444.46875 66.109375H55.578125V343.890625H444.46875V66.109375zM444.46875 371.671875H55.578125V401.671875H153.640625V393.890625C153.640625 386.671875 159.46875 380.5625 166.703125 380.5625S179.765625 386.671875 179.765625 393.890625V401.671875H320.3281250000001V393.890625C320.3281250000001 386.671875 326.1562500000001 380.5625 333.390625 380.5625S346.453125 386.671875 346.453125 393.890625V401.671875H444.515625V371.671875z" />
    <glyph glyph-name="009-check-circle-o"
      unicode="&#xE00A;"
      horiz-adv-x="500" d="M214.296875 157.546875L130.25 241.59375C124.84375 247 124.84375 255.796875 130.25 261.2499999999999S144.453125 266.6562499999999 149.84375 261.2499999999999L214.296875 196.796875L350.140625 332.640625C355.5468750000001 338.046875 364.34375 338.046875 369.7343750000001 332.640625S375.1406250000001 318.4375 369.7343750000001 313.046875L214.2812500000001 157.546875zM250 444.453125C142.75 444.453125 55.546875 357.203125 55.546875 250S142.75 55.546875 250 55.546875C357.25 55.546875 444.453125 142.796875 444.453125 250S357.25 444.453125 250 444.453125zM250 472.203125C372.75 472.203125 472.203125 372.703125 472.203125 250S372.75 27.796875 250 27.796875C127.25 27.796875 27.796875 127.296875 27.796875 250S127.25 472.203125 250 472.203125V472.203125z" />
    <glyph glyph-name="010-check"
      unicode="&#xE00B;"
      horiz-adv-x="500" d="M195.3828125 120.25L71.1328125 244.5000000000001C65.1796875 250.4531250000001 65.1796875 260.1562500000001 71.1328125 266.0937500000001S86.7890625 272.0468750000001 92.7265625 266.0937500000001L195.4296875 163.4375L407.2734375 375.234375C413.2265625 381.1875 422.9296875 381.1875 428.8671875 375.234375S434.8203125 359.578125 428.8671875 353.640625L195.3671875 120.234375z" />
    <glyph glyph-name="011-chevron-down"
      unicode="&#xE00C;"
      horiz-adv-x="500" d="M250.015625 180.5625C246.453125 180.5625 242.90625 181.921875 240.1875 184.6250000000001L129.078125 295.7343750000001C123.65625 301.15625 123.65625 309.9531250000001 129.078125 315.3750000000001S143.296875 320.796875 148.71875 315.3750000000001L250.0000000000001 214.09375L351.28125 315.375C356.7031250000001 320.796875 365.5 320.796875 370.9218750000001 315.375S376.3437500000001 301.15625 370.9218750000001 295.734375L259.8125000000001 184.6250000000001C257.1406250000001 181.9375000000001 253.5937500000001 180.5625 250.0312500000001 180.5625z" />
    <glyph glyph-name="012-chevron-left"
      unicode="&#xE00D;"
      horiz-adv-x="500" d="M182.59375 250C182.59375 253.5625 183.953125 257.109375 186.65625 259.828125L297.765625 370.9375C303.1875 376.359375 311.984375 376.359375 317.40625 370.9375S322.8281250000001 356.71875 317.40625 351.296875L216.125 249.984375L317.40625 148.703125C322.8281250000001 143.28125 322.8281250000001 134.484375 317.40625 129.0625S303.1875 123.640625 297.765625 129.0625L186.65625 240.171875C183.96875 242.859375 182.59375 246.421875 182.59375 249.984375z" />
    <glyph glyph-name="013-chevron-right"
      unicode="&#xE00E;"
      horiz-adv-x="500" d="M317.40625 250C317.40625 246.4375 316.046875 242.890625 313.34375 240.171875L202.234375 129.0625C196.8125 123.640625 188.015625 123.640625 182.59375 129.0625S177.171875 143.28125 182.59375 148.703125L283.875 249.984375L182.59375 351.265625C177.171875 356.6875 177.171875 365.484375 182.59375 370.90625S196.8125 376.328125 202.234375 370.90625L313.34375 259.796875C316.03125 257.125 317.40625 253.578125 317.40625 250.015625z" />
    <glyph glyph-name="014-chevron-up"
      unicode="&#xE00F;"
      horiz-adv-x="500" d="M250 319.4375C253.5625000000001 319.4375 257.109375 318.078125 259.828125 315.375L370.9375000000001 204.265625C376.3593750000001 198.84375 376.3593750000001 190.046875 370.9375000000001 184.625S356.7187500000001 179.203125 351.296875 184.625L249.984375 285.90625L148.703125 184.625C143.28125 179.203125 134.484375 179.203125 129.0625 184.625S123.640625 198.84375 129.0625 204.265625L240.171875 315.375C242.859375 318.0625 246.421875 319.4375 249.984375 319.4375z" />
    <glyph glyph-name="015-clock"
      unicode="&#xE010;"
      horiz-adv-x="500" d="M250 472.21875C127.78125 472.21875 27.78125 372.21875 27.78125 250S127.78125 27.78125 250 27.78125S472.21875 127.78125 472.21875 250C472.21875 372.21875 372.2187500000001 472.21875 250 472.21875zM250 55.5625C141.671875 55.5625 55.5625 141.671875 55.5625 250.0000000000001S141.671875 444.4375000000001 250 444.4375000000001S444.4375000000001 358.3281250000001 444.4375000000001 250.0000000000001S358.3281250000001 55.5625 250 55.5625zM358.328125 250C358.328125 241.671875 352.765625 236.109375 344.4375 236.109375H250C241.671875 236.109375 236.109375 241.6718750000001 236.109375 250V388.890625C236.109375 397.21875 241.671875 402.78125 250 402.78125S263.890625 397.21875 263.890625 388.890625V263.890625H344.453125C352.78125 263.890625 358.34375 258.328125 358.34375 250z" />
    <glyph glyph-name="016-close-circle-o"
      unicode="&#xE011;"
      horiz-adv-x="500" d="M250 472.203125C127.25 472.203125 27.796875 372.703125 27.796875 250C27.796875 127.25 127.296875 27.796875 250 27.796875S472.203125 127.296875 472.203125 250C472.203125 372.75 372.75 472.203125 250 472.203125zM250 55.546875C142.75 55.546875 55.546875 142.796875 55.546875 250C55.546875 357.25 142.796875 444.453125 250 444.453125S444.453125 357.25 444.453125 250C444.453125 142.75 357.25 55.546875 250 55.546875zM342.296875 344.796875C336.890625 350.203125 328.09375 350.203125 322.703125 344.796875L250 272.09375L177.34375 344.796875C171.9375 350.203125 163.140625 350.203125 157.75 344.796875S152.34375 330.59375 157.75 325.203125L230.40625 252.5L157.703125 179.84375C152.296875 174.4375 152.296875 165.640625 157.703125 160.25C160.40625 157.546875 163.953125 156.203125 167.5 156.203125S174.59375 157.546875 177.296875 160.25L250 232.90625L322.65625 160.25C325.359375 157.5468750000001 328.90625 156.203125 332.453125 156.203125S339.546875 157.546875 342.25 160.25C347.65625 165.65625 347.65625 174.453125 342.25 179.84375L269.65625 252.5000000000001L342.3125 325.15625C347.71875 330.609375 347.71875 339.3593750000001 342.3125 344.8125z" />
    <glyph glyph-name="017-close"
      unicode="&#xE012;"
      horiz-adv-x="500" d="M269.7812500000001 250L400.0312500000001 380.25C405.4843750000001 385.703125 405.4843750000001 394.59375 400.0312500000001 400.046875S385.6875000000001 405.5 380.2343750000001 400.046875L249.9843750000001 269.796875L119.734375 400.046875C114.28125 405.5 105.3906249999999 405.5 99.9374999999999 400.046875S94.4843749999999 385.703125 99.9374999999999 380.25L230.1875000000001 250L99.9374999999999 119.75C94.4843749999999 114.296875 94.4843749999999 105.4062500000001 99.9374999999999 99.9531250000001C102.6874999999999 97.2031250000001 106.2343749999999 95.859375 109.84375 95.859375S117.0000000000001 97.203125 119.7500000000001 99.9531250000001L250.0000000000001 230.2031250000001L380.2500000000001 99.9531250000001C383.0000000000001 97.2031250000001 386.5468750000001 95.8593750000001 390.1562500000001 95.8593750000001S397.3125000000001 97.2031250000001 400.0625000000001 99.9531250000001C405.5156250000001 105.4062500000001 405.5156250000001 114.2968750000001 400.0625000000001 119.7500000000001L269.8125000000001 250.0000000000001z" />
    <glyph glyph-name="018-code"
      unicode="&#xE013;"
      horiz-adv-x="500" d="M135.6953125 53.53125C107.1953125 53.53125 79.1171875 77.0937499999999 79.1171875 114.203125V207.453125C79.1171875 224.234375 71.4453125 238.703125 55.5546875 238.703125V261.3125C71.4140625 261.3125 79.1171875 275.78125 79.1171875 292.53125V385.34375C79.1171875 422.921875 107.1953125 446.453125 135.6953125 446.453125H163.3046875V421.5625H135.6953125C119.3828125 421.5625 105.8359375 406.640625 105.8359375 385.34375V289.84375C105.8359375 270.8125 99.9453125 256.34375 85.0078125 250.015625C99.9453125 243.65625 105.8359375 229.1875 105.8359375 210.15625V114.6562499999999C105.8359375 93.8437499999999 119.3984375 78.4374999999999 135.6953125 78.4374999999999H163.3046875V53.5468749999999H135.6953125zM194.4453125 111.109375L277.7734375 388.890625H305.5546875L222.2265625 111.109375H194.4453125zM336.7265625 78.4375H364.3359375C380.6171875 78.4375 394.1953125 93.8593749999999 394.1953125 114.65625V210.1562500000001C394.1953125 229.1875000000001 400.0859375 243.65625 415.0234375 250.0156250000001C400.0859375 256.34375 394.1953125 270.8281250000001 394.1953125 289.84375V385.3437500000001C394.1953125 406.6562500000001 380.6171875 421.5625 364.3359375 421.5625H336.7265625V446.4531250000001H364.3359375C393.3046875 446.4531250000001 420.9140625 422.890625 420.9140625 385.3437500000001V292.53125C420.9140625 275.78125 428.5859375 261.3125 444.4453125 261.3125V238.703125C428.6171875 238.703125 420.9140625 224.2343750000001 420.9140625 207.453125V114.203125C420.9140625 77.09375 393.3046875 53.5312500000001 364.3359375 53.5312500000001H336.7265625V78.4218750000001z" />
    <glyph glyph-name="019-coins"
      unicode="&#xE014;"
      horiz-adv-x="500" d="M454.7109375000001 275.828125C454.9921875000001 276.65625 454.9921875000001 277.5 454.9921875000001 278.328125C454.9921875000001 300.265625 432.4921875000001 316.65625 398.6015625000002 327.5C398.3203125000002 327.5 397.7734375000002 327.78125 397.4921875000001 327.78125C398.0546875000002 328.609375 398.6015625000002 329.453125 398.8828125000001 330.5625C399.4453125000001 331.671875 399.4453125000001 332.78125 399.4453125000001 333.890625V385.28125C399.4453125000001 385.84375 399.4453125000001 386.390625 399.1640625000001 386.671875V386.953125C399.4453125000001 387.78125 399.4453125000001 388.625 399.4453125000001 389.453125C399.4453125000001 476.125 45.0078125000001 476.125 45.0078125000001 389.453125C45.0078125000001 388.625 45.0078125000001 387.78125 45.2890625000001 386.953125V386.671875C45.0078125000001 386.390625 45.0078125000001 385.84375 45.0078125000001 385.28125V333.890625C45.0078125000001 331.671875 45.2890625000001 329.71875 45.8359375000001 327.78125C49.4453125000001 308.890625 70.8359375000001 294.453125 101.3984375000001 284.171875C100.8359375000001 282.234375 100.5703125000001 280.28125 100.5703125000001 278.34375C100.5703125000001 277.515625 100.5703125000001 276.671875 100.8515625000001 275.84375V275.5625C100.5703125000001 275.28125 100.5703125000001 274.734375 100.5703125000001 274.171875V222.78125C100.5703125000001 220.5625 100.8515625000001 218.609375 101.3984375000001 216.671875V216.390625C67.5078125000001 205.5625 45.0078125000001 189.171875 45.0078125000001 167.21875C45.0078125000001 166.390625 45.0078125000001 165.546875 45.2890625000001 164.71875V164.4375C45.0078125000001 164.15625 45.0078125000001 163.609375 45.0078125000001 163.046875V111.6562499999999C45.0078125000001 109.4374999999999 45.2890625000001 107.4843749999999 45.8359375000001 105.5468749999999C53.8984375000001 66.1093749999999 138.6171875000001 45.5468749999999 222.2265625000001 45.5468749999999C310.2890625000001 45.5468749999999 399.4453125000001 68.3281249999999 399.4453125000001 111.6562499999999V163.046875C399.4453125000001 163.609375 399.4453125000001 164.15625 399.1640625000001 164.4374999999999V164.7187499999999C399.4453125000001 165.546875 399.4453125000001 166.3906249999999 399.4453125000001 167.21875C399.4453125000001 169.1562499999999 399.1640625000001 171.1093749999999 398.6171875000001 173.046875C432.2265625000001 184.4375 455.0078124999999 200.8281249999999 455.0078124999999 222.7656249999999V274.1562499999999C455.0078124999999 274.7187499999999 455.0078124999999 275.2656249999999 454.7265624999999 275.5468749999999V275.8281249999999zM378.6015625000001 332.78125C378.6015625000001 332.78125 378.3203125000001 333.0625 378.0390625000001 332.78125C377.4765625000001 327.5 371.6484375000001 321.390625 361.6484375000001 315.5625C356.0859375000001 312.234375 349.4296875000001 309.171875 341.6484375000001 306.390625V339.453125C356.0859375000001 344.171875 368.5859375000001 349.734375 378.3203125000001 356.390625V333.890625C378.3203125000001 333.609375 378.3203125000001 333.0625 378.6015625000001 332.78125zM222.2109375000001 434.4375C317.4921875000001 434.4375 378.3203125000001 407.765625 378.3203125000001 389.4375S317.4921875000001 344.4375 222.2109375000001 344.4375S66.1015625000001 371.109375 66.1015625000001 389.4375C66.1015625000001 407.765625 126.9296875000002 434.4375 222.2109375000001 434.4375zM324.9921875000001 334.71875V301.109375C313.6015625000001 298.046875 300.5546875000001 295.28125 286.1015625000001 293.328125V327.5C299.7109375000001 329.171875 312.7734375000001 331.671875 324.9921875000001 334.71875zM269.4296875000001 325.5625V291.125C257.2109375000001 290.015625 244.4296875000001 289.1875 230.5390625000001 288.90625V323.625C243.6015625000001 323.625 256.6484375000001 324.453125 269.4296875000001 325.5625zM213.8828125000001 323.609375V288.890625C199.9921875000001 289.171875 187.2109375000001 290 174.9921875000001 291.109375V325.546875C187.7734375000001 324.4375 200.8203125000001 323.609375 213.8828125000001 323.609375zM119.4296875000001 301.109375V334.71875C131.1015625000001 331.65625 143.6015625000001 329.4375 156.9296875000001 327.5C157.4921875000001 327.5 157.7578125000001 327.78125 158.3203125000001 327.78125V293.34375C151.3828125000001 294.171875 144.7109375000001 295.28125 138.3203125000001 296.671875C131.6484375000001 298.0625 125.2578125000001 299.453125 119.4296875000001 301.109375zM121.6640625000001 245.28125C131.3828125000001 238.609375 143.8828125000001 233.0625 158.3359375000001 228.34375V195.28125C150.5546875000001 198.0625000000001 143.8984375000001 201.1093750000001 138.3359375000001 204.453125C128.3359375000001 210.2812500000001 122.5078125000001 216.390625 121.9453125000001 221.671875H121.6640625000001V245.28125zM66.1015625000001 333.890625V356.390625C75.8203125000001 349.71875 88.3203125000001 344.171875 102.7734375000001 339.453125V306.390625C79.1640625000001 315 66.1015625000001 325.28125 66.1015625000001 333.890625zM66.1015625000001 111.671875V134.171875C75.8203125000001 127.5 88.3203125000001 121.953125 102.7734375000001 117.234375V84.171875C79.1640625000001 92.78125 66.1015625000001 103.0625 66.1015625000001 111.6718750000001zM158.3203125000001 71.109375C143.8828125000001 73.0468749999999 130.8203125000001 75.8281249999999 119.4296875000001 78.890625V112.5C131.6484375000001 109.4374999999999 144.7109375000001 106.9374999999999 158.3203125000001 105.28125V71.109375zM213.8828125000001 66.671875C199.9921875000001 66.953125 187.2109375000001 67.78125 174.9921875000001 68.890625V103.328125C187.7734375000001 102.2187499999999 200.8203125000001 101.390625 213.8828125000001 101.390625V66.671875zM269.4296875000001 68.890625C257.2109375000001 67.7812499999999 244.4296875000001 66.953125 230.5390625000001 66.671875V101.390625C243.6015625000001 101.390625 256.6484375000001 102.21875 269.4296875000001 103.328125V68.890625zM324.9921875000001 78.890625C313.6015625000001 75.8281249999999 300.5546875000001 73.0625 286.1015625000001 71.109375V105.28125C299.7109375000001 106.953125 312.7734375000001 109.453125 324.9921875000001 112.5V78.890625zM378.3203125000001 111.671875C378.3203125000001 103.0625 365.2578125000002 92.78125 341.6484375000001 84.1718749999999V117.234375C356.0859375000001 121.953125 368.5859375000001 127.515625 378.3203125000001 134.171875V111.6718749999999zM378.3203125000001 167.21875C378.3203125000001 148.8906250000001 317.4921875000001 122.2187500000001 222.2109375000001 122.2187500000001S66.1015625000001 148.8906250000001 66.1015625000001 167.21875C66.1015625000001 176.9375 82.7734375000001 188.609375 112.2109375000001 197.78125C139.1484375000001 170.5625 208.8828125000002 156.671875 277.7734375000002 156.671875C313.0546875000001 156.671875 348.3359375000002 160.2812500000001 378.3359375000002 167.5000000000001V167.21875zM174.9921875000001 190V223.609375C187.2109375000001 220.546875 200.2734375000001 218.046875 213.8828125000001 216.390625V182.21875C199.4453125000001 184.15625 186.3828125000001 186.9375 174.9921875000001 190zM230.5546875000001 180V214.4375C243.3359375000001 213.328125 256.3828125000001 212.5 269.4453125000001 212.5V177.78125C255.5546875000002 178.0625 242.7734375000001 178.890625 230.5546875000001 180zM286.1015625000001 177.78125V212.5C299.1640625000001 212.5 312.2109375000001 213.3281250000001 324.9921875000001 214.4375V180C312.7734375000001 178.890625 299.9921875000001 178.0625 286.1015625000001 177.78125zM380.5546875000001 190C374.7265625000001 188.328125 368.3359375000001 186.9375 361.6640625000002 185.5625C355.2734375000002 184.1718750000001 348.6015625000002 183.0625 341.6640625000001 182.234375V216.671875C342.2265625000002 216.671875 342.4921875000001 216.390625 343.0546875000001 216.390625C356.3828125000001 218.328125 368.8828125000001 220.5625 380.5546875000001 223.609375V190zM433.8828125000001 222.78125C433.8828125000001 214.171875 420.8203125000001 203.890625 397.2109375000001 195.28125V228.34375C411.6484375000001 233.0625 424.1484375000001 238.625 433.8828125000001 245.28125V222.78125zM277.7734375000001 233.328125C182.4921875000001 233.328125 121.6640625000001 260 121.6640625000001 278.328125V278.609375C151.6640625000001 271.390625 186.9453125000001 267.78125 222.2265625000001 267.78125C291.1171875000001 267.78125 360.8359375000001 281.671875 387.7890625000001 308.890625C417.2265625000001 299.71875 433.8984375000001 288.0625 433.8984375000001 278.328125C433.8984375000001 260 373.0703125000001 233.328125 277.7890625000001 233.328125zM378.6015625000001 332.78125C378.6015625000001 332.78125 378.3203125000001 333.0625 378.0390625000001 332.78125C378.3203125000001 333.0625 378.3203125000001 333.609375 378.3203125000001 333.890625C378.3203125000001 333.609375 378.3203125000001 333.0625 378.6015625000001 332.78125zM398.8828125000001 330.5625C399.1640625000001 329.453125 398.8828125000001 328.34375 398.6015625000001 327.5C398.3203125000001 327.5 397.7734375000001 327.78125 397.4921875000001 327.78125C398.0546875000001 328.609375 398.6015625000001 329.453125 398.8828125000001 330.5625zM156.9296875000001 327.5H158.3203125000001V327.78125C157.7578125000001 327.78125 157.4921875000001 327.5 156.9296875000001 327.5zM45.8203125000001 327.78125C45.2578125000001 329.171875 44.9921875000001 330.5625 44.9921875000001 331.953125V333.890625C44.9921875000001 331.671875 45.2734375000001 329.71875 45.8203125000001 327.78125z" />
    <glyph glyph-name="020-copy"
      unicode="&#xE015;"
      horiz-adv-x="500" d="M342.1250000000005 452.861111111111H173.875V386.8888888888888H201.6527777777778V425.0833333333333H314.3472222222228V344.1666666666663H387.0138888888891V168.6944444444438H354.4027777777785V140.9166666666661H414.7916666666668V371.9444444444441L342.1250000000005 452.861111111111zM342.1250000000005 409.6666666666664L376.3194444444448 371.9444444444441H342.1250000000005V409.6666666666664zM253.4583333333336 359.1111111111111H85.2083333333332V47.1666666666661H326.125V278.1944444444441L253.4583333333336 359.1111111111111zM288.9305555555539 278.1944444444441H253.4583333333306V318.0277777777781L288.9305555555539 278.1944444444441zM298.3472222222221 74.9166666666667H112.9861111111109V331.3055555555561H225.6805555555559V250.3888888888892H298.3472222222221V74.9166666666667z" />
    <glyph glyph-name="021-email-share"
      unicode="&#xE016;"
      horiz-adv-x="500" d="M120.3611111111111 341.3333333333336V146.8888888888892H379.6111111111118V341.3333333333336H120.3611111111111zM249.9999999999992 231.3333333333327L167.7777777777776 313.5555555555543H332.2222222222225L249.9999999999992 231.3333333333327zM191.1944444444432 250.8611111111113L148.1388888888873 200.6388888888893V293.9166666666672L191.1944444444432 250.8611111111113zM210.8888888888877 231.1666666666668L249.9999999999992 192.0555555555552L289.1111111111108 231.1666666666668L337.5277777777789 174.666666666667H162.4722222222227L210.8888888888877 231.1666666666668zM308.8055555555537 250.8611111111113L351.861111111108 293.9166666666672V200.6666666666664L308.8055555555537 250.8611111111113zM249.9999999999992 444.6666666666662C357.3333333333335 444.6666666666662 444.6666666666671 357.3333333333327 444.6666666666671 250S357.3333333333335 55.3333333333338 249.9999999999992 55.3333333333338S55.3333333333331 142.6666666666673 55.3333333333331 250S142.6666666666666 444.6666666666662 249.9999999999992 444.6666666666662M249.9999999999992 472.4444444444439C127.1388888888881 472.4444444444439 27.5555555555553 372.8611111111112 27.5555555555553 250S127.1388888888881 27.5555555555561 249.9999999999992 27.5555555555561S472.4444444444447 127.1388888888888 472.4444444444447 250S372.8611111111104 472.4444444444439 249.9999999999992 472.4444444444439L249.9999999999992 472.4444444444439z" />
    <glyph glyph-name="022-empty"
      unicode="&#xE017;"
      horiz-adv-x="500" d="" />
    <glyph glyph-name="023-exclamation-circle-o"
      unicode="&#xE018;"
      horiz-adv-x="500" d="M250 219.4375C241.671875 219.4375 236.109375 225.0000000000001 236.109375 233.328125V369.4375C236.109375 377.765625 241.671875 383.328125 250 383.328125S263.890625 377.765625 263.890625 369.4375V236.109375C263.890625 227.78125 258.328125 219.4375 250 219.4375zM250 113.890625C241.671875 113.890625 236.109375 119.4531250000001 236.109375 127.78125V144.453125C236.109375 152.7812500000001 241.671875 158.34375 250 158.34375S263.890625 152.78125 263.890625 144.453125V127.78125C263.890625 119.453125 258.328125 113.890625 250 113.890625zM250 444.4375C358.328125 444.4375 444.4375000000001 358.328125 444.4375000000001 250S358.3281250000001 55.5624999999999 250 55.5624999999999S55.5625 141.671875 55.5625 250S141.671875 444.4375 250 444.4375zM250 472.21875C127.78125 472.21875 27.78125 372.21875 27.78125 250S127.78125 27.78125 250 27.78125S472.21875 127.78125 472.21875 250S372.2187500000001 472.21875 250 472.21875V472.21875z" />
    <glyph glyph-name="024-flag"
      unicode="&#xE019;"
      horiz-adv-x="500" d="M407.4444444444447 292.4166666666663L259.2222222222221 341.2499999999991V358.4722222222215L92.5555555555554 429.6944444444443V70.3055555555557H120.3333333333332V221.4444444444439L231.4444444444443 245.6111111111107V231.7222222222218L407.4444444444447 292.4166666666663z" />
    <glyph glyph-name="025-gear"
      unicode="&#xE01A;"
      horiz-adv-x="500" d="M270.0972222222207 298.2777777777793C296.708333333331 287.194444444446 309.347222222221 256.5277777777783 298.2638888888877 229.9166666666679C287.1805555555543 203.3055555555576 256.5138888888865 190.6666666666676 229.9027777777762 201.7500000000009C203.2916666666658 212.8333333333343 190.6527777777759 243.5000000000021 201.7361111111093 270.1111111111124C212.8194444444426 296.7222222222227 243.4861111111105 309.3611111111096 270.0972222222207 298.2777777777793M280.1527777777785 322.4166666666659C240.152777777777 339.055555555556 194.2361111111129 320.1388888888883 177.5972222222228 280.1388888888868C160.9583333333326 240.1388888888852 179.8750000000004 194.2499999999983 219.8750000000019 177.583333333331C259.8750000000034 160.9444444444408 305.7638888888903 179.8611111111086 322.4305555555576 219.8611111111101C339.0694444444447 259.8333333333345 320.1527777777769 305.7499999999985 280.1527777777785 322.4166666666659L280.1527777777785 322.4166666666659zM164.5972222222206 44.8333333333342C157.0416666666638 47.9722222222247 149.8472222222221 51.5277777777783 142.8472222222203 55.3888888888897L133.6805555555525 60.4444444444457L149.1527777777751 113.3055555555574C135.208333333332 123.527777777781 123.0694444444428 135.6944444444474 112.9027777777765 149.6388888888905L60.0416666666648 134.3333333333337L55.0416666666662 143.5555555555557C47.2916666666663 157.8055555555567 41.1250000000002 172.8055555555557 36.6805555555567 188.1666666666667L33.7638888888895 198.2222222222213L82.0138888888886 224.5833333333312C79.402777777776 241.6388888888877 79.4583333333333 258.8333333333298 82.1527777777773 275.9166666666634L33.8194444444437 302.5277777777736L36.8194444444423 312.6111111111086C39.0972222222199 320.2777777777739 41.7083333333324 327.8611111111079 44.8194444444426 335.3611111111074C47.958333333333 342.8888888888841 51.5138888888866 350.0833333333288 55.3194444444438 357.0555555555505L60.3472222222226 366.3055555555496L113.2916666666657 350.7777777777727C123.5138888888894 364.7222222222158 135.6805555555557 376.861111111105 149.6249999999988 387.0277777777713L134.3472222222223 439.8611111111058L143.5416666666672 444.8888888888847C157.5694444444449 452.5833333333304 172.5416666666668 458.7499999999965 188.1250000000011 463.3055555555517L198.208333333336 466.249999999996L224.597222222226 417.9722222222166C241.5972222222252 420.5555555555489 258.8194444444475 420.5277777777718 275.9305555555583 417.8333333333279L302.5416666666686 466.0833333333269L312.5972222222231 463.1388888888826C327.9305555555571 458.6388888888816 343.1527777777794 452.3055555555497 357.1527777777799 444.5833333333269L366.3194444444477 439.5277777777709L350.847222222225 386.6666666666593C364.7916666666682 376.4444444444356 376.9305555555574 364.2777777777692 387.0972222222236 350.3333333333261L439.9583333333353 365.6388888888829L444.9583333333339 356.4166666666609C452.7083333333337 342.1666666666599 458.8749999999999 327.1666666666609 463.3194444444435 311.8055555555499L466.2361111111106 301.7499999999953L417.9861111111116 275.3888888888854C420.5972222222241 258.333333333329 420.5416666666667 241.1388888888868 417.8472222222228 224.0555555555533L466.1527777777792 197.4166666666658L463.1527777777807 187.3333333333309C460.9027777777802 179.6944444444427 458.2916666666709 172.1111111111087 455.1527777777804 164.5833333333321C452.0416666666702 157.0833333333326 448.4861111111135 149.8888888888877 444.6527777777792 142.888888888889L439.6250000000003 133.6388888888899L386.6805555555573 149.1666666666668C376.4583333333337 135.2222222222237 364.2916666666673 123.0833333333345 350.3472222222242 112.9166666666682L365.6250000000007 60.0833333333336L356.4305555555558 55.0555555555548C342.4027777777781 47.3611111111091 327.4305555555563 41.194444444443 311.8472222222219 36.6388888888878L301.763888888887 33.6944444444435L275.3749999999969 81.9722222222228C258.3194444444404 79.3611111111103 241.1249999999983 79.4166666666677 224.0416666666648 82.1111111111116L197.4305555555544 33.8611111111125L187.3749999999999 36.8055555555568C179.7361111111116 39.0833333333344 172.1527777777776 41.6944444444438 164.5972222222206 44.8333333333342zM164.7361111111094 73.4444444444446C171.2361111111104 70.3055555555541 178.0138888888859 67.4722222222215 184.8194444444416 65.0833333333322L210.4305555555534 111.5277777777774L219.930555555553 109.4722222222231C239.791666666665 105.1944444444454 259.8749999999971 105.1111111111109 279.6527777777746 109.3055555555572L289.1527777777741 111.3333333333344L314.5138888888856 64.9166666666664C321.3749999999954 67.3055555555556 328.1249999999969 70.083333333334 334.6527777777751 73.2222222222213L319.9305555555536 124.0277777777755L328.0972222222198 129.2777777777745C345.0694444444417 140.2499999999963 359.2916666666655 154.4444444444398 370.3472222222186 171.4722222222191L375.6805555555522 179.6111111111082L426.5416666666638 164.6666666666635C428.1249999999976 167.9166666666624 429.6249999999968 171.2222222222187 431.0138888888844 174.5833333333293C432.4305555555524 177.9444444444399 433.6805555555512 181.3611111111079 434.8749999999958 184.7499999999956L388.4305555555507 210.3611111111074L390.486111111105 219.8611111111069C394.7638888888827 239.722222222219 394.8472222222172 259.8055555555511 390.6527777777709 279.5833333333286L388.6249999999937 289.0833333333281L435.0416666666617 314.4444444444395C432.6527777777725 321.2777777777723 429.8749999999941 328.0277777777738 426.7361111111068 334.5833333333291L375.9305555555526 319.8888888888847L370.6805555555535 328.0555555555509C359.7083333333318 345.0277777777729 345.5138888888883 359.2499999999967 328.486111111109 370.3055555555498L320.3472222222199 375.6111111111062L335.2361111111073 426.4999999999949C328.7638888888865 429.6944444444397 321.9861111111079 432.5277777777722 315.1527777777751 434.8611111111072L289.5694444444404 388.4722222222195L280.0694444444409 390.5277777777738C260.1249999999975 394.7777777777743 240.0416666666622 394.8333333333286 220.3749999999963 390.6666666666626L210.8472222222197 388.6388888888854L185.4861111111083 435.0555555555534C178.6249999999983 432.6666666666642 171.8749999999969 429.8888888888858 165.3472222222187 426.7499999999984L180.0694444444401 375.9444444444443L171.9027777777739 370.6944444444452C154.9305555555521 359.7222222222235 140.7083333333283 345.52777777778 129.6527777777752 328.5000000000007L124.3472222222188 320.3611111111116L73.4583333333301 335.2777777777792C71.8749999999963 332.0277777777802 70.374999999997 328.7222222222239 68.9861111111094 325.3611111111133C67.5694444444415 322.0000000000028 66.3194444444426 318.5833333333348 65.124999999998 315.1944444444471L111.5694444444431 289.6388888888926L109.5416666666659 280.1111111111159C105.2638888888883 260.2500000000039 105.1805555555536 240.1666666666718 109.3749999999999 220.3888888888943L111.4027777777773 210.8888888888948L64.9861111111092 185.5277777777834C67.3749999999985 178.6944444444506 70.1527777777769 171.9444444444491 73.2916666666642 165.3888888888938L124.0972222222184 180.0833333333382L129.3472222222174 171.916666666672C140.3194444444391 154.94444444445 154.5138888888826 140.7222222222262 171.541666666662 129.6666666666732L179.680555555551 124.3611111111167L164.7361111111094 73.4444444444446z" />
    <glyph glyph-name="026-globe"
      unicode="&#xE01B;"
      horiz-adv-x="500" d="M250 472.5C127.21875 472.5 27.4999999999999 372.78125 27.4999999999999 250S127.21875 27.4999999999999 250 27.4999999999999S472.5000000000001 127.21875 472.5000000000001 250C472.5000000000001 372.78125 372.7812500000001 472.5 250 472.5zM381.9375 361.390625C372.765625 357.5 362.765625 355.28125 353.046875 355.28125H351.65625C349.984375 355.28125 349.15625 356.109375 349.71875 358.34375C353.3281250000001 362.234375 366.390625 365.84375 374.7187500000001 365.84375C376.65625 365.84375 378.3281250000001 365.84375 379.7187500000001 365.28125C381.3906250000001 365 382.7812500000001 362.78125 381.9375000000001 361.390625zM83.8906249999999 315.828125C85.8281249999999 319.15625 88.6093749999999 323.890625 90.8281249999999 329.71875C94.4374999999999 340 94.4374999999999 349.71875 94.4374999999999 357.5C94.4374999999999 361.109375 94.4374999999999 364.4375 94.9999999999999 367.21875C104.4374999999999 380.28125 115.828125 391.65625 128.609375 401.65625C132.5 403.59375 136.109375 403.875 141.671875 403.875H148.34375L150.5625 403.59375H156.671875C155.84375 399.984375 156.109375 396.09375 157.234375 391.921875C160.296875 379.140625 171.125 371.09375 184.453125 371.09375C191.125 371.09375 196.953125 372.765625 200.84375 374.15625C207.5156249999998 376.09375 213.0625 379.15625 217.515625 381.375C221.953125 383.875 224.734375 385.265625 226.6875 385.265625C227.515625 385.265625 228.3593749999999 384.984375 229.7499999999999 384.703125C231.9687499999999 384.140625 233.3593749999999 382.765625 234.1875 381.375C233.078125 381.09375 231.96875 380.8125 231.125 380.8125C228.0625 380.25 225.296875 379.421875 222.2343749999998 378.875C200.296875 373.046875 185.2968749999998 358.046875 172.234375 344.703125C162.796875 335.53125 154.171875 326.640625 145.5624999999998 323.3125C143.890625 323.03125 141.953125 323.03125 139.734375 322.75C130.015625 322.1875 115.296875 321.359375 106.1249999999998 309.421875C103.6249999999998 306.359375 100.8437499999998 301.640625 100.0156249999998 295.25C93.3437499999998 301.078125 86.6874999999998 307.46875 83.0781249999998 313.03125C83.0781249999998 313.3125 82.7968749999999 313.59375 82.7968749999999 313.59375C83.0781249999998 314.421875 83.6249999999998 314.984375 83.9062499999998 315.8125zM250 55.28125C142.78125 55.28125 55.2812499999999 142.78125 55.2812499999999 250C55.2812499999999 269.171875 58.0624999999999 287.78125 63.6093749999999 305.28125C64.1718749999999 304.171875 64.7187499999999 302.78125 65.5468749999999 301.671875C72.7656249999999 290.28125 86.6562499999999 279.171875 97.2187499999999 270.5625C111.3906249999999 259.171875 129.4375 248.0625000000001 148.046875 245.8437500000001C150.828125 245.5625000000001 153.046875 245.28125 154.71875 245.28125C163.609375 245.28125 161.390625 249.71875 152.21875 259.71875C145 267.78125 122.78125 276.65625 120.828125 287.21875C117.21875 306.109375 142.5 299.71875 152.5 303.609375C181.109375 315 196.671875 350.28125 227.5000000000001 358.609375C240.5625000000001 362.21875 253.8906250000001 360.546875 255.5625000000001 378.328125C256.953125 390.828125 247.2343750000001 401.109375 236.1250000000001 404.4375C232.5156250000001 405.546875 229.4531250000001 406.109375 226.6875000000001 406.109375C214.7500000000001 406.109375 206.96875 397.78125 194.75 393.890625C192.5312500000001 393.328125 188.359375 391.953125 184.46875 391.953125C181.4062500000001 391.953125 178.359375 393.0625 177.53125 396.953125C175.859375 403.625 181.96875 404.453125 185.03125 409.171875C192.25 420 176.7031250000001 423.34375 163.640625 424.171875C189.75 437.5 218.9218750000001 444.734375 250.0312500000001 444.734375C290.8593750000001 444.734375 328.9218750000001 431.953125 360.03125 410.296875C356.1406250000001 405.859375 353.9218750000001 400.296875 355.8593750000001 394.1875C358.6406250000001 384.1875 376.421875 385.578125 377.2500000000001 379.75C367.5312500000001 377.53125 313.0781250000001 371.96875 328.0781250000001 351.140625C333.6406250000001 341.96875 342.2500000000001 338.921875 351.4062500000001 338.921875C361.96875 338.921875 373.0781250000001 342.8125 381.4062500000001 345.59375C388.3437500000001 347.8125 392.2343750000001 349.484375 398.0781250000001 349.484375C400.0156250000001 349.484375 401.9687500000001 349.484375 404.4687500000001 348.921875C408.90625 348.359375 414.7500000000001 345.03125 420.578125 343.359375C426.6875 332.796875 431.4062500000001 321.6875 435.015625 310.03125C433.6250000000001 310.3125000000001 432.234375 310.3125000000001 430.84375 310.3125000000001C427.234375 310.3125000000001 423.34375 310.03125 419.7343750000001 310.03125C418.0625000000001 310.03125 416.4062500000001 310.03125 415.0156250000001 310.3125000000001C398.3437500000001 311.7031250000001 399.1875 323.3750000000001 388.3437500000001 328.6406250000001C385.28125 330.3125 381.6718750000001 330.859375 378.0625 330.859375C367.5000000000001 330.859375 355.2812500000001 326.1406250000001 346.671875 323.921875C325 318.640625 318.3437500000001 314.75 310.8437500000001 293.359375C301.4062500000001 268.078125 308.34375 240.8593750000001 337.2343750000001 238.6406250000001H338.625C345.296875 238.6406250000001 354.4531250000001 241.4218750000001 362.515625 241.4218750000001C367.515625 241.4218750000001 371.953125 240.3125000000001 375.2968750000001 236.9843750000001C380.8593750000001 230.8750000000001 375.2968750000001 225.5937500000001 378.3593750000001 218.9218750000001C381.9687500000001 211.1406250000001 388.6406250000001 210.5937500000001 389.4687500000001 200.5937500000001C390.5781250000001 185.8750000000001 376.6875 179.4843750000001 381.96875 164.4843750000001C383.90625 159.4843750000001 390.0312500000001 153.6562500000001 392.53125 148.0937500000001C395.03125 142.8125000000001 395.03125 136.7031250000002 399.203125 131.9843750000002C400.03125 130.8750000000001 401.140625 129.7656250000002 401.984375 129.2031250000001C366.703125 84.2031250000002 311.703125 55.3125000000002 250.046875 55.3125000000002zM411.390625 156.9375C409.171875 161.375 406.671875 165.0000000000001 404.171875 168.328125C403.34375 169.4375 402.5 170.265625 401.953125 171.390625C402.2343750000001 172.2187500000001 403.0625000000001 173.609375 403.625 174.7187500000001C406.6875000000001 180.828125 411.125 189.7187500000001 410.015625 202.5C408.90625 215.8281250000001 402.234375 222.7812500000001 398.34375 226.390625C398.90625 231.9531250000001 399.171875 241.953125 390.28125 251.390625C383.3437500000001 258.609375 373.8906250000001 262.21875 362.5000000000001 262.21875C356.3906250000001 262.21875 350.8281250000001 261.390625 346.1093750000001 260.546875C343.3281250000001 259.984375 340.8281250000001 259.4375 338.6093750000001 259.4375C332.2187500000001 260 330.546875 262.5 330.0000000000001 263.328125C327.5000000000001 267.21875 326.3906250000001 275.828125 330.2812500000001 286.390625C335.0000000000001 299.71875 335.0000000000001 299.71875 351.6718750000001 303.890625C354.1718750000001 304.453125 356.9531250000001 305.28125 359.7343750000001 306.109375C365.5625000000001 307.78125 373.0625000000001 310 378.0625000000001 310C378.3437500000001 310 378.8906250000001 310 378.8906250000001 310C379.1718750000001 310 379.1718750000001 310 379.1718750000001 310C379.7343750000001 309.4375 380.5625000000001 308.328125 381.3906250000001 307.21875C385.8281250000001 301.65625 394.1718750000001 291.109375 413.3281250000001 289.4375C415.2656250000001 289.4375 417.5000000000001 289.15625 419.7187500000001 289.15625C421.6562500000001 289.15625 423.8906250000001 289.15625 425.8281250000001 289.4375H433.0468750000001C443.8750000000001 246.375 436.1093750000001 198.328125 411.9375000000001 155.828125C411.6562500000001 156.390625 411.3750000000001 156.65625 411.3750000000001 156.9375zM191.671875 240.171875C193.28125 240.171875 196.140625 239.953125 200.5 238.84375C207.96875 236.953125 214.640625 231.875 222.359375 225.953125C230 220.125 238.640625 213.515625 249.609375 208.953125C258.71875 205.171875 261.078125 202.390625 261.296875 202.390625V202.390625C261.265625 201.890625 260.9375 199.421875 257.6875 194.21875C255.078125 190.046875 252.5 185.796875 249.90625 181.546875C241.546875 167.828125 232.875 153.609375 223.484375 141.828125C220.15625 137.640625 216.65625 133.25 213.59375 128.078125C213.515625 131.578125 213.59375 135.328125 213.65625 139.15625C213.90625 154.484375 214.21875 171.84375 206.234375 187.625C200.421875 199.15625 191.703125 204.15625 186.515625 207.1875C185.328125 207.875 183.6875 208.828125 183.296875 209.1875C182.109375 210.625 181.859375 210.9375 183.359375 221.40625C185.640625 237.375 188.828125 239.765625 188.859375 239.796875C188.890625 239.796875 189.609375 240.15625 191.671875 240.15625V240.15625zM191.671875 261C172.75 261 166.03125 247.0781250000001 162.75 224.390625C161.171875 213.3125 159.6875 205.0625000000001 167.28125 195.921875C173.46875 188.453125 182.453125 188.609375 187.671875 178.28125C197.140625 159.5 190.0625 133.171875 194.25 112.71875C195.640625 105.96875 209.359375 65.1874999999999 222.96875 65.1874999999999C224.71875 65.1874999999999 226.5 65.8593749999999 228.21875 67.3749999999999C234.546875 72.9531249999999 225.9375 91.0624999999999 226.109375 97.953125C226.4375 111.640625 231.6875 118.640625 239.796875 128.8125C252.984375 145.375 264.078125 165.03125 275.375 183.171875C289.453125 205.703125 280.625 218.609375 257.5625 228.171875C238.421875 236.09375 226.390625 253.734375 205.5625 259C200.34375 260.328125 195.703125 260.96875 191.640625 260.96875V260.96875z" />
    <glyph glyph-name="027-grid"
      unicode="&#xE01C;"
      horiz-adv-x="500" d="M194.4453125 416.671875V305.5625H83.3359374999999V416.671875H194.4453125zM222.2265625 444.4375H55.5546874999999V277.765625H222.2265625V444.4375zM416.6796875 416.671875V305.5625H305.5703125V416.671875H416.6796875zM444.4453125 444.4375H277.7734375V277.765625H444.4453125000001V444.4375zM194.4453125 194.4375V83.328125H83.3359374999999V194.4375H194.4453125zM222.2265625 222.21875H55.5546874999999V55.546875H222.2265625V222.21875zM416.6796875 194.4375V83.328125H305.5703125V194.4375H416.6796875zM444.4453125 222.21875H277.7734375V55.546875H444.4453125000001V222.21875z" />
    <glyph glyph-name="028-hamburger"
      unicode="&#xE01D;"
      horiz-adv-x="500" d="M396.6953125 340.28125H103.3046875C91.8046875 340.28125 82.4765625 349.609375 82.4765625 361.109375S91.8046875 381.9375 103.3046875 381.9375H396.6953125C408.1953125000001 381.9375 417.5234375 372.609375 417.5234375 361.109375S408.1953125 340.28125 396.6953125 340.28125zM396.6953125 229.171875H103.3046875C91.8046875 229.171875 82.4765625 238.5000000000001 82.4765625 250.0000000000001S91.8046875 270.828125 103.3046875 270.828125H396.6953125C408.1953125000001 270.828125 417.5234375 261.5 417.5234375 250.0000000000001S408.1953125 229.171875 396.6953125 229.171875zM396.6953125 118.0625H103.3046875C91.8046875 118.0625 82.4765625 127.3906250000001 82.4765625 138.890625S91.8046875 159.71875 103.3046875 159.71875H396.6953125C408.1953125000001 159.71875 417.5234375 150.390625 417.5234375 138.890625S408.1953125 118.0625 396.6953125 118.0625z" />
    <glyph glyph-name="029-heart"
      unicode="&#xE01E;"
      horiz-adv-x="500" d="M347.2109375000001 416.671875C402.7734375000002 416.671875 444.4296875000002 372.234375 444.4296875000002 319.453125C444.4296875000002 297.234375 436.1015625000001 272.234375 419.4296875000001 255.5625L413.8671875000001 250L249.9765625000001 94.4375L83.3046875000001 250L80.5234375000001 252.78125C63.8515625000001 269.453125 55.5234375000001 294.453125 55.5234375000001 319.453125C55.5234375000001 372.234375 97.1953125000001 416.671875 152.7421875000001 416.671875C183.3046875000001 416.671875 211.0703125000001 402.78125 227.7421875000001 380.5625L249.9609375000002 352.78125L272.1796875000001 380.5625C288.8515625000002 402.78125 316.6171875000002 416.671875 347.1796875000002 416.671875zM347.2109375000001 444.4375C308.3203125000001 444.4375 272.2109375000001 425 249.9921875000001 397.21875C227.7734375000001 425 191.6640625000001 444.4375 152.7734375000001 444.4375C83.3359375000001 444.4375 27.7734375000001 388.875 27.7734375000001 319.4375C27.7734375000001 286.109375 41.6640625000001 255.546875 61.1015625000001 233.328125C61.1015625000001 233.328125 61.1015625000001 233.328125 63.8828125000001 230.546875L252.7734375000001 55.546875L433.3359375000001 227.765625L438.8984375000001 233.328125C461.1171874999999 255.546875 472.2265624999999 286.109375 472.2265624999999 319.4375C472.2265624999999 388.875 416.6640625 444.4375 347.2265625000001 444.4375V444.4375z" />
    <glyph glyph-name="030-info-circle-o"
      unicode="&#xE01F;"
      horiz-adv-x="500" d="M250 113.890625C241.671875 113.890625 236.109375 119.4531250000001 236.109375 127.78125V261.109375C236.109375 269.4375 241.671875 275 250 275S263.890625 269.4375 263.890625 261.109375V127.78125C263.890625 119.453125 258.328125 113.890625 250 113.890625zM250 338.890625C241.671875 338.890625 236.109375 344.453125 236.109375 352.78125V369.453125C236.109375 377.78125 241.671875 383.34375 250 383.34375S263.890625 377.78125 263.890625 369.453125V352.78125C263.890625 344.453125 258.328125 338.890625 250 338.890625zM250 444.4375C358.328125 444.4375 444.4375000000001 358.328125 444.4375000000001 250S358.3281250000001 55.5624999999999 250 55.5624999999999S55.5625 141.671875 55.5625 250S141.671875 444.4375 250 444.4375zM250 472.21875C127.78125 472.21875 27.78125 372.21875 27.78125 250S127.78125 27.78125 250 27.78125S472.21875 127.78125 472.21875 250S372.2187500000001 472.21875 250 472.21875V472.21875z" />
    <glyph glyph-name="031-link"
      unicode="&#xE020;"
      horiz-adv-x="500" d="M264.3282611111112 191.8279861111111C251.2858388888889 190.9139944444444 237.7936500000001 193.2693333333334 225.9040083333334 197.9872111111111L199.0113999999999 171.0946027777778C186.7185916666667 158.8017944444445 166.3565972222222 157.9954361111111 154.0640666666666 170.2879805555556L154.1320305555555 170.2200055555556C141.8394999999999 182.51255 145.1997833333333 200.3206166666667 157.4925805555555 212.6134250000001L216.708413888889 271.8292333333333C229.0009305555556 284.1217777777778 247.6028000000001 285.5218777777778 259.8953166666667 273.2293611111111C262.8229916666667 270.3016861111111 261.6323805555556 272.0576388888889 263.1654666666666 268.4637194444445C263.4740333333333 268.7182972222222 262.8764250000001 268.1746777777778 263.1654666666666 268.4637194444445L285.3229499999999 290.6212166666668C285.8362916666667 291.1345444444444 282.135586111111 295.3945027777778 279.2890527777778 298.2410611111111C254.7538472222222 322.7762527777778 216.3323222222222 321.2757277777778 191.7971166666666 296.7405333333333L132.5812916666666 237.5246944444445C108.0461 212.9895166666667 107.9557111111111 173.1583805555556 132.4909055555555 148.623175C157.0260972222222 124.0879972222222 196.8124499999999 124.2231527777778 221.3476416666666 148.7583583333333M234.4968777777778 336.731725C247.539275 337.6457027777778 262.29675 334.0251055555557 274.1863916666666 329.307225L301.0790000000001 356.1998333333334C313.3718083333333 368.4926416666667 332.8494416666666 373.4756694444445 345.1419583333334 361.1831388888889L345.0740083333334 361.2511138888889C357.366525 348.9585694444445 354.8906027777779 326.9738194444444 342.5978194444446 314.681025L283.3819833333335 255.4651888888889C271.0894666666667 243.1726722222222 251.2223388888889 243.0378055555556 238.9298194444445 255.33035C236.0021472222222 258.2579972222223 232.4154555555555 262.990475 230.8823722222222 266.5843972222222C230.5738055555556 266.3298194444444 228.9101999999999 267.423525 228.6211583333334 267.1344805555555L206.4636722222222 244.9769722222223C214.2541055555555 236.1598805555556 213.8029138888889 236.051825 216.6494722222222 233.2052666666667C241.1846499999999 208.6700611111111 283.7580777777778 206.0187138888889 308.2932833333333 230.5539194444445L367.5090944444445 289.7697305555556C392.0443 314.3049361111112 390.869425 355.4013333333333 366.3342194444445 379.936525C341.7990416666668 404.4717166666667 302.0126750000001 404.3365472222223 277.4774972222223 379.8013555555556" />
    <glyph glyph-name="032-list"
      unicode="&#xE021;"
      horiz-adv-x="500" d="M111.1171875 416.671875C111.1171875 400 100.0078125 388.890625 83.3359375 388.890625S55.5546875 400 55.5546875 416.671875S66.6640625 444.453125 83.3359375 444.453125S111.1171875 433.34375 111.1171875 416.671875zM83.3359375 333.328125C66.6640625 333.328125 55.5546875 322.21875 55.5546875 305.546875S66.6640625 277.765625 83.3359375 277.765625S111.1171875 288.875 111.1171875 305.546875S97.2265625 333.328125 83.3359375 333.328125zM83.3359375 222.21875C66.6640625 222.21875 55.5546875 211.1093750000001 55.5546875 194.4375000000001S66.6640625 166.6562500000001 83.3359375 166.6562500000001S111.1171875 177.7656250000001 111.1171875 194.4375000000001S97.2265625 222.21875 83.3359375 222.21875zM83.3359375 111.109375C66.6640625 111.109375 55.5546875 100.0000000000001 55.5546875 83.3281250000001S66.6640625 55.5468750000001 83.3359375 55.5468750000001S111.1171875 66.65625 111.1171875 83.3281250000001S97.2265625 111.109375 83.3359375 111.109375zM444.4453125 416.671875C444.4453125 425 438.8828125 430.5625 430.5546875 430.5625H180.5546875C172.2265625 430.5625 166.6640625 425 166.6640625 416.671875S172.2265625 402.78125 180.5546875 402.78125H433.3359375C438.8984375000001 402.78125 444.4453125 408.34375 444.4453125 416.671875zM444.4453125 305.5625C444.4453125 313.890625 438.8828125 319.453125 430.5546875 319.453125H180.5546875C172.2265625 319.453125 166.6640625 313.890625 166.6640625 305.5625S172.2265625 291.671875 180.5546875 291.671875H433.3359375C438.8984375000001 291.671875 444.4453125 297.234375 444.4453125 305.5625zM444.4453125 194.4375C444.4453125 202.765625 438.8828125 208.328125 430.5546875 208.328125H180.5546875C172.2265625 208.328125 166.6640625 202.765625 166.6640625 194.4375S172.2265625 180.546875 180.5546875 180.546875H433.3359375C438.8984375000001 180.546875 444.4453125 186.109375 444.4453125 194.4375zM444.4453125 83.328125C444.4453125 91.65625 438.8828125 97.2187499999999 430.5546875 97.2187499999999H180.5546875C172.2265625 97.2187499999999 166.6640625 91.6562499999999 166.6640625 83.328125S172.2265625 69.4375 180.5546875 69.4375H433.3359375C438.8984375000001 69.4375 444.4453125 75 444.4453125 83.328125z" />
    <glyph glyph-name="033-lock"
      unicode="&#xE022;"
      horiz-adv-x="500" d="M361.1171875 277.78125V340.28125C361.1171875 397.78125 307.5078125 444.453125 250.0078125 444.453125S138.8984375 397.78125 138.8984375 340.28125V277.78125H83.3359375V55.5625H416.6640625V277.78125H361.1015625zM166.6796875 340.28125C166.6796875 380.84375 205.5703125 416.671875 250.0078125 416.671875S333.3359375 380.84375 333.3359375 340.28125V277.78125H166.6640625V340.28125zM388.8984375 83.328125H111.1171875V250H388.8984375V83.328125zM294.4453125 190C294.4453125 202.78125 288.8828125 214.171875 280.2734375 222.21875C272.4921875 229.71875 261.6640625000001 234.4375 249.9921875 234.4375S227.4921875000001 229.71875 219.7109375 222.21875C211.1015625 214.1562500000001 205.5390625 202.78125 205.5390625 190S211.1015625 165.828125 219.7109375 157.78125L216.6484375 113.890625H283.8671875L279.1484375000001 156.671875C288.5859375 164.734375 294.4296875000001 176.671875 294.4296875000001 190zM257.2265625 168.890625V157.5000000000001L258.6171875 146.3906250000001L259.7265625 135.5625000000001H240.0078125L240.8359375 146.3906250000001L241.3984375 157.5000000000001V169.4375C236.6796875 171.109375 232.5078125 174.7187500000001 230.0078125 179.15625C228.3359375000001 182.2187500000001 227.2265625 186.09375 227.2265625 189.9843750000001C227.2265625 202.4843750000001 237.5078125 212.765625 250.0078125 212.765625S272.7890625 202.484375 272.7890625 189.9843750000001C272.7890625 186.0937500000001 271.6796875 182.203125 270.0078125 179.15625C267.2265625 174.15625 262.7890625 170.5468750000001 257.2265625 168.875z" />
    <glyph glyph-name="034-mail"
      unicode="&#xE023;"
      horiz-adv-x="500" d="M452.78125 416.671875H27.78125V83.3437500000001H472.21875V416.671875H452.78125zM425 388.890625L250 213.890625L75 388.890625H425zM55.5625 369.4375L163.890625 261.109375L55.5625 136.109375V369.4375zM69.4375 111.109375L180.546875 241.671875L247.21875 175L313.890625 241.671875L425 111.1093749999999H69.4375zM444.4375 136.109375L336.109375 261.109375L444.4375 369.4375V136.109375z" />
    <glyph glyph-name="035-merge"
      unicode="&#xE024;"
      horiz-adv-x="500" d="M430.5555555555557 136.944444444443V177.7777777777772C430.5555555555557 180.5555555555556 430.5555555555557 183.0555555555565 430.2777777777782 185.8333333333317C425.555555555557 236.9444444444437 379.1666666666662 253.611111111111 338.0555555555544 268.61111111111C291.9444444444443 285.2777777777773 263.8888888888889 298.055555555553 263.8888888888889 333.3333333333333V363.0555555555569C287.7777777777783 369.1666666666688 305.5555555555557 390.8333333333348 305.5555555555557 416.6666666666667C305.5555555555557 447.2222222222229 280.5555555555563 472.2222222222222 250.0000000000001 472.2222222222222S194.4444444444446 447.2222222222229 194.4444444444446 416.6666666666667C194.4444444444446 390.8333333333348 212.2222222222219 369.1666666666657 236.1111111111111 363.0555555555569V333.3333333333333C236.1111111111111 298.0555555555561 208.0555555555558 285.2777777777773 161.9444444444456 268.61111111111C118.6111111111138 252.7777777777753 69.4444444444444 234.9999999999979 69.4444444444444 177.7777777777772V136.944444444443C45.5555555555552 130.8333333333312 27.7777777777778 109.1666666666653 27.7777777777778 83.3333333333333C27.7777777777778 52.7777777777771 52.7777777777771 27.7777777777778 83.3333333333333 27.7777777777778S138.888888888889 52.7777777777771 138.888888888889 83.3333333333333C138.888888888889 109.1666666666653 121.1111111111115 130.8333333333344 97.2222222222222 136.944444444443V177.7777777777772C97.2222222222222 213.0555555555544 125.2777777777775 225.8333333333332 171.3888888888878 242.5000000000005C200.5555555555533 253.055555555556 232.5000000000003 264.7222222222215 250.0000000000001 288.8888888888883C267.4999999999999 264.7222222222215 299.4444444444438 253.055555555556 328.6111111111124 242.5000000000005C372.7777777777799 226.3888888888883 399.722222222222 214.4444444444452 402.5000000000004 183.333333333334C402.7777777777779 181.6666666666688 402.7777777777779 179.722222222223 402.7777777777779 177.7777777777772V136.944444444443C378.8888888888886 130.8333333333312 361.1111111111112 109.1666666666653 361.1111111111112 83.3333333333333C361.1111111111112 52.7777777777771 386.1111111111105 27.7777777777778 416.6666666666668 27.7777777777778S472.2222222222222 52.7777777777771 472.2222222222222 83.3333333333333C472.2222222222222 109.1666666666653 454.4444444444449 130.8333333333344 430.5555555555557 136.944444444443zM111.1111111111111 83.3333333333333C111.1111111111111 68.0555555555568 98.6111111111099 55.5555555555555 83.3333333333333 55.5555555555555S55.5555555555556 68.0555555555568 55.5555555555556 83.3333333333333S68.0555555555568 111.1111111111111 83.3333333333333 111.1111111111111S111.1111111111111 98.6111111111098 111.1111111111111 83.3333333333333zM222.2222222222222 416.6666666666667C222.2222222222222 431.9444444444432 234.7222222222236 444.4444444444445 250.0000000000001 444.4444444444445S277.7777777777779 431.9444444444432 277.7777777777779 416.6666666666667S265.2777777777766 388.8888888888889 250.0000000000001 388.8888888888889S222.2222222222222 401.3888888888902 222.2222222222222 416.6666666666667zM416.6666666666668 55.5555555555555C401.3888888888903 55.5555555555555 388.8888888888889 68.0555555555568 388.8888888888889 83.3333333333333S401.3888888888903 111.1111111111111 416.6666666666668 111.1111111111111S444.4444444444446 98.6111111111098 444.4444444444446 83.3333333333333S431.9444444444432 55.5555555555555 416.6666666666668 55.5555555555555z" />
    <glyph glyph-name="036-minus"
      unicode="&#xE025;"
      horiz-adv-x="500" d="M375 236.109375H125C116.671875 236.109375 111.109375 241.6718750000001 111.109375 250S116.671875 263.890625 125 263.890625H375C383.328125 263.890625 388.890625 258.328125 388.890625 250S383.328125 236.109375 375 236.109375z" />
    <glyph glyph-name="037-pencil"
      unicode="&#xE026;"
      horiz-adv-x="500" d="M348.1953125 426.8125L92.9140625 171.53125L73.1953125 73.203125L171.5234375 92.921875L426.8046875 348.203125L348.1953125 426.8125zM348.1953125 387.640625L387.6328125 348.203125L358.1953125 318.765625L318.7578125 358.203125L348.1953125 387.640625zM157.9296875 118.46875L108.7578125 108.75L118.4765625 157.921875L299.0390625 338.484375L338.4765625 299.046875L157.9140625 118.484375z" />
    <glyph glyph-name="038-pin"
      unicode="&#xE027;"
      horiz-adv-x="500" d="M362.9453125 247.140625L421.8671875 306.0625L304.0078125 423.921875L245.0859375 365L264.7265625 345.359375L205.8046875 286.4375L186.1640625 306.078125L127.2421875 247.1562500000001L176.3515625000001 198.046875L78.1328125000001 99.8281250000001C72.6328125 94.3281250000001 72.6328125 85.6875 78.1328125000001 80.1875S92.2734375000001 74.6875 97.7734375 80.1875L195.9921875 178.40625L245.1015625000001 129.296875L304.0234375000001 188.21875L284.3828125 207.859375L343.3046875 266.78125L362.9453125000001 247.140625zM264.7578125 188.21875L245.1171875 168.578125L166.5546875 247.140625L186.1953125 266.78125L205.8359375 247.140625L304.0546875 345.359375L284.4140625 365L304.0546875 384.640625L382.6171875 306.0781249999999L362.9765625 286.4374999999999L343.3359375 306.0781249999999L245.1171875 207.859375L264.7578125 188.21875z" />
    <glyph glyph-name="039-plus"
      unicode="&#xE028;"
      horiz-adv-x="500" d="M416.671875 250C416.671875 241.671875 411.109375 236.109375 402.7812500000001 236.109375H263.8906250000001V97.21875C263.8906250000001 88.890625 258.328125 83.3281250000001 250.0000000000001 83.3281250000001S236.1093750000001 88.8906250000001 236.1093750000001 97.21875V236.109375H97.2187500000001C88.8906250000001 236.109375 83.3281250000001 241.6718750000001 83.3281250000001 250S88.8906250000001 263.890625 97.2187500000001 263.890625H236.1093750000001V402.78125C236.1093750000001 411.109375 241.6718750000001 416.671875 250.0000000000001 416.671875S263.8906250000001 411.109375 263.8906250000001 402.78125V263.890625H402.7812500000001C411.1093750000001 263.890625 416.671875 258.328125 416.671875 250z" />
    <glyph glyph-name="040-question-circle-o"
      unicode="&#xE029;"
      horiz-adv-x="500" d="M250 444.4375C358.328125 444.4375 444.4375000000001 358.328125 444.4375000000001 250S358.3281250000001 55.5624999999999 250 55.5624999999999S55.5625 141.671875 55.5625 250S141.671875 444.4375 250 444.4375zM250 472.21875C127.78125 472.21875 27.78125 372.21875 27.78125 250S127.78125 27.78125 250 27.78125S472.21875 127.78125 472.21875 250S372.2187500000001 472.21875 250 472.21875V472.21875zM250 113.890625C241.671875 113.890625 236.109375 119.4531250000001 236.109375 127.78125V144.453125C236.109375 152.7812500000001 241.671875 158.34375 250 158.34375S263.890625 152.78125 263.890625 144.453125V127.78125C263.890625 122.21875 258.328125 113.890625 250 113.890625zM250 194.4375C241.671875 194.4375 236.109375 200 236.109375 208.328125V252.765625H250C280.5625 252.765625 305.5625 277.765625 305.5625 308.328125S280.5625 363.890625 250 363.890625S194.4375 338.890625 194.4375 308.328125C194.4375 300 188.875 294.4375 180.546875 294.4375S169.4375 300 169.4375 308.328125C169.4375 352.765625 205.546875 388.890625 250 388.890625S330.5625 352.78125 330.5625 308.328125C330.5625 269.4375 300 233.328125 263.890625 227.765625V208.328125C263.890625 200 258.328125 194.4375 250 194.4375z" />
    <glyph glyph-name="041-quote-close"
      unicode="&#xE02A;"
      horiz-adv-x="500" d="M392.6640625 201.53125C392.3828125 201.53125 392.3828125 201.53125 392.3828125 201.53125V200.96875C392.3828125 200.96875 392.9453125 201.25 392.6640625 201.53125zM442.9296875 297.640625V293.46875C443.2109375 294.859375 443.2109375 296.53125 443.2109375 297.90625C443.2109375 305.125 442.1015625 312.078125 439.8828125 318.734375C441.8203125 312.0625 442.9453125 305.125 442.9453125 297.625zM274.8828125 287.921875C275.1640625 285.421875 275.4453125 283.203125 275.9921875 280.703125C276.2734375000001 278.765625 276.5546875000001 276.8125 277.1015625000001 274.875C277.9296875000001 271.265625 279.0390625 267.65625 280.4296875000001 264.3125C282.3671875000001 258.75 284.8671875000001 253.75 287.9296875000001 248.7500000000001C291.2578125000001 242.6406250000001 295.1484375000001 237.3593750000001 299.8671875000001 232.3593750000001C302.3671875000001 229.296875 305.4296875000001 226.53125 308.4765625000001 223.7500000000001C310.1484375 222.3593750000001 312.0859375000001 220.6875000000001 314.0390625000001 219.3125000000001C318.7578125000001 215.7031250000001 324.0390625000001 212.6406250000001 329.3203125000001 209.8750000000001C336.8203125000001 206.2656250000001 345.1484375000001 203.4843750000001 353.4921875000001 201.8125000000001C353.2109375000001 201.5312500000001 353.2109375000001 201.5312500000001 352.9296875000001 201.5312500000001C334.6015625000001 187.0937500000001 312.1015625000001 179.5937500000001 288.4921875000001 179.5937500000001H274.6015625000001V103.4843750000001H288.4921875000001C389.3203125000001 103.4843750000001 471.2734375000001 185.4218750000001 471.2734375000001 286.5468750000001L470.9921875000001 292.6562500000001L470.7109375000001 298.2187500000001C470.7109375000001 316.2812500000001 465.7109375000001 333.2187500000001 457.3828125000001 347.9375000000001C455.9921875000001 350.1562500000001 454.8828125000001 352.1093750000001 453.4921875000001 354.0468750000001C451.8203125000001 356.2656250000001 450.1640625000001 358.4843750000001 448.4921875000001 360.7187500000001C446.2734375000001 363.2187500000001 444.3203125000001 365.4375000000001 442.1015625000001 367.6562500000001C424.3203125000001 385.4375000000001 399.6015625000001 396.5468750000001 372.6640625000001 396.5468750000001C318.2265625000001 396.5468750000001 274.3359375000001 352.3750000000001 274.3359375000001 298.2187500000001C274.3359375000001 297.9375000000001 274.3359375000001 297.9375000000001 274.3359375000001 297.6562500000001C274.3359375000001 294.3281250000001 274.6171875000001 290.9843750000001 274.8984375000001 287.9375000000001zM372.6640625 368.46875C399.3359375 368.46875 422.3828125 353.75 434.6015625 331.53125C436.8203125 327.640625 438.4921875 323.46875 439.8828125 319.03125C439.8828125 319.03125 439.8828125 319.03125 439.8828125 318.75C442.1015625 312.078125 443.2109375 305.140625 443.2109375 297.921875C443.2109375 296.53125 443.2109375 294.859375 442.9296875 293.484375L443.2109375 286.265625C443.2109375 260.703125 437.1015625 236.546875 426.2734375 215.4375C402.3828125 169.609375 356.2734375 136.828125 302.3828125 132.109375V152.390625C333.2109375 155.453125 361.5546875 169.0625 383.7734375 191C386.8359375000001 194.328125 389.6015625000001 197.671875 392.3828125 201V230.171875C386.2734375 228.5000000000001 379.6015625 227.390625 372.6640625 227.390625C349.3359375 227.390625 328.4921875 238.78125 315.7265625 256.5625C314.0546875 259.0625 312.3984375 261.5625 310.7265625 264.34375C309.6171875 266.5625 308.5078125 268.515625 307.6640625 270.734375C306.5546875 272.953125 305.9921875 275.171875 305.4453125 277.40625C303.2265625 283.796875 302.1171875 291.015625 302.1171875 298.234375C302.1171875 337.125 333.7890625 368.515625 372.6796875 368.515625zM147.0546875 201.53125C146.7734375 201.53125 146.7734375 201.53125 146.7734375 201.53125V200.96875C146.7734375 200.96875 147.3359375 201.25 147.0546875 201.53125zM197.3203125 297.640625V293.46875C197.6015625 294.859375 197.6015625 296.53125 197.6015625 297.90625C197.6015625 305.125 196.4921875 312.078125 194.2734375 318.734375C196.2109375 312.0625 197.3359375 305.125 197.3359375 297.625zM29.2734374999999 287.921875C29.5546874999999 285.421875 29.8359374999999 283.203125 30.3828124999999 280.703125C30.6640624999999 278.765625 30.9453124999999 276.8125 31.4921874999999 274.875C32.3203124999999 271.265625 33.4296874999999 267.65625 34.8203124999999 264.3125C36.7578124999999 258.75 39.2578124999999 253.75 42.3203124999999 248.7500000000001C45.6484374999999 242.6406250000001 49.5390624999999 237.3593750000001 54.2578124999999 232.3593750000001C56.7578124999999 229.296875 59.8203124999999 226.53125 62.8671874999999 223.7500000000001C64.5390624999999 222.3593750000001 66.4765624999999 220.6875000000001 68.4296874999999 219.3125000000001C73.1484374999999 215.7031250000001 78.4296874999999 212.6406250000001 83.7109374999999 209.8750000000001C91.2109374999999 206.2656250000001 99.5390624999999 203.4843750000001 107.8828124999999 201.8125000000001C107.6015624999999 201.5312500000001 107.6015624999999 201.5312500000001 107.3203124999999 201.5312500000001C88.9921874999999 187.0937500000001 66.4921874999999 179.5937500000001 42.8828124999999 179.5937500000001H28.9921874999999V103.4843750000001H42.8828124999999C143.7109375 103.4843750000001 225.6640625000001 185.4218750000001 225.6640625000001 286.5468750000001L225.3828125 292.6562500000001L225.1015625 298.2187500000001C225.1015625 316.2812500000001 220.1015625 333.2187500000001 211.7734375 347.9375000000001C210.3828125 350.1562500000001 209.2734375 352.1093750000001 207.8828125 354.0468750000001C206.2109375 356.2656250000001 204.5546875 358.4843750000001 202.8828125 360.7187500000001C200.6640625 363.2187500000001 198.7109375 365.4375000000001 196.4921875 367.6562500000001C178.7109375 385.4375000000001 153.9921875 396.5468750000001 127.0546875 396.5468750000001C72.6171874999999 396.5468750000001 28.7265624999999 352.3750000000001 28.7265624999999 298.2187500000001C28.7265624999999 297.9375000000001 28.7265624999999 297.9375000000001 28.7265624999999 297.6562500000001C28.7265624999999 294.3281250000001 29.0078124999999 290.9843750000001 29.2890624999999 287.9375000000001zM127.0546875 368.46875C153.7265625 368.46875 176.7734375 353.75 188.9921875 331.53125C191.2109375 327.640625 192.8828125 323.46875 194.2734375 319.03125C194.2734375 319.03125 194.2734375 319.03125 194.2734375 318.75C196.4921875 312.078125 197.6015625 305.140625 197.6015625 297.921875C197.6015625 296.53125 197.6015625 294.859375 197.3203125 293.484375L197.6015625 286.265625C197.6015625 260.703125 191.4921875 236.546875 180.6640625 215.4375C156.7734375 169.609375 110.6640624999999 136.828125 56.7734374999999 132.109375V152.390625C87.6015624999999 155.453125 115.9453125 169.0625 138.1640625 191C141.2265625 194.328125 143.9921875 197.671875 146.7734375 201V230.171875C140.6640625 228.5000000000001 133.9921875 227.390625 127.0546875 227.390625C103.7265624999999 227.390625 82.8828124999999 238.78125 70.1171874999999 256.5625C68.4453124999999 259.0625 66.7890624999999 261.5625 65.1171874999999 264.34375C64.0078124999999 266.5625 62.8984374999999 268.515625 62.0546874999999 270.734375C60.9453124999999 272.953125 60.3828124999999 275.171875 59.8359374999999 277.40625C57.6171874999999 283.796875 56.5078124999999 291.015625 56.5078124999999 298.234375C56.5078124999999 337.125 88.1796874999999 368.515625 127.0703125 368.515625z" />
    <glyph glyph-name="042-quote-fill-close"
      unicode="&#xE02B;"
      horiz-adv-x="500" d="M29.1250000000001 287.9375C33.8125000000001 245.6875 65.9531250000001 210.1875 107.7343750000001 201.828125C87.5937500000001 181.6875 55.4218750000001 179.609375 28.8437500000001 179.609375V103.5000000000001H42.7343750000001C143.5625000000001 103.5000000000001 225.5156250000002 185.4375000000001 225.5156250000002 286.5625C222.8281250000001 345.125 188.4843750000001 399.09375 123.0468750000001 396.421875C66.4687500000001 394.109375 24.0468750000001 343.84375 29.1250000000001 287.953125C29.4062500000001 285.453125 28.8437500000001 291.015625 29.1250000000001 287.953125zM274.7656250000001 287.9375C279.4531250000001 245.6875 311.5937500000001 210.1875 353.3750000000001 201.828125C333.2343750000001 181.6875 301.0625000000001 179.609375 274.4843750000001 179.609375V103.5000000000001H288.3750000000001C389.2031250000001 103.5000000000001 471.1562499999999 185.4375000000001 471.1562499999999 286.5625C468.4687499999999 345.125 434.1250000000001 399.09375 368.6875000000001 396.421875C312.1093750000001 394.109375 269.7187500000001 343.84375 274.7656250000001 287.953125C275.0468750000001 285.453125 274.4843750000001 291.015625 274.7656250000001 287.953125z" />
    <glyph glyph-name="043-quote-fill-open"
      unicode="&#xE02C;"
      horiz-adv-x="500" d="M470.8749999999999 212.0625C466.1874999999999 254.3125 434.0468750000001 289.8125 392.2656250000001 298.171875C412.4062500000001 318.3125 444.578125 320.390625 471.1562500000001 320.390625V396.5H457.2656250000001C356.4375000000001 396.5 274.4843750000001 314.5625 274.4843750000001 213.4375C277.1718750000001 154.875 311.5156250000001 100.90625 376.9531250000001 103.578125C433.53125 105.890625 475.9531249999999 156.15625 470.8749999999999 212.046875C470.5937499999999 214.546875 471.1562500000001 208.984375 470.8749999999999 212.046875zM225.234375 212.0625C220.546875 254.3125 188.40625 289.8125 146.625 298.171875C166.765625 318.3125 198.9375 320.390625 225.515625 320.390625V396.5H211.625C110.7968749999999 396.5 28.8437499999999 314.5625 28.8437499999999 213.4375C31.5312499999999 154.875 65.8749999999999 100.90625 131.3125 103.578125C187.890625 105.890625 230.28125 156.15625 225.234375 212.046875C224.953125 214.546875 225.515625 208.984375 225.234375 212.046875z" />
    <glyph glyph-name="044-quote-open"
      unicode="&#xE02D;"
      horiz-adv-x="500" d="M107.3359375000001 298.46875C107.6171875000001 298.46875 107.6171875000001 298.46875 107.6171875000001 298.46875V299.03125C107.6171875000001 299.03125 107.0546875000001 298.75 107.3359375000001 298.46875zM57.0703125000001 202.359375V206.53125C56.7890625000001 205.140625 56.7890625000001 203.46875 56.7890625000001 202.09375C56.7890625000001 194.875 57.8984375000001 187.921875 60.1171875000001 181.2656250000001C58.1796875000001 187.9375000000001 57.0546875000001 194.875 57.0546875000001 202.375zM225.1171875000001 212.078125C224.8359375000001 214.578125 224.5546875000001 216.796875 224.0078125000001 219.296875C223.7265625000001 221.234375 223.4453125000001 223.1875 222.8984375000001 225.125C222.0703125000001 228.7343750000001 220.9609375000001 232.34375 219.5703125000001 235.6875C217.6328125000001 241.25 215.1328125000001 246.25 212.0703125000001 251.25C208.7421875000001 257.359375 204.8515625000001 262.640625 200.1328125000001 267.640625C197.6328125000001 270.703125 194.5703125000001 273.46875 191.5234375000001 276.25C189.8515625000001 277.640625 187.9140625000001 279.3125 185.9609375000001 280.6875C181.2421875000001 284.296875 175.9609375000001 287.359375 170.6796875000001 290.125C163.1796875000001 293.734375 154.8515625000001 296.515625 146.5078125000001 298.1875C146.7890625000001 298.46875 146.7890625000001 298.46875 147.0703125000001 298.46875C165.3984375000001 312.90625 187.8984375000001 320.40625 211.5078125000001 320.40625H225.3984375000001V396.515625H211.5078125000001C110.6796875000001 396.515625 28.7265625000001 314.578125 28.7265625000001 213.453125L29.0078125000001 207.3437500000001L29.2890625000001 201.78125C29.2890625000001 183.7187500000001 34.2890625000001 166.78125 42.6171875000001 152.0625000000001C44.0078125000001 149.8437500000001 45.1171875000001 147.8906250000001 46.5078125000001 145.953125C48.1796875000001 143.734375 49.8359375000001 141.5156250000001 51.5078125000001 139.28125C53.7265625000001 136.78125 55.6796875000001 134.5625000000001 57.8984375000001 132.3437500000001C75.6796875000001 114.5625 100.3984375000001 103.4531250000001 127.3359375000001 103.4531250000001C181.7734375000001 103.4531250000001 225.6640625000001 147.625 225.6640625000001 201.78125C225.6640625000001 202.0625000000001 225.6640625000001 202.0625000000001 225.6640625000001 202.3437500000001C225.6640625000001 205.6718750000001 225.3828125000001 209.0156250000001 225.1015625000001 212.0625000000001zM127.3359375000001 131.53125C100.6640625000001 131.53125 77.6171875000001 146.25 65.3984375000001 168.46875C63.1796875000001 172.359375 61.5078125000001 176.53125 60.1171875000001 180.96875C60.1171875000001 180.96875 60.1171875000001 180.96875 60.1171875000001 181.25C57.8984375000001 187.921875 56.7890625000001 194.859375 56.7890625000001 202.078125C56.7890625000001 203.46875 56.7890625000001 205.140625 57.0703125000001 206.515625L56.7890625000001 213.734375C56.7890625000001 239.296875 62.8984375000001 263.453125 73.7265625000001 284.5625C97.6171875000001 330.390625 143.7265625000001 363.171875 197.6171875000001 367.890625V347.609375C166.7890625000001 344.546875 138.4453125000001 330.9375 116.2265625000001 309C113.1640625000001 305.671875 110.3984375000001 302.328125 107.6171875000001 299V269.828125C113.7265625000001 271.5 120.3984375000001 272.609375 127.3359375000001 272.609375C150.6640625000001 272.609375 171.5078125000001 261.21875 184.2734375000001 243.4375C185.9453125000001 240.9375 187.6015625000001 238.4375 189.2734375000001 235.65625C190.3828125000001 233.4375 191.4921875000001 231.484375 192.3359375000001 229.265625C193.4453125000001 227.046875 194.0078125000001 224.828125 194.5546875000001 222.59375C196.7734375000001 216.203125 197.8828125000001 208.984375 197.8828125000001 201.765625C197.8828125000001 162.875 166.2109375000001 131.484375 127.3203125000001 131.484375zM352.9453125000001 298.46875C353.2265625000001 298.46875 353.2265625000001 298.46875 353.2265625000001 298.46875V299.03125C353.2265625000001 299.03125 352.6640625000001 298.75 352.9453125000001 298.46875zM302.6796875000001 202.359375V206.53125C302.3984375000001 205.140625 302.3984375000001 203.46875 302.3984375000001 202.09375C302.3984375000001 194.875 303.5078125000001 187.921875 305.7265625000001 181.2656250000001C303.7890625000001 187.9375000000001 302.6640625000001 194.875 302.6640625000001 202.375zM470.7265625000001 212.078125C470.4453125000001 214.578125 470.1640625000001 216.796875 469.6171875000001 219.296875C469.3359375000001 221.234375 469.0546875000001 223.1875 468.5078125000001 225.125C467.6796874999999 228.7343750000001 466.5703125000001 232.34375 465.1796874999999 235.6875C463.2421875000001 241.25 460.7421875000001 246.25 457.6796874999999 251.25C454.3515624999999 257.359375 450.4609374999999 262.640625 445.7421875000001 267.640625C443.2421875000001 270.703125 440.1796875000001 273.46875 437.1328125000001 276.25C435.4609375000001 277.640625 433.5234375000001 279.3125 431.5703125000001 280.6875C426.8515625000001 284.296875 421.5703125000001 287.359375 416.2890625000001 290.125C408.7890625000001 293.734375 400.4609375000001 296.515625 392.1171875000001 298.1875C392.3984375000001 298.46875 392.3984375000001 298.46875 392.6796875000001 298.46875C411.0078125000001 312.90625 433.5078125000001 320.40625 457.1171874999999 320.40625H471.0078124999999V396.515625H457.1171874999999C356.2890625000001 396.515625 274.3359375000001 314.578125 274.3359375000001 213.453125L274.6171875000001 207.3437500000001L274.8984375000001 201.78125C274.8984375000001 183.7187500000001 279.8984375000001 166.78125 288.2265625000001 152.0625000000001C289.6171875000001 149.8437500000001 290.7265625000001 147.8906250000001 292.1171875000001 145.953125C293.7890625000001 143.734375 295.4453125000001 141.5156250000001 297.1171875000001 139.28125C299.3359375000001 136.78125 301.2890625000001 134.5625000000001 303.5078125000001 132.3437500000001C321.2890625000001 114.5625 346.0078125000001 103.4531250000001 372.9453125000001 103.4531250000001C427.3828125000001 103.4531250000001 471.2734374999999 147.625 471.2734374999999 201.78125C471.2734374999999 202.0625000000001 471.2734374999999 202.0625000000001 471.2734374999999 202.3437500000001C471.2734374999999 205.6718750000001 470.9921874999999 209.0156250000001 470.7109374999999 212.0625000000001zM372.9453125000001 131.53125C346.2734375000001 131.53125 323.2265625000001 146.25 311.0078125000001 168.46875C308.7890625000001 172.359375 307.1171875000001 176.53125 305.7265625000001 180.96875C305.7265625000001 180.96875 305.7265625000001 180.96875 305.7265625000001 181.25C303.5078125000001 187.921875 302.3984375000001 194.859375 302.3984375000001 202.078125C302.3984375000001 203.46875 302.3984375000001 205.140625 302.6796875000001 206.515625L302.3984375000001 213.734375C302.3984375000001 239.296875 308.5078125000001 263.453125 319.3359375000001 284.5625C343.2265625000001 330.390625 389.3359375000001 363.171875 443.2265625000001 367.890625V347.609375C412.3984375000001 344.546875 384.0546875000001 330.9375 361.8359375000001 309C358.7734375000001 305.671875 356.0078125000001 302.328125 353.2265625000001 299V269.828125C359.3359375000001 271.5 366.0078125000002 272.609375 372.9453125000002 272.609375C396.2734375000001 272.609375 417.1171875000001 261.21875 429.8828125000001 243.4375C431.5546875000001 240.9375 433.2109375000001 238.4375 434.8828125000001 235.65625C435.9921875000002 233.4375 437.1015625000001 231.484375 437.9453125000002 229.265625C439.0546875000002 227.046875 439.6171875000001 224.828125 440.1640625000001 222.59375C442.3828125000001 216.203125 443.4921875000002 208.984375 443.4921875000002 201.765625C443.4921875000002 162.875 411.8203125000001 131.484375 372.9296875000002 131.484375z" />
    <glyph glyph-name="045-search"
      unicode="&#xE02E;"
      horiz-adv-x="500" d="M456.1640624999999 61.46875L334.2265624999999 183.40625C361.1171874999999 213.015625 377.6171874999999 252.21875 377.6171874999999 295.375C377.6171874999999 387.546875 302.8984374999999 462.265625 210.7265624999999 462.265625S43.8359375 387.546875 43.8359375 295.375C43.8359375 203.203125 118.5546875 128.484375 210.7265624999999 128.484375C249.7265625 128.484375 285.5390624999999 141.984375 313.9453125 164.40625L436.5078125 41.8437499999999C439.2265625 39.1249999999999 442.7890625 37.7812499999999 446.3359375 37.7812499999999S453.4453125 39.1406249999999 456.1640625 41.8437499999999C461.6015625 47.2343749999999 461.6015625 56.0156249999999 456.1640625 61.4531249999999zM71.6328124999999 295.359375C71.6328124999999 372.046875 134.0234374999999 434.46875 210.7421874999999 434.46875C287.4296875 434.46875 349.8515624999999 372.046875 349.8515624999999 295.359375S287.4296874999999 156.25 210.7421874999999 156.25C134.0546874999999 156.25 71.6328124999999 218.671875 71.6328124999999 295.359375z" />
    <glyph glyph-name="046-share-facebook-circular"
      unicode="&#xE02F;"
      horiz-adv-x="500" d="M250 472.4392361111111C127.1497944444445 472.4392361111111 27.5607638888889 372.8502055555556 27.5607638888889 250S127.1497944444445 27.5607638888889 250 27.5607638888889S472.4392361111111 127.1497944444444 472.4392361111111 250S372.8502055555556 472.4392361111111 250 472.4392361111111zM250 55.3385416666666C142.6628972222222 55.3385416666666 55.3385416666667 142.6628972222222 55.3385416666667 250S142.6628972222222 444.6614583333333 250 444.6614583333333S444.6614583333335 357.3371027777778 444.6614583333335 250S357.3371027777778 55.3385416666666 250 55.3385416666666zM269.0429694444445 321.9960527777778C269.0429694444445 332.0431166666667 275.6991916666667 334.3658444444444 280.3768583333334 334.3658444444444C285.0409611111112 334.3658444444444 309.0922027777778 334.3658444444444 309.0922027777778 334.3658444444444V378.4501805555556L269.5295555555556 378.6078555555556C225.6198472222223 378.6078555555556 215.6338166666667 345.7319472222223 215.6338166666667 324.6951638888889V295.3067361111111H190.2330194444445V249.9050555555556H215.6338166666667C215.6338166666667 191.5978305555556 215.6338166666667 121.3938388888889 215.6338166666667 121.3938388888889H269.0429694444445C269.0429694444445 121.3938388888889 269.0429694444445 192.3217777777778 269.0429694444445 249.9050555555556H305.0893166666667L309.7669833333335 295.3067333333334H269.0429694444445V321.9960527777778z" />
    <glyph glyph-name="047-share-facebook"
      unicode="&#xE030;"
      horiz-adv-x="500" d="M305.0887333333334 249.9051611111111H269.0434722222224C269.0434722222224 192.3214305555555 269.0434722222224 121.39315 269.0434722222224 121.39315H215.6346388888889C215.6346388888889 121.39315 215.6346388888889 191.5980166666667 215.6346388888889 249.9051611111111H190.2331777777778V295.3065888888889H215.6346388888889V324.6948583333334C215.6346388888889 345.7317222222223 225.6193694444445 378.60685 269.5289472222222 378.60685L309.0916222222222 378.4493083333334V334.3660972222223C309.0916222222222 334.3660972222223 285.0406972222222 334.3660972222223 280.376938888889 334.3660972222223C275.6988750000001 334.3660972222223 269.0434722222223 332.0431333333334 269.0434722222223 321.9957222222222V295.3065888888889H309.7668222222223L305.0887333333334 249.9051611111111z" />
    <glyph glyph-name="048-share-linkedin-circular"
      unicode="&#xE031;"
      horiz-adv-x="500" d="M250.0000013888889 472.4392361111111C127.1497958333334 472.4392361111111 27.5607625 372.8502055555556 27.5607625 250S127.1497958333334 27.5607638888889 250.0000013888889 27.5607638888889S472.4392375 127.1497944444444 472.4392375 250S372.8502069444445 472.4392361111111 250.0000013888889 472.4392361111111zM250.0000013888889 55.3385416666666C142.6628986111111 55.3385416666666 55.3385430555556 142.6628972222222 55.3385430555556 250S142.6628986111111 444.6614583333333 250.0000013888889 444.6614583333333S444.6614597222224 357.3371027777778 444.6614597222224 250S357.3371041666667 55.3385416666666 250.0000013888889 55.3385416666666zM164.4558402777778 357.9288055555556C147.9170097222223 357.9288055555556 137.0815736111111 347.0408111111111 137.0815736111111 332.7585861111111C137.0815736111111 318.7815361111111 147.5847069444445 307.5900611111112 163.8217541666667 307.5900611111112H164.1404930555556C181.0251902777778 307.5900611111112 191.5283236111111 318.7815361111111 191.5283236111111 332.7585861111111C191.2248402777778 347.0408111111111 181.0251875 357.9288055555556 164.4558402777778 357.9288055555556zM139.9349652777778 287.6858194444444H188.3578847222222V142.0728916666667H139.9349652777778V287.6858194444445zM307.1763791666667 291.1054833333333C281.4822736111111 291.1054833333333 269.9873180555556 277.0165361111111 263.5362430555556 267.0644138888889V287.6858194444444H215.1404513888889C215.7609763888889 274.039375 215.1404513888889 142.0728916666667 215.1404513888889 142.0728916666667H263.5362430555556V223.39715C263.5362430555556 227.7798138888889 263.8515902777778 232.0810972222223 265.1350263888889 235.1955861111112C268.6360708333334 243.8812277777778 276.6164180555556 252.9229083333334 289.9729430555556 252.9229083333334C307.5069875000001 252.9229083333334 314.5090763888889 239.5528194444445 314.5090763888889 219.9791833333334V142.0728916666667H362.9184319444444V225.5757638888889C362.9184319444445 270.317925 339.0163847222223 291.1054833333333 307.1763791666667 291.1054833333333z" />
    <glyph glyph-name="049-share-linkedin"
      unicode="&#xE032;"
      horiz-adv-x="500" d="M264.6665305555556 267.9815027777778V268.48915C264.5763027777778 268.3102027777778 264.4418888888889 268.1312833333334 264.3224138888889 267.9815027777778H264.6665305555556zM183.2099611111111 133.0585472222222H130.7423388888889V290.8330361111112H183.2099638888889V133.0585472222222zM156.9692694444445 312.3984861111111H156.6251638888888C139.03145 312.3984861111111 127.6515055555556 324.5262833333334 127.6515055555556 339.6699694444444C127.6515055555556 355.1439833333333 139.3908527777778 366.9414388888889 157.3118361111112 366.9414388888889C175.2651388888889 366.9414388888889 186.3160777777778 355.1439833333333 186.6448972222223 339.6699694444444C186.6448972222222 324.5262833333334 175.2651388888889 312.3984861111111 156.9692694444445 312.3984861111111zM372.3484944444445 133.0585472222222H319.8963527777778V217.4713611111112C319.8963527777778 238.6790388888889 312.309025 253.1665166666667 293.3113555555556 253.1665166666667C278.8390555555556 253.1665166666667 270.1922777777778 243.3694722222223 266.3994611111111 233.9593305555556C265.0091111111111 230.5840388888889 264.6665305555556 225.9242 264.6665305555556 221.1754583333333V133.0585472222222H212.2296749999999C212.2296749999999 133.0585472222222 212.900875 276.0472277777778 212.2296749999999 290.8330361111112H264.6665305555556V268.48915C271.6556916666667 279.2726361111112 284.1122944444445 294.5371361111111 311.9511611111111 294.5371361111111C346.4503833333333 294.5371361111111 372.3484944444445 272.0143027777778 372.3484944444445 223.53525V133.0585472222222z" />
    </font>
</defs>
</svg>
